<?xml version="1.0" encoding="utf-8"?>
<!-- Generator: Adobe Illustrator 30.2.1, SVG Export Plug-In . SVG Version: 9.03 Build 0)  -->
<svg version="1.2" baseProfile="tiny" xmlns="http://www.w3.org/2000/svg" xmlns:xlink="http://www.w3.org/1999/xlink" x="0px"
	 y="0px" viewBox="0 0 300 120.6987686" overflow="visible" xml:space="preserve">
<g id="Halftone_Urchin">
	<g>
		<g id="_x3C_Radial_Repeat_x3E__00000132066818976184534900000010522517962591882901_">
			<circle cx="57.1969414" cy="96.3337021" r="1.6213673"/>
			<circle cx="57.1969414" cy="100.5851593" r="1.4102581"/>
			<circle cx="57.1969414" cy="104.8366165" r="1.1991489"/>
			<path d="M56.2089005,109.0880737c0-0.5456848,0.4423599-0.9880447,0.9880409-0.9880447
				c0.5456772,0,0.9880371,0.4423599,0.9880371,0.9880447c0,0.5456772-0.4423599,0.9880371-0.9880371,0.9880371
				C56.6512604,110.0761108,56.2089005,109.6337509,56.2089005,109.0880737z"/>
			<path d="M56.4200096,113.3395233c0-0.4290848,0.3478432-0.7769241,0.7769318-0.7769241
				c0.4290848,0,0.7769279,0.3478394,0.7769279,0.7769241c0,0.4290924-0.3478432,0.7769318-0.7769279,0.7769318
				C56.7678528,114.1164551,56.4200096,113.7686157,56.4200096,113.3395233z"/>
			<path d="M56.6311188,117.5909805c0-0.3124924,0.2533264-0.5658188,0.5658226-0.5658188
				c0.3124924,0,0.5658188,0.2533264,0.5658188,0.5658188c0,0.3125-0.2533264,0.5658264-0.5658188,0.5658264
				C56.8844452,118.1568069,56.6311188,117.9034805,56.6311188,117.5909805z"/>
		</g>
		<g id="_x3C_Radial_Repeat_x3E__00000046308772149048894490000004704172910776714667_">
			<circle cx="53.6173286" cy="96.1524506" r="1.6213673"/>
			<circle cx="53.1872177" cy="100.3820953" r="1.4102582"/>
			<circle cx="52.757103" cy="104.6117401" r="1.1991489"/>
			<circle cx="52.326992" cy="108.8413849" r="0.9880397"/>
			<circle cx="51.8968773" cy="113.071022" r="0.7769305"/>
			<circle cx="51.4667664" cy="117.3006668" r="0.5658212"/>
		</g>
		<g id="_x3C_Radial_Repeat_x3E__00000094598324346553944370000016024101485964436916_">
			<circle cx="50.0757675" cy="95.6113052" r="1.6213673"/>
			<circle cx="49.2199593" cy="99.7757339" r="1.4102581"/>
			<circle cx="48.3641472" cy="103.9401627" r="1.1991489"/>
			<circle cx="47.5083351" cy="108.1045837" r="0.9880396"/>
			<circle cx="46.652523" cy="112.2690125" r="0.7769304"/>
			<circle cx="45.796711" cy="116.4334412" r="0.5658212"/>
		</g>
		<g id="_x3C_Radial_Repeat_x3E__00000075851855218636722830000010946948194966506916_">
			<circle cx="46.6072655" cy="94.7124176" r="1.6213673"/>
			<circle cx="45.3345375" cy="98.768898" r="1.4102581"/>
			<circle cx="44.0618095" cy="102.8253784" r="1.1991489"/>
			<circle cx="42.7890778" cy="106.8818588" r="0.9880396"/>
			<circle cx="41.5163498" cy="110.9383392" r="0.7769304"/>
			<circle cx="40.2436218" cy="114.9948196" r="0.5658212"/>
		</g>
		<g id="_x3C_Radial_Repeat_x3E__00000031184861420208592410000011881488784211196586_">
			<circle cx="43.2467613" cy="93.466507" r="1.6213673"/>
			<circle cx="41.5701752" cy="97.3734131" r="1.4102582"/>
			<circle cx="39.893589" cy="101.2803192" r="1.1991489"/>
			<circle cx="38.2170029" cy="105.187233" r="0.9880397"/>
			<circle cx="36.5404167" cy="109.0941391" r="0.7769305"/>
			<circle cx="34.8638268" cy="113.0010452" r="0.5658212"/>
		</g>
		<g id="_x3C_Radial_Repeat_x3E__00000013913748116639547300000012901282280585557645_">
			<circle cx="40.0300102" cy="91.8885117" r="1.6213673"/>
			<circle cx="37.9667702" cy="95.6057587" r="1.4102581"/>
			<circle cx="35.9035301" cy="99.3230057" r="1.1991489"/>
			<circle cx="33.8402901" cy="103.0402451" r="0.9880397"/>
			<circle cx="31.77705" cy="106.7574921" r="0.7769305"/>
			<circle cx="29.71381" cy="110.4747391" r="0.5658212"/>
		</g>
		<g id="_x3C_Radial_Repeat_x3E__00000016768435317493982510000004207205612864929684_">
			<circle cx="36.9886551" cy="89.9940643" r="1.6213673"/>
			<circle cx="34.5599365" cy="93.4835052" r="1.4102581"/>
			<circle cx="32.1312141" cy="96.9729462" r="1.1991489"/>
			<circle cx="29.7024918" cy="100.4623871" r="0.9880397"/>
			<circle cx="27.2737713" cy="103.9518204" r="0.7769305"/>
			<circle cx="24.8450489" cy="107.4412613" r="0.5658212"/>
		</g>
		<g id="_x3C_Radial_Repeat_x3E__00000074412476063147052650000013056926150549868183_">
			<circle cx="34.1550522" cy="87.7996826" r="1.6213673"/>
			<circle cx="31.3857708" cy="91.0255051" r="1.4102581"/>
			<circle cx="28.6164894" cy="94.2513351" r="1.1991489"/>
			<circle cx="25.847208" cy="97.4771576" r="0.9880397"/>
			<circle cx="23.0779266" cy="100.7029877" r="0.7769305"/>
			<circle cx="20.3086452" cy="103.9288101" r="0.5658212"/>
		</g>
		<g id="_x3C_Radial_Repeat_x3E__00000004530618612691206440000014739896085850609573_">
			<circle cx="31.5579014" cy="85.3315201" r="1.6213673"/>
			<circle cx="28.4764767" cy="88.2606277" r="1.4102581"/>
			<circle cx="25.395052" cy="91.189743" r="1.1991489"/>
			<circle cx="22.3136272" cy="94.1188507" r="0.9880397"/>
			<circle cx="19.2322025" cy="97.047966" r="0.7769305"/>
			<circle cx="16.1507797" cy="99.9770813" r="0.5658212"/>
		</g>
		<g id="_x3C_Radial_Repeat_x3E__00000051341789048407987710000016170386461013100717_">
			<circle cx="29.2241268" cy="82.612648" r="1.6213672"/>
			<circle cx="25.8621788" cy="85.2149887" r="1.4102581"/>
			<circle cx="22.5002308" cy="87.8173294" r="1.1991489"/>
			<circle cx="19.1382828" cy="90.4196701" r="0.9880396"/>
			<circle cx="15.7763348" cy="93.0220108" r="0.7769304"/>
			<circle cx="12.4143867" cy="95.6243515" r="0.5658212"/>
		</g>
		<g id="_x3C_Radial_Repeat_x3E__00000040559370422528663370000015799521817376098454_">
			<circle cx="27.1770687" cy="79.671402" r="1.6213673"/>
			<circle cx="23.5690937" cy="81.9202652" r="1.4102581"/>
			<circle cx="19.9611206" cy="84.169136" r="1.1991489"/>
			<circle cx="16.3531475" cy="86.4179993" r="0.9880396"/>
			<circle cx="12.7451744" cy="88.6668701" r="0.7769304"/>
			<circle cx="9.1372004" cy="90.9157333" r="0.5658212"/>
		</g>
		<g id="_x3C_Radial_Repeat_x3E__00000111876999082257436040000014734522985135922111_">
			<circle cx="25.4380054" cy="76.5389404" r="1.6213673"/>
			<circle cx="21.6210289" cy="78.4112549" r="1.4102582"/>
			<circle cx="17.8040524" cy="80.2835693" r="1.1991489"/>
			<circle cx="13.9870758" cy="82.1558838" r="0.9880397"/>
			<circle cx="10.1701002" cy="84.0282059" r="0.7769305"/>
			<circle cx="6.3531232" cy="85.9005203" r="0.5658212"/>
		</g>
		<g id="_x3C_Radial_Repeat_x3E__00000024723886276625790810000006893819581399329211_">
			<circle cx="24.0251923" cy="73.2466888" r="1.6213673"/>
			<circle cx="20.0383816" cy="74.7232437" r="1.4102581"/>
			<circle cx="16.051569" cy="76.1997986" r="1.1991489"/>
			<circle cx="12.0647583" cy="77.6763458" r="0.9880396"/>
			<circle cx="8.0779467" cy="79.1529007" r="0.7769304"/>
			<circle cx="4.091135" cy="80.6294556" r="0.5658212"/>
		</g>
		<g id="_x3C_Radial_Repeat_x3E__00000130635581038978480940000017512409968577704322_">
			<circle cx="22.9524231" cy="69.8274078" r="1.6213673"/>
			<circle cx="18.8366871" cy="70.8930435" r="1.4102581"/>
			<circle cx="14.7209501" cy="71.9586792" r="1.1991489"/>
			<circle cx="10.6052132" cy="73.0243225" r="0.9880397"/>
			<circle cx="6.4894762" cy="74.0899582" r="0.7769305"/>
			<circle cx="2.373739" cy="75.1555939" r="0.5658212"/>
		</g>
		<g id="_x3C_Radial_Repeat_x3E__00000103255969517797692870000017799521417734782347_">
			<circle cx="22.2312851" cy="66.3167725" r="1.6213673"/>
			<circle cx="18.0288563" cy="66.9605637" r="1.4102582"/>
			<circle cx="13.8264265" cy="67.6043472" r="1.1991489"/>
			<circle cx="9.6239967" cy="68.2481384" r="0.9880397"/>
			<circle cx="5.4215679" cy="68.8919296" r="0.7769305"/>
			<circle cx="1.2191384" cy="69.5357132" r="0.5658212"/>
		</g>
		<g id="_x3C_Radial_Repeat_x3E__00000124131766394870591960000005883013109470437516_">
			<circle cx="21.8687153" cy="62.7522774" r="1.6213673"/>
			<circle cx="17.6227169" cy="62.9676094" r="1.4102582"/>
			<circle cx="13.3767176" cy="63.1829414" r="1.1991489"/>
			<circle cx="9.1307182" cy="63.3982735" r="0.9880397"/>
			<circle cx="4.8847194" cy="63.6136093" r="0.7769305"/>
			<circle cx="0.6387203" cy="63.8289413" r="0.5658212"/>
		</g>
		<g id="_x3C_Radial_Repeat_x3E__00000099622964372293492050000006547535054760868488_">
			<circle cx="21.8687248" cy="59.1684647" r="1.6213673"/>
			<circle cx="17.6227264" cy="58.9531326" r="1.4102582"/>
			<circle cx="13.3767271" cy="58.7378006" r="1.1991489"/>
			<circle cx="9.1307278" cy="58.5224686" r="0.9880397"/>
			<circle cx="4.8847284" cy="58.3071327" r="0.7769305"/>
			<circle cx="0.6387293" cy="58.0918007" r="0.5658212"/>
		</g>
		<g id="_x3C_Radial_Repeat_x3E__00000018211632063819220830000008728317088987334312_">
			<circle cx="22.2312222" cy="55.6041908" r="1.6213673"/>
			<circle cx="18.0287933" cy="54.9604034" r="1.4102582"/>
			<circle cx="13.8263636" cy="54.3166122" r="1.1991489"/>
			<circle cx="9.6239347" cy="53.6728249" r="0.9880397"/>
			<circle cx="5.4215055" cy="53.0290375" r="0.7769305"/>
			<circle cx="1.2190758" cy="52.3852501" r="0.5658212"/>
		</g>
		<g id="_x3C_Radial_Repeat_x3E__00000048468168413942872300000014035558232003231926_">
			<circle cx="22.95224" cy="52.0942001" r="1.6213673"/>
			<circle cx="18.8365021" cy="51.0285606" r="1.4102581"/>
			<circle cx="14.7207661" cy="49.962925" r="1.1991489"/>
			<circle cx="10.6050282" cy="48.8972855" r="0.9880397"/>
			<circle cx="6.4892917" cy="47.8316498" r="0.7769305"/>
			<circle cx="2.3735545" cy="46.7660103" r="0.5658212"/>
		</g>
		<g id="_x3C_Radial_Repeat_x3E__00000138562778451575753340000014754963760632552096_">
			<circle cx="24.0248737" cy="48.6751938" r="1.6213673"/>
			<circle cx="20.0380611" cy="47.1986427" r="1.4102581"/>
			<circle cx="16.0512505" cy="45.7220879" r="1.1991489"/>
			<circle cx="12.0644379" cy="44.2455368" r="0.9880396"/>
			<circle cx="8.0776262" cy="42.7689819" r="0.7769304"/>
			<circle cx="4.0908151" cy="41.2924309" r="0.5658212"/>
		</g>
		<g id="_x3C_Radial_Repeat_x3E__00000174586446891843555310000011757110715134100098_">
			<circle cx="25.4384155" cy="45.3826523" r="1.6213673"/>
			<circle cx="21.621439" cy="43.510334" r="1.4102582"/>
			<circle cx="17.8044624" cy="41.6380196" r="1.1991489"/>
			<circle cx="13.9874868" cy="39.7657013" r="0.9880397"/>
			<circle cx="10.1705112" cy="37.8933868" r="0.7769305"/>
			<circle cx="6.3535342" cy="36.0210686" r="0.5658212"/>
		</g>
		<g id="_x3C_Radial_Repeat_x3E__00000144304334664400803360000001662902323894667435_">
			<circle cx="27.1769047" cy="42.2490616" r="1.6213673"/>
			<circle cx="23.5689297" cy="40.0001945" r="1.4102581"/>
			<circle cx="19.9609566" cy="37.7513275" r="1.1991489"/>
			<circle cx="16.3529835" cy="35.5024605" r="0.9880396"/>
			<circle cx="12.7450104" cy="33.2535973" r="0.7769304"/>
			<circle cx="9.1370363" cy="31.0047283" r="0.5658212"/>
		</g>
		<g id="_x3C_Radial_Repeat_x3E__00000057121184901017456280000012577183120041825411_">
			<circle cx="29.2238636" cy="39.308712" r="1.6213672"/>
			<circle cx="25.8619156" cy="36.7063675" r="1.4102581"/>
			<circle cx="22.4999676" cy="34.1040268" r="1.1991489"/>
			<circle cx="19.1380196" cy="31.5016861" r="0.9880396"/>
			<circle cx="15.7760715" cy="28.8993454" r="0.7769304"/>
			<circle cx="12.4141245" cy="26.2970028" r="0.5658212"/>
		</g>
		<g id="_x3C_Radial_Repeat_x3E__00000150060501067430486230000010889270336631025849_">
			<circle cx="31.5581665" cy="36.5898972" r="1.6213673"/>
			<circle cx="28.4767418" cy="33.6607857" r="1.4102581"/>
			<circle cx="25.395319" cy="30.7316742" r="1.1991489"/>
			<circle cx="22.3138943" cy="27.8025608" r="0.9880397"/>
			<circle cx="19.2324696" cy="24.8734493" r="0.7769305"/>
			<circle cx="16.1510448" cy="21.9443359" r="0.5658212"/>
		</g>
		<g id="_x3C_Radial_Repeat_x3E__00000039103797700842505310000017668060607782193339_">
			<circle cx="34.1552773" cy="34.1210327" r="1.6213673"/>
			<circle cx="31.3859978" cy="30.8952045" r="1.4102581"/>
			<circle cx="28.6167164" cy="27.6693783" r="1.1991489"/>
			<circle cx="25.847435" cy="24.443552" r="0.9880397"/>
			<circle cx="23.0781536" cy="21.2177258" r="0.7769305"/>
			<circle cx="20.3088722" cy="17.9918995" r="0.5658212"/>
		</g>
		<g id="_x3C_Radial_Repeat_x3E__00000165228167686919994800000009481827393758919067_">
			<circle cx="36.9890747" cy="31.9278355" r="1.6213673"/>
			<circle cx="34.5603523" cy="28.4383965" r="1.4102581"/>
			<circle cx="32.1316299" cy="24.9489555" r="1.1991489"/>
			<circle cx="29.7029095" cy="21.4595165" r="0.9880397"/>
			<circle cx="27.274189" cy="17.9700775" r="0.7769305"/>
			<circle cx="24.8454666" cy="14.4806376" r="0.5658212"/>
		</g>
		<g id="_x3C_Radial_Repeat_x3E__00000152250697462778889600000004506670641341325711_">
			<circle cx="40.0298653" cy="30.0320072" r="1.6213673"/>
			<circle cx="37.9666252" cy="26.3147621" r="1.4102581"/>
			<circle cx="35.903389" cy="22.5975151" r="1.1991489"/>
			<circle cx="33.8401489" cy="18.88027" r="0.9880397"/>
			<circle cx="31.776907" cy="15.1630239" r="0.7769305"/>
			<circle cx="29.7136669" cy="11.4457779" r="0.5658212"/>
		</g>
		<g id="_x3C_Radial_Repeat_x3E__00000127027028493102939470000015123430775135204232_">
			<circle cx="43.2471275" cy="28.4541645" r="1.6213673"/>
			<circle cx="41.5705414" cy="24.5472565" r="1.4102582"/>
			<circle cx="39.8939514" cy="20.6403484" r="1.1991489"/>
			<circle cx="38.2173653" cy="16.7334385" r="0.9880397"/>
			<circle cx="36.5407791" cy="12.8265305" r="0.7769305"/>
			<circle cx="34.864193" cy="8.9196224" r="0.5658212"/>
		</g>
		<g id="_x3C_Radial_Repeat_x3E__00000084502604056084969160000009244318898107937967_">
			<circle cx="46.6069717" cy="27.20924" r="1.6213673"/>
			<circle cx="45.3342438" cy="23.1527596" r="1.4102581"/>
			<circle cx="44.061512" cy="19.0962791" r="1.1991489"/>
			<circle cx="42.788784" cy="15.0397987" r="0.9880396"/>
			<circle cx="41.5160561" cy="10.9833174" r="0.7769304"/>
			<circle cx="40.2433243" cy="6.926837" r="0.5658212"/>
		</g>
		<g id="_x3C_Radial_Repeat_x3E__00000005238473522788960410000004035609980562055317_">
			<circle cx="50.0758057" cy="26.311203" r="1.6213673"/>
			<circle cx="49.2199936" cy="22.1467762" r="1.4102581"/>
			<circle cx="48.3641815" cy="17.9823475" r="1.1991489"/>
			<circle cx="47.5083694" cy="13.8179197" r="0.9880396"/>
			<circle cx="46.6525574" cy="9.653492" r="0.7769304"/>
			<circle cx="45.7967453" cy="5.4890637" r="0.5658212"/>
		</g>
		<g id="_x3C_Radial_Repeat_x3E__00000155145818757847032380000015209283570831818147_">
			<circle cx="53.6181221" cy="25.7690086" r="1.6213673"/>
			<circle cx="53.1880074" cy="21.5393658" r="1.4102582"/>
			<circle cx="52.7578964" cy="17.3097229" r="1.1991489"/>
			<circle cx="52.3277855" cy="13.0800791" r="0.9880397"/>
			<circle cx="51.8976707" cy="8.8504362" r="0.7769305"/>
			<circle cx="51.4675598" cy="4.6207929" r="0.5658212"/>
		</g>
		<g id="_x3C_Radial_Repeat_x3E__00000114787325872079910600000012492915288376136066_">
			<circle cx="57.1966133" cy="25.587265" r="1.6213673"/>
			<circle cx="57.1966133" cy="21.3358097" r="1.4102581"/>
			<path d="M58.3957634,17.0843544c0,0.6622715-0.5368767,1.1991482-1.1991501,1.1991482
				c-0.6622696,0-1.1991463-0.5368767-1.1991463-1.1991482s0.5368767-1.1991491,1.1991463-1.1991491
				C57.8588867,15.8852053,58.3957634,16.4220829,58.3957634,17.0843544z"/>
			<path d="M58.1846542,12.8328981c0,0.5456791-0.4423599,0.98804-0.9880409,0.98804
				c-0.5456772,0-0.9880371-0.4423609-0.9880371-0.98804s0.4423599-0.98804,0.9880371-0.98804
				C57.7422943,11.8448582,58.1846542,12.287219,58.1846542,12.8328981z"/>
			<path d="M57.9735451,8.5814428c0,0.4290867-0.3478432,0.7769299-0.7769318,0.7769299
				c-0.4290848,0-0.7769279-0.3478432-0.7769279-0.7769299s0.3478432-0.7769308,0.7769279-0.7769308
				C57.6257019,7.804512,57.9735451,8.1523561,57.9735451,8.5814428z"/>
			<path d="M57.7624359,4.3299866c0,0.3124948-0.2533264,0.5658216-0.5658226,0.5658216
				c-0.3124924,0-0.5658188-0.2533269-0.5658188-0.5658216c0-0.3124943,0.2533264-0.5658209,0.5658188-0.5658209
				C57.5091095,3.7641656,57.7624359,4.0174923,57.7624359,4.3299866z"/>
		</g>
		<g id="_x3C_Radial_Repeat_x3E__00000080164814056722161940000017098211387821388174_">
			<circle cx="60.7755547" cy="25.7689438" r="1.6213673"/>
			<circle cx="61.2056656" cy="21.5393009" r="1.4102582"/>
			<circle cx="61.6357803" cy="17.3096581" r="1.1991489"/>
			<circle cx="62.0658913" cy="13.0800142" r="0.9880397"/>
			<circle cx="62.496006" cy="8.8503714" r="0.7769305"/>
			<circle cx="62.9261169" cy="4.6207285" r="0.5658212"/>
		</g>
		<g id="_x3C_Radial_Repeat_x3E__00000117662106068594957920000001005417235580018866_">
			<circle cx="64.3170547" cy="26.3111305" r="1.6213673"/>
			<circle cx="65.1728668" cy="22.1467037" r="1.4102581"/>
			<circle cx="66.0286789" cy="17.982275" r="1.1991489"/>
			<circle cx="66.884491" cy="13.8178473" r="0.9880396"/>
			<circle cx="67.740303" cy="9.6534185" r="0.7769304"/>
			<circle cx="68.5961151" cy="5.4889908" r="0.5658212"/>
		</g>
		<g id="_x3C_Radial_Repeat_x3E__00000169559127726852093250000012798379225454114984_">
			<circle cx="67.7857971" cy="27.2094097" r="1.6213673"/>
			<circle cx="69.0585327" cy="23.1529274" r="1.4102581"/>
			<circle cx="70.3312607" cy="19.096447" r="1.1991489"/>
			<circle cx="71.6039886" cy="15.0399666" r="0.9880396"/>
			<circle cx="72.8767166" cy="10.9834862" r="0.7769304"/>
			<circle cx="74.1494446" cy="6.9270053" r="0.5658212"/>
		</g>
		<g id="_x3C_Radial_Repeat_x3E__00000018945293949148083200000016976070923376430745_">
			<circle cx="71.146553" cy="28.4542217" r="1.6213673"/>
			<circle cx="72.8231354" cy="24.5473137" r="1.4102582"/>
			<circle cx="74.4997253" cy="20.6404037" r="1.1991489"/>
			<circle cx="76.1763077" cy="16.7334957" r="0.9880397"/>
			<circle cx="77.8528976" cy="12.8265877" r="0.7769305"/>
			<circle cx="79.52948" cy="8.9196787" r="0.5658212"/>
		</g>
		<g id="_x3C_Radial_Repeat_x3E__00000085243372739081226960000010842259998461814916_">
			<circle cx="74.3635483" cy="30.0322151" r="1.6213673"/>
			<circle cx="76.4267883" cy="26.3149681" r="1.4102581"/>
			<circle cx="78.4900284" cy="22.597723" r="1.1991489"/>
			<circle cx="80.5532684" cy="18.880476" r="0.9880397"/>
			<circle cx="82.6165085" cy="15.1632309" r="0.7769305"/>
			<circle cx="84.6797485" cy="11.4459848" r="0.5658212"/>
		</g>
		<g id="_x3C_Radial_Repeat_x3E__00000032616124073302483620000010910005835546890929_">
			<circle cx="77.4048996" cy="31.9276371" r="1.6213673"/>
			<circle cx="79.8336182" cy="28.4381981" r="1.4102581"/>
			<circle cx="82.2623444" cy="24.9487572" r="1.1991489"/>
			<circle cx="84.6910629" cy="21.4593182" r="0.9880397"/>
			<circle cx="87.1197815" cy="17.9698792" r="0.7769305"/>
			<circle cx="89.5485077" cy="14.4804392" r="0.5658212"/>
		</g>
		<g id="_x3C_Radial_Repeat_x3E__00000003097322613317288150000001508496892300392365_">
			<circle cx="80.2380142" cy="34.121048" r="1.6213673"/>
			<circle cx="83.0072937" cy="30.8952198" r="1.4102581"/>
			<circle cx="85.7765732" cy="27.6693935" r="1.1991489"/>
			<circle cx="88.5458603" cy="24.4435673" r="0.9880397"/>
			<circle cx="91.3151398" cy="21.217741" r="0.7769305"/>
			<circle cx="94.0844193" cy="17.9919128" r="0.5658212"/>
		</g>
		<g id="_x3C_Radial_Repeat_x3E__00000025432069547277041970000017837668088227163558_">
			<circle cx="82.8351669" cy="36.589695" r="1.6213673"/>
			<circle cx="85.9165878" cy="33.6605835" r="1.4102581"/>
			<circle cx="88.9980164" cy="30.731472" r="1.1991489"/>
			<circle cx="92.0794373" cy="27.8023586" r="0.9880397"/>
			<circle cx="95.1608658" cy="24.8732471" r="0.7769305"/>
			<circle cx="98.2422867" cy="21.9441338" r="0.5658212"/>
		</g>
		<g id="_x3C_Radial_Repeat_x3E__00000148638220299090514860000011251958672611705986_">
			<circle cx="85.1689377" cy="39.3080788" r="1.6213672"/>
			<circle cx="88.5308914" cy="36.7057381" r="1.4102581"/>
			<circle cx="91.8928375" cy="34.1033974" r="1.1991489"/>
			<circle cx="95.2547836" cy="31.5010548" r="0.9880396"/>
			<circle cx="98.6167297" cy="28.8987141" r="0.7769304"/>
			<circle cx="101.9786835" cy="26.2963734" r="0.5658212"/>
		</g>
		<g id="_x3C_Radial_Repeat_x3E__00000030467837620168852420000004730068168363568552_">
			<circle cx="87.2159958" cy="42.2493248" r="1.6213673"/>
			<circle cx="90.8239746" cy="40.0004578" r="1.4102581"/>
			<circle cx="94.4319458" cy="37.7515907" r="1.1991489"/>
			<circle cx="98.039917" cy="35.5027237" r="0.9880396"/>
			<circle cx="101.6478958" cy="33.2538567" r="0.7769304"/>
			<circle cx="105.255867" cy="31.0049896" r="0.5658212"/>
		</g>
		<g id="_x3C_Radial_Repeat_x3E__00000071526320881378606040000018433178011693901743_">
			<circle cx="88.9545746" cy="45.3827629" r="1.6213673"/>
			<circle cx="92.771553" cy="43.5104485" r="1.4102582"/>
			<circle cx="96.5885239" cy="41.6381302" r="1.1991489"/>
			<circle cx="100.4055023" cy="39.7658157" r="0.9880397"/>
			<circle cx="104.2224808" cy="37.8934975" r="0.7769305"/>
			<circle cx="108.0394516" cy="36.021183" r="0.5658212"/>
		</g>
		<g id="_x3C_Radial_Repeat_x3E__00000162322633299943581230000005268410038594614709_">
			<circle cx="90.3678741" cy="48.6752548" r="1.6213673"/>
			<circle cx="94.3546829" cy="47.1987038" r="1.4102581"/>
			<circle cx="98.3414993" cy="45.7221489" r="1.1991489"/>
			<circle cx="102.3283081" cy="44.2455978" r="0.9880396"/>
			<circle cx="106.3151169" cy="42.769043" r="0.7769304"/>
			<circle cx="110.3019333" cy="41.2924919" r="0.5658212"/>
		</g>
		<g id="_x3C_Radial_Repeat_x3E__00000083050465670957511850000001810885218620651679_">
			<circle cx="91.4403992" cy="52.0942955" r="1.6213673"/>
			<circle cx="95.5561371" cy="51.0286598" r="1.4102581"/>
			<circle cx="99.671875" cy="49.9630203" r="1.1991489"/>
			<circle cx="103.7876129" cy="48.8973846" r="0.9880397"/>
			<circle cx="107.9033432" cy="47.8317451" r="0.7769305"/>
			<circle cx="112.0190811" cy="46.7661057" r="0.5658212"/>
		</g>
		<g id="_x3C_Radial_Repeat_x3E__00000034087974798549244810000007278261987666962609_">
			<circle cx="92.1623917" cy="55.6044388" r="1.6213673"/>
			<circle cx="96.3648224" cy="54.9606514" r="1.4102582"/>
			<circle cx="100.5672531" cy="54.316864" r="1.1991489"/>
			<circle cx="104.7696762" cy="53.6730728" r="0.9880397"/>
			<circle cx="108.9721069" cy="53.0292854" r="0.7769305"/>
			<circle cx="113.1745377" cy="52.385498" r="0.5658212"/>
		</g>
		<g id="_x3C_Radial_Repeat_x3E__00000183222824001304088920000000873686086168687494_">
			<circle cx="92.524292" cy="59.1693649" r="1.6213673"/>
			<circle cx="96.7702866" cy="58.9540329" r="1.4102582"/>
			<circle cx="101.0162888" cy="58.7386971" r="1.1991489"/>
			<circle cx="105.2622833" cy="58.523365" r="0.9880397"/>
			<circle cx="109.5082855" cy="58.308033" r="0.7769305"/>
			<circle cx="113.7542877" cy="58.092701" r="0.5658212"/>
		</g>
		<g id="_x3C_Radial_Repeat_x3E__00000059270195456065213740000003752845537172351132_">
			<circle cx="92.5253754" cy="62.7526245" r="1.6213673"/>
			<circle cx="96.7713776" cy="62.9679604" r="1.4102582"/>
			<circle cx="101.0173798" cy="63.1832924" r="1.1991489"/>
			<circle cx="105.2633743" cy="63.3986244" r="0.9880397"/>
			<circle cx="109.5093765" cy="63.6139565" r="0.7769305"/>
			<circle cx="113.7553711" cy="63.8292885" r="0.5658212"/>
		</g>
		<g id="_x3C_Radial_Repeat_x3E__00000152227221457444891140000017287402428606234032_">
			<circle cx="92.1625748" cy="66.3175125" r="1.6213673"/>
			<circle cx="96.3650055" cy="66.9612961" r="1.4102582"/>
			<circle cx="100.5674362" cy="67.6050873" r="1.1991489"/>
			<circle cx="104.7698669" cy="68.2488785" r="0.9880397"/>
			<circle cx="108.97229" cy="68.892662" r="0.7769305"/>
			<circle cx="113.1747208" cy="69.5364532" r="0.5658212"/>
		</g>
		<g id="_x3C_Radial_Repeat_x3E__00000018204296162597785160000017980801079013981368_">
			<circle cx="91.4405823" cy="69.8272552" r="1.6213673"/>
			<circle cx="95.5563202" cy="70.8928986" r="1.4102581"/>
			<circle cx="99.6720581" cy="71.9585342" r="1.1991489"/>
			<circle cx="103.787796" cy="73.0241699" r="0.9880397"/>
			<circle cx="107.9035339" cy="74.0898132" r="0.7769305"/>
			<circle cx="112.0192642" cy="75.1554489" r="0.5658212"/>
		</g>
		<g id="_x3C_Radial_Repeat_x3E__00000018217068207905949700000015457109928588433847_">
			<circle cx="90.3674622" cy="73.2462616" r="1.6213673"/>
			<circle cx="94.3542709" cy="74.7228165" r="1.4102581"/>
			<circle cx="98.3410873" cy="76.1993713" r="1.1991489"/>
			<circle cx="102.3278961" cy="77.6759186" r="0.9880396"/>
			<circle cx="106.3147049" cy="79.1524734" r="0.7769304"/>
			<circle cx="110.3015213" cy="80.6290283" r="0.5658212"/>
		</g>
		<g id="_x3C_Radial_Repeat_x3E__00000016797118587985793450000006760478248664847238_">
			<circle cx="88.9553833" cy="76.5392914" r="1.6213673"/>
			<circle cx="92.7723618" cy="78.4116135" r="1.4102582"/>
			<circle cx="96.5893326" cy="80.2839279" r="1.1991489"/>
			<circle cx="100.406311" cy="82.1562424" r="0.9880397"/>
			<circle cx="104.2232895" cy="84.0285568" r="0.7769305"/>
			<circle cx="108.0402679" cy="85.9008789" r="0.5658212"/>
		</g>
		<g id="_x3C_Radial_Repeat_x3E__00000095308671551647721680000006843954681282439575_">
			<circle cx="87.2168961" cy="79.6723938" r="1.6213673"/>
			<circle cx="90.8248672" cy="81.9212646" r="1.4102581"/>
			<circle cx="94.4328384" cy="84.1701279" r="1.1991489"/>
			<circle cx="98.0408173" cy="86.4189987" r="0.9880396"/>
			<circle cx="101.6487885" cy="88.6678619" r="0.7769304"/>
			<circle cx="105.2567596" cy="90.9167328" r="0.5658212"/>
		</g>
		<g id="_x3C_Radial_Repeat_x3E__00000090293804467802354750000013894251971169774013_">
			<circle cx="85.1701813" cy="82.6132355" r="1.6213672"/>
			<circle cx="88.5321274" cy="85.2155762" r="1.4102581"/>
			<circle cx="91.8940735" cy="87.8179169" r="1.1991489"/>
			<circle cx="95.2560196" cy="90.4202576" r="0.9880396"/>
			<circle cx="98.6179733" cy="93.0225983" r="0.7769304"/>
			<circle cx="101.9799194" cy="95.624939" r="0.5658212"/>
		</g>
		<g id="_x3C_Radial_Repeat_x3E__00000147925425732243707230000005951655224918444468_">
			<circle cx="82.835144" cy="85.3315582" r="1.6213673"/>
			<circle cx="85.9165649" cy="88.2606735" r="1.4102581"/>
			<circle cx="88.9979935" cy="91.1897812" r="1.1991489"/>
			<circle cx="92.0794144" cy="94.1188965" r="0.9880397"/>
			<circle cx="95.1608429" cy="97.0480118" r="0.7769305"/>
			<circle cx="98.2422638" cy="99.9771194" r="0.5658212"/>
		</g>
		<g id="_x3C_Radial_Repeat_x3E__00000084516331398709891530000009166748845820343454_">
			<circle cx="80.2370529" cy="87.8009109" r="1.6213673"/>
			<circle cx="83.00634" cy="91.026741" r="1.4102581"/>
			<circle cx="85.7756195" cy="94.2525635" r="1.1991489"/>
			<circle cx="88.544899" cy="97.4783936" r="0.9880397"/>
			<circle cx="91.3141785" cy="100.7042236" r="0.7769305"/>
			<circle cx="94.0834656" cy="103.9300461" r="0.5658212"/>
		</g>
		<g id="_x3C_Radial_Repeat_x3E__00000158724523233085747880000010565927949944082829_">
			<circle cx="77.4042358" cy="89.9941101" r="1.6213673"/>
			<circle cx="79.8329544" cy="93.483551" r="1.4102581"/>
			<circle cx="82.2616806" cy="96.9729919" r="1.1991489"/>
			<circle cx="84.6903992" cy="100.4624329" r="0.9880397"/>
			<circle cx="87.1191254" cy="103.9518661" r="0.7769305"/>
			<circle cx="89.5478439" cy="107.4413071" r="0.5658212"/>
		</g>
		<g id="_x3C_Radial_Repeat_x3E__00000134944864074286368210000016224378390930325687_">
			<circle cx="74.362709" cy="91.8894501" r="1.6213673"/>
			<circle cx="76.4259491" cy="95.6066971" r="1.4102581"/>
			<circle cx="78.4891891" cy="99.3239441" r="1.1991489"/>
			<circle cx="80.5524292" cy="103.0411911" r="0.9880397"/>
			<circle cx="82.6156693" cy="106.7584305" r="0.7769305"/>
			<circle cx="84.6789093" cy="110.4756775" r="0.5658212"/>
		</g>
		<g id="_x3C_Radial_Repeat_x3E__00000111188723165711882050000004405492377956712587_">
			<circle cx="71.1461868" cy="93.4675369" r="1.6213673"/>
			<circle cx="72.8227692" cy="97.3744431" r="1.4102582"/>
			<circle cx="74.4993591" cy="101.2813568" r="1.1991489"/>
			<circle cx="76.1759415" cy="105.1882629" r="0.9880397"/>
			<circle cx="77.8525314" cy="109.0951691" r="0.7769305"/>
			<circle cx="79.5291138" cy="113.0020828" r="0.5658212"/>
		</g>
		<g id="_x3C_Radial_Repeat_x3E__00000114756092704078987540000003040270725612976293_">
			<circle cx="67.7863388" cy="94.7119751" r="1.6213673"/>
			<circle cx="69.0590668" cy="98.7684555" r="1.4102581"/>
			<circle cx="70.3317947" cy="102.8249359" r="1.1991489"/>
			<circle cx="71.6045227" cy="106.8814163" r="0.9880396"/>
			<circle cx="72.8772583" cy="110.9378967" r="0.7769304"/>
			<circle cx="74.1499863" cy="114.9943771" r="0.5658212"/>
		</g>
		<g id="_x3C_Radial_Repeat_x3E__00000080195466354802136560000007157540414445189782_">
			<circle cx="64.317627" cy="95.6107407" r="1.6213673"/>
			<circle cx="65.173439" cy="99.7751694" r="1.4102581"/>
			<circle cx="66.0292511" cy="103.9395981" r="1.1991489"/>
			<circle cx="66.8850632" cy="108.1040268" r="0.9880396"/>
			<circle cx="67.7408752" cy="112.2684555" r="0.7769304"/>
			<circle cx="68.5966873" cy="116.4328842" r="0.5658212"/>
		</g>
		<g id="_x3C_Radial_Repeat_x3E__00000069362968986511959160000008923525268193740214_">
			<circle cx="60.7759209" cy="96.1528168" r="1.6213673"/>
			<circle cx="61.2060356" cy="100.3824615" r="1.4102582"/>
			<circle cx="61.6361465" cy="104.6120987" r="1.1991489"/>
			<circle cx="62.0662575" cy="108.8417435" r="0.9880397"/>
			<circle cx="62.4963722" cy="113.0713882" r="0.7769305"/>
			<circle cx="62.9264832" cy="117.301033" r="0.5658212"/>
		</g>
	</g>
</g>
<g id="QRSTKR_copy_2">
	<path stroke="#000000" stroke-width="0.5" stroke-miterlimit="10" d="M300,91.1837769l-13.9623413-24.3916931
		c3.2307129-1.4788361,5.802948-3.6824684,7.7200317-6.6120338c1.9159546-2.9284401,2.8744812-6.4738121,2.8744812-10.6349869
		c0-4.2712975-0.9315796-7.855999-2.79245-10.7585945c-1.86203-2.9020348-4.4219055-5.092186-7.6784668-6.5704536
		c-3.2576904-1.4782677-6.9952087-2.2176819-11.2103271-2.2176819H256.144165h-4.5994263h-11.3328247l-20.9429626,25.1589928
		V29.998333h-7.6368713h-5.0927429h-38.4355316v4.6305428c-1.8678436-1.5362816-3.974762-2.7787743-6.3232269-3.7270622
		c-3.1205902-1.25914-6.5159454-1.8889923-10.1838074-1.8889923c-4.1617279,0-7.8430786,0.7675076-11.0462646,2.299715
		c-3.2026367,1.5333309-5.6950684,3.6689816-7.4733734,6.4063892c-0.7852783,1.2077293-1.3868256,2.5057755-1.8255768,3.8840332
		c-0.3918304-0.9982262-0.8575439-1.9421577-1.4180756-2.8164902c-1.8620148-2.9020348-4.421875-5.092186-7.6790085-6.5704536
		c-3.258255-1.4782677-6.995224-2.2176819-11.2103348-2.2176819H87.5373917V48.168354
		c-0.0140457-0.0337105-0.0257034-0.068409-0.0398941-0.1021194c-1.6153641-3.8319206-3.8881073-7.1716461-6.8165512-10.0191803
		c-2.9295654-2.8464088-6.3648071-5.06353-10.3068542-6.6524849c-3.9426117-1.5872707-8.2414398-2.3817482-12.8942451-2.3817482
		c-4.6544952,0-8.9522018,0.7944775-12.894249,2.3817482c-3.9420471,1.5889549-7.3784142,3.806076-10.3068542,6.6524849
		c-2.9301281,2.8475342-5.2023125,6.1872597-6.8165512,10.0191803c-1.6159229,3.833046-2.4233246,7.9953423-2.4233246,12.4835243
		c0,4.4904251,0.8214474,8.6516037,2.4643421,12.4835205c1.6423321,3.833046,3.9279995,7.1862564,6.8575649,10.0607605
		c2.9284401,2.8745041,6.3648109,5.1062317,10.3068581,6.6940613c3.9420471,1.5867081,8.2127838,2.3811874,12.8122139,2.3811874
		c3.0478363,0,5.9482536-0.3567123,8.7076454-1.0539932l4.268631,7.4603806h13.3864441l-7.129303-12.2941742
		c1.3732681-0.9633179,2.6829758-2.0074081,3.8856506-3.1874619c2.9284439-2.8745041,5.2152328-6.2277145,6.8575668-10.0607605
		c0.0287933-0.0671387,0.0526733-0.1361847,0.0809097-0.203537v18.3540344h12.7301788V69.009201h9.0337372l12.4014206,22.1745758
		h14.2904816l-13.9617844-24.3916931c3.229599-1.4788361,5.8029404-3.6824684,7.7200241-6.6120338
		c1.0747833-1.6427536,1.8370209-3.486866,2.3090515-5.5176582c0.5479584,1.1091919,1.2205811,2.1587563,2.0431519,3.1364746
		c2.4637909,2.9295654,6.1310883,5.1882629,11.0052643,6.774971l11.9907684,3.9420471
		c1.8603363,0.6034393,3.229599,1.4114075,4.1061096,2.4238892c0.8753815,1.0136032,1.3141937,2.2305984,1.3141937,3.6543655
		c0,1.3136444-0.356781,2.4508591-1.0675354,3.4082794c-0.7124481,0.9585419-1.6979523,1.711441-2.9570923,2.2586975
		c-1.2597046,0.5472565-2.7649384,0.8214493-4.5168457,0.8214493c-3.2852173,0-6.2827759-0.9574203-8.9932098-2.8745041
		c-2.7098846-1.9159622-4.8326111-4.5443649-6.3648071-7.8852158l-10.4299164,4.6814575
		c1.2035217,3.5049133,3.0245209,6.5434799,5.4613342,9.1168289c2.4356842,2.5733414,5.3382874,4.5578461,8.7055511,5.9535217
		c3.3672485,1.3967972,6.966568,2.094635,10.7996063,2.094635c4.3246765,0,8.1166992-0.7798691,11.3749542-2.3407288
		c3.2571411-1.5608673,5.8164368-3.7229233,7.6784515-6.4884262c1.8609009-2.7632523,2.7924805-5.9254303,2.7924805-9.485405
		c0-4.1061096-1.2192535-7.5829315-3.6543732-10.4304695c-2.4368134-2.8464088-6.1187134-5.06353-11.0462799-6.6524849
		l-11.7440948-3.7779808c-1.86203-0.6011963-3.2582703-1.437252-4.1887054-2.5047951
		c-0.9315796-1.067543-1.3962402-2.3115158-1.3962402-3.7364044c0-1.3136406,0.3556519-2.4767036,1.0675354-3.4903069
		c0.7113342-1.0124817,1.7249298-1.7923508,3.0391388-2.3407326c1.3141937-0.5472565,2.8194427-0.8214455,4.5168304-0.8214455
		c2.956543,0,5.5849457,0.8079605,7.8846588,2.4227638c2.2991486,1.6159248,4.0240784,3.8476524,5.1736603,6.6929398
		l10.3478699-4.6803398c-0.4355164-1.2240219-0.9780731-2.3594818-1.5747681-3.449852h10.1982727v50.098156h12.7296143v-50.098156
		h10.1832581v50.098156h12.7296143V74.4300766l7.5559692-9.1168289l14.9467316,25.8705292h9.7730865h5.0927429h7.6368713V69.009201
		h9.0332642l12.4019165,22.1745758H300z M75.7123718,68.6810684c-0.9855118,2.4632187-2.3817444,4.5859451-4.1887054,6.3648148
		c-0.2798767,0.2757339-0.5793533,0.524292-0.8729935,0.7809219l-5.2867355-9.1167603H52.2235947l7.8891525,13.7881775
		c-0.8588829,0.102684-1.7311783,0.1730576-2.6329002,0.1730576c-2.7924728,0-5.3792992-0.4921951-7.7610474-1.4777069
		c-2.3817444-0.9855118-4.4763794-2.3676987-6.2827759-4.1476898c-1.8069611-1.7788696-3.2031937-3.9015961-4.1887054-6.3648148
		c-0.9855118-2.4643402-1.4782677-5.1747742-1.4782677-8.1313095s0.4927559-5.6523666,1.4782677-8.0897369
		c0.9855118-2.4351234,2.3817444-4.5578499,4.1887054-6.3648109c1.8063965-1.8069572,3.9010315-3.1891479,6.2827759-4.1476898
		c2.3817482-0.956295,4.9685745-1.437252,7.7610474-1.437252c2.792469,0,5.3792953,0.480957,7.7610435,1.437252
		c2.3817444,0.9585419,4.4758148,2.3407326,6.2827759,4.1476898c1.8069611,1.8069611,3.2031937,3.9296875,4.1887054,6.3648109
		c0.9855118,2.4373703,1.4782715,5.1332016,1.4782715,8.0897369S76.6978836,66.2167282,75.7123718,68.6810684z
		 M118.7872162,53.897274c-0.7388535,1.2608261-1.7659454,2.2463379-3.0795898,2.9565353
		c-1.3142014,0.7124443-2.8744965,1.0686646-4.6814575,1.0686646h-10.7585983v-16.836853h10.7585983
		c1.8069611,0,3.3672562,0.3573456,4.6814575,1.067543c1.3136444,0.7124443,2.3407364,1.6979561,3.0795898,2.9565353
		c0.7394104,1.2608261,1.1085587,2.738533,1.1085587,4.4353638
		C119.8957748,51.1879578,119.5266266,52.6386948,118.7872162,53.897274z M235.4482117,54.9740868l16.0965271-19.4251556v46.9319725
		L235.4482117,54.9740868z M282.7945557,53.897274c-0.7394104,1.2608261-1.76651,2.2463379-3.0801392,2.9565353
		c-1.3147583,0.7124443-2.8745117,1.0686646-4.6814575,1.0686646h-10.758606v-16.836853h10.758606
		c1.8069458,0,3.3666992,0.3573456,4.6814575,1.067543c1.3136292,0.7124443,2.3407288,1.6979561,3.0801392,2.9565353
		c0.7383118,1.2608261,1.1080017,2.738533,1.1080017,4.4353638
		C283.9025574,51.1879578,283.5328674,52.6386948,282.7945557,53.897274z"/>
</g>
</svg>
