<?xml version='1.0' encoding='utf-8'?>
<svg xmlns="http://www.w3.org/2000/svg" xmlns:xlink="http://www.w3.org/1999/xlink" version="1.1" viewBox="0 0 49 49"><defs><clipPath id="qr-circle-clip"><circle cx="24.5" cy="24.5" r="23.8" /></clipPath></defs><circle cx="24.5" cy="24.5" r="24.2" fill="#ffffff" stroke="none" /><g clip-path="url(#qr-circle-clip)" id="noise-fill"><circle cx="23.50" cy="1.50" r="0.320" fill="#000000" /><circle cx="24.50" cy="1.50" r="0.320" fill="#000000" /><circle cx="25.50" cy="1.50" r="0.320" fill="#000000" /><circle cx="18.50" cy="2.50" r="0.320" fill="#000000" /><circle cx="19.50" cy="2.50" r="0.320" fill="#000000" /><circle cx="21.50" cy="2.50" r="0.320" fill="#000000" /><circle cx="23.50" cy="2.50" r="0.320" fill="#000000" /><circle cx="25.50" cy="2.50" r="0.320" fill="#000000" /><circle cx="28.50" cy="2.50" r="0.320" fill="#000000" /><circle cx="15.50" cy="3.50" r="0.320" fill="#000000" /><circle cx="16.50" cy="3.50" r="0.320" fill="#000000" /><circle cx="20.50" cy="3.50" r="0.320" fill="#000000" /><circle cx="28.50" cy="3.50" r="0.320" fill="#000000" /><circle cx="29.50" cy="3.50" r="0.320" fill="#000000" /><circle cx="33.50" cy="3.50" r="0.320" fill="#000000" /><circle cx="18.50" cy="4.50" r="0.320" fill="#000000" /><circle cx="20.50" cy="4.50" r="0.320" fill="#000000" /><circle cx="21.50" cy="4.50" r="0.320" fill="#000000" /><circle cx="22.50" cy="4.50" r="0.320" fill="#000000" /><circle cx="23.50" cy="4.50" r="0.320" fill="#000000" /><circle cx="27.50" cy="4.50" r="0.320" fill="#000000" /><circle cx="31.50" cy="4.50" r="0.320" fill="#000000" /><circle cx="11.50" cy="5.50" r="0.320" fill="#000000" /><circle cx="17.50" cy="5.50" r="0.320" fill="#000000" /><circle cx="20.50" cy="5.50" r="0.320" fill="#000000" /><circle cx="23.50" cy="5.50" r="0.320" fill="#000000" /><circle cx="24.50" cy="5.50" r="0.320" fill="#000000" /><circle cx="26.50" cy="5.50" r="0.320" fill="#000000" /><circle cx="33.50" cy="5.50" r="0.320" fill="#000000" /><circle cx="34.50" cy="5.50" r="0.320" fill="#000000" /><circle cx="36.50" cy="5.50" r="0.320" fill="#000000" /><circle cx="10.50" cy="6.50" r="0.320" fill="#000000" /><circle cx="11.50" cy="6.50" r="0.320" fill="#000000" /><circle cx="12.50" cy="6.50" r="0.320" fill="#000000" /><circle cx="13.50" cy="6.50" r="0.320" fill="#000000" /><circle cx="16.50" cy="6.50" r="0.320" fill="#000000" /><circle cx="19.50" cy="6.50" r="0.320" fill="#000000" /><circle cx="23.50" cy="6.50" r="0.320" fill="#000000" /><circle cx="25.50" cy="6.50" r="0.320" fill="#000000" /><circle cx="38.50" cy="6.50" r="0.320" fill="#000000" /><circle cx="15.50" cy="7.50" r="0.320" fill="#000000" /><circle cx="18.50" cy="7.50" r="0.320" fill="#000000" /><circle cx="20.50" cy="7.50" r="0.320" fill="#000000" /><circle cx="21.50" cy="7.50" r="0.320" fill="#000000" /><circle cx="23.50" cy="7.50" r="0.320" fill="#000000" /><circle cx="24.50" cy="7.50" r="0.320" fill="#000000" /><circle cx="27.50" cy="7.50" r="0.320" fill="#000000" /><circle cx="28.50" cy="7.50" r="0.320" fill="#000000" /><circle cx="32.50" cy="7.50" r="0.320" fill="#000000" /><circle cx="34.50" cy="7.50" r="0.320" fill="#000000" /><circle cx="35.50" cy="7.50" r="0.320" fill="#000000" /><circle cx="37.50" cy="7.50" r="0.320" fill="#000000" /><circle cx="40.50" cy="7.50" r="0.320" fill="#000000" /><circle cx="7.50" cy="8.50" r="0.320" fill="#000000" /><circle cx="6.50" cy="10.50" r="0.320" fill="#000000" /><circle cx="42.50" cy="10.50" r="0.320" fill="#000000" /><circle cx="5.50" cy="11.50" r="0.320" fill="#000000" /><circle cx="6.50" cy="11.50" r="0.320" fill="#000000" /><circle cx="41.50" cy="11.50" r="0.320" fill="#000000" /><circle cx="5.50" cy="12.50" r="0.320" fill="#000000" /><circle cx="44.50" cy="12.50" r="0.320" fill="#000000" /><circle cx="4.50" cy="13.50" r="0.320" fill="#000000" /><circle cx="6.50" cy="13.50" r="0.320" fill="#000000" /><circle cx="41.50" cy="13.50" r="0.320" fill="#000000" /><circle cx="42.50" cy="13.50" r="0.320" fill="#000000" /><circle cx="43.50" cy="13.50" r="0.320" fill="#000000" /><circle cx="5.50" cy="14.50" r="0.320" fill="#000000" /><circle cx="41.50" cy="14.50" r="0.320" fill="#000000" /><circle cx="43.50" cy="14.50" r="0.320" fill="#000000" /><circle cx="45.50" cy="14.50" r="0.320" fill="#000000" /><circle cx="3.50" cy="15.50" r="0.320" fill="#000000" /><circle cx="4.50" cy="15.50" r="0.320" fill="#000000" /><circle cx="6.50" cy="15.50" r="0.320" fill="#000000" /><circle cx="7.50" cy="15.50" r="0.320" fill="#000000" /><circle cx="41.50" cy="15.50" r="0.320" fill="#000000" /><circle cx="6.50" cy="16.50" r="0.320" fill="#000000" /><circle cx="7.50" cy="16.50" r="0.320" fill="#000000" /><circle cx="44.50" cy="16.50" r="0.320" fill="#000000" /><circle cx="2.50" cy="17.50" r="0.320" fill="#000000" /><circle cx="3.50" cy="17.50" r="0.320" fill="#000000" /><circle cx="4.50" cy="17.50" r="0.320" fill="#000000" /><circle cx="41.50" cy="17.50" r="0.320" fill="#000000" /><circle cx="43.50" cy="17.50" r="0.320" fill="#000000" /><circle cx="45.50" cy="17.50" r="0.320" fill="#000000" /><circle cx="46.50" cy="17.50" r="0.320" fill="#000000" /><circle cx="3.50" cy="18.50" r="0.320" fill="#000000" /><circle cx="6.50" cy="18.50" r="0.320" fill="#000000" /><circle cx="7.50" cy="18.50" r="0.320" fill="#000000" /><circle cx="41.50" cy="18.50" r="0.320" fill="#000000" /><circle cx="2.50" cy="19.50" r="0.320" fill="#000000" /><circle cx="7.50" cy="19.50" r="0.320" fill="#000000" /><circle cx="41.50" cy="19.50" r="0.320" fill="#000000" /><circle cx="42.50" cy="19.50" r="0.320" fill="#000000" /><circle cx="4.50" cy="20.50" r="0.320" fill="#000000" /><circle cx="7.50" cy="20.50" r="0.320" fill="#000000" /><circle cx="43.50" cy="20.50" r="0.320" fill="#000000" /><circle cx="46.50" cy="20.50" r="0.320" fill="#000000" /><circle cx="6.50" cy="21.50" r="0.320" fill="#000000" /><circle cx="7.50" cy="21.50" r="0.320" fill="#000000" /><circle cx="1.50" cy="22.50" r="0.320" fill="#000000" /><circle cx="3.50" cy="22.50" r="0.320" fill="#000000" /><circle cx="7.50" cy="22.50" r="0.320" fill="#000000" /><circle cx="43.50" cy="22.50" r="0.320" fill="#000000" /><circle cx="44.50" cy="22.50" r="0.320" fill="#000000" /><circle cx="45.50" cy="22.50" r="0.320" fill="#000000" /><circle cx="46.50" cy="22.50" r="0.320" fill="#000000" /><circle cx="4.50" cy="23.50" r="0.320" fill="#000000" /><circle cx="5.50" cy="23.50" r="0.320" fill="#000000" /><circle cx="6.50" cy="23.50" r="0.320" fill="#000000" /><circle cx="7.50" cy="23.50" r="0.320" fill="#000000" /><circle cx="43.50" cy="23.50" r="0.320" fill="#000000" /><circle cx="45.50" cy="23.50" r="0.320" fill="#000000" /><circle cx="46.50" cy="23.50" r="0.320" fill="#000000" /><circle cx="3.50" cy="24.50" r="0.320" fill="#000000" /><circle cx="5.50" cy="24.50" r="0.320" fill="#000000" /><circle cx="41.50" cy="24.50" r="0.320" fill="#000000" /><circle cx="43.50" cy="24.50" r="0.320" fill="#000000" /><circle cx="46.50" cy="24.50" r="0.320" fill="#000000" /><circle cx="47.50" cy="24.50" r="0.320" fill="#000000" /><circle cx="1.50" cy="25.50" r="0.320" fill="#000000" /><circle cx="3.50" cy="25.50" r="0.320" fill="#000000" /><circle cx="6.50" cy="25.50" r="0.320" fill="#000000" /><circle cx="7.50" cy="25.50" r="0.320" fill="#000000" /><circle cx="42.50" cy="25.50" r="0.320" fill="#000000" /><circle cx="43.50" cy="25.50" r="0.320" fill="#000000" /><circle cx="44.50" cy="25.50" r="0.320" fill="#000000" /><circle cx="46.50" cy="25.50" r="0.320" fill="#000000" /><circle cx="1.50" cy="26.50" r="0.320" fill="#000000" /><circle cx="4.50" cy="26.50" r="0.320" fill="#000000" /><circle cx="5.50" cy="26.50" r="0.320" fill="#000000" /><circle cx="7.50" cy="26.50" r="0.320" fill="#000000" /><circle cx="41.50" cy="26.50" r="0.320" fill="#000000" /><circle cx="45.50" cy="26.50" r="0.320" fill="#000000" /><circle cx="2.50" cy="27.50" r="0.320" fill="#000000" /><circle cx="4.50" cy="27.50" r="0.320" fill="#000000" /><circle cx="44.50" cy="27.50" r="0.320" fill="#000000" /><circle cx="45.50" cy="27.50" r="0.320" fill="#000000" /><circle cx="1.50" cy="28.50" r="0.320" fill="#000000" /><circle cx="3.50" cy="28.50" r="0.320" fill="#000000" /><circle cx="4.50" cy="28.50" r="0.320" fill="#000000" /><circle cx="42.50" cy="28.50" r="0.320" fill="#000000" /><circle cx="43.50" cy="28.50" r="0.320" fill="#000000" /><circle cx="2.50" cy="29.50" r="0.320" fill="#000000" /><circle cx="3.50" cy="29.50" r="0.320" fill="#000000" /><circle cx="5.50" cy="29.50" r="0.320" fill="#000000" /><circle cx="42.50" cy="29.50" r="0.320" fill="#000000" /><circle cx="5.50" cy="30.50" r="0.320" fill="#000000" /><circle cx="43.50" cy="30.50" r="0.320" fill="#000000" /><circle cx="46.50" cy="30.50" r="0.320" fill="#000000" /><circle cx="6.50" cy="31.50" r="0.320" fill="#000000" /><circle cx="5.50" cy="32.50" r="0.320" fill="#000000" /><circle cx="6.50" cy="32.50" r="0.320" fill="#000000" /><circle cx="41.50" cy="32.50" r="0.320" fill="#000000" /><circle cx="42.50" cy="32.50" r="0.320" fill="#000000" /><circle cx="43.50" cy="32.50" r="0.320" fill="#000000" /><circle cx="44.50" cy="32.50" r="0.320" fill="#000000" /><circle cx="45.50" cy="32.50" r="0.320" fill="#000000" /><circle cx="4.50" cy="33.50" r="0.320" fill="#000000" /><circle cx="5.50" cy="33.50" r="0.320" fill="#000000" /><circle cx="43.50" cy="33.50" r="0.320" fill="#000000" /><circle cx="5.50" cy="34.50" r="0.320" fill="#000000" /><circle cx="6.50" cy="34.50" r="0.320" fill="#000000" /><circle cx="7.50" cy="34.50" r="0.320" fill="#000000" /><circle cx="43.50" cy="34.50" r="0.320" fill="#000000" /><circle cx="45.50" cy="34.50" r="0.320" fill="#000000" /><circle cx="4.50" cy="35.50" r="0.320" fill="#000000" /><circle cx="6.50" cy="35.50" r="0.320" fill="#000000" /><circle cx="41.50" cy="35.50" r="0.320" fill="#000000" /><circle cx="42.50" cy="35.50" r="0.320" fill="#000000" /><circle cx="43.50" cy="35.50" r="0.320" fill="#000000" /><circle cx="44.50" cy="35.50" r="0.320" fill="#000000" /><circle cx="7.50" cy="36.50" r="0.320" fill="#000000" /><circle cx="6.50" cy="38.50" r="0.320" fill="#000000" /><circle cx="7.50" cy="39.50" r="0.320" fill="#000000" /><circle cx="9.50" cy="41.50" r="0.320" fill="#000000" /><circle cx="10.50" cy="41.50" r="0.320" fill="#000000" /><circle cx="12.50" cy="41.50" r="0.320" fill="#000000" /><circle cx="13.50" cy="41.50" r="0.320" fill="#000000" /><circle cx="14.50" cy="41.50" r="0.320" fill="#000000" /><circle cx="16.50" cy="41.50" r="0.320" fill="#000000" /><circle cx="17.50" cy="41.50" r="0.320" fill="#000000" /><circle cx="18.50" cy="41.50" r="0.320" fill="#000000" /><circle cx="20.50" cy="41.50" r="0.320" fill="#000000" /><circle cx="25.50" cy="41.50" r="0.320" fill="#000000" /><circle cx="26.50" cy="41.50" r="0.320" fill="#000000" /><circle cx="32.50" cy="41.50" r="0.320" fill="#000000" /><circle cx="37.50" cy="41.50" r="0.320" fill="#000000" /><circle cx="10.50" cy="42.50" r="0.320" fill="#000000" /><circle cx="11.50" cy="42.50" r="0.320" fill="#000000" /><circle cx="12.50" cy="42.50" r="0.320" fill="#000000" /><circle cx="13.50" cy="42.50" r="0.320" fill="#000000" /><circle cx="14.50" cy="42.50" r="0.320" fill="#000000" /><circle cx="15.50" cy="42.50" r="0.320" fill="#000000" /><circle cx="18.50" cy="42.50" r="0.320" fill="#000000" /><circle cx="25.50" cy="42.50" r="0.320" fill="#000000" /><circle cx="32.50" cy="42.50" r="0.320" fill="#000000" /><circle cx="35.50" cy="42.50" r="0.320" fill="#000000" /><circle cx="37.50" cy="42.50" r="0.320" fill="#000000" /><circle cx="38.50" cy="42.50" r="0.320" fill="#000000" /><circle cx="13.50" cy="43.50" r="0.320" fill="#000000" /><circle cx="16.50" cy="43.50" r="0.320" fill="#000000" /><circle cx="17.50" cy="43.50" r="0.320" fill="#000000" /><circle cx="18.50" cy="43.50" r="0.320" fill="#000000" /><circle cx="20.50" cy="43.50" r="0.320" fill="#000000" /><circle cx="28.50" cy="43.50" r="0.320" fill="#000000" /><circle cx="32.50" cy="43.50" r="0.320" fill="#000000" /><circle cx="34.50" cy="43.50" r="0.320" fill="#000000" /><circle cx="35.50" cy="43.50" r="0.320" fill="#000000" /><circle cx="36.50" cy="43.50" r="0.320" fill="#000000" /><circle cx="14.50" cy="44.50" r="0.320" fill="#000000" /><circle cx="18.50" cy="44.50" r="0.320" fill="#000000" /><circle cx="20.50" cy="44.50" r="0.320" fill="#000000" /><circle cx="28.50" cy="44.50" r="0.320" fill="#000000" /><circle cx="21.50" cy="45.50" r="0.320" fill="#000000" /><circle cx="22.50" cy="45.50" r="0.320" fill="#000000" /><circle cx="25.50" cy="45.50" r="0.320" fill="#000000" /><circle cx="26.50" cy="45.50" r="0.320" fill="#000000" /><circle cx="27.50" cy="45.50" r="0.320" fill="#000000" /><circle cx="30.50" cy="45.50" r="0.320" fill="#000000" /><circle cx="33.50" cy="45.50" r="0.320" fill="#000000" /><circle cx="18.50" cy="46.50" r="0.320" fill="#000000" /><circle cx="21.50" cy="46.50" r="0.320" fill="#000000" /><circle cx="23.50" cy="46.50" r="0.320" fill="#000000" /><circle cx="24.50" cy="46.50" r="0.320" fill="#000000" /><circle cx="29.50" cy="46.50" r="0.320" fill="#000000" /><circle cx="30.50" cy="46.50" r="0.320" fill="#000000" /><circle cx="20.50" cy="47.50" r="0.320" fill="#000000" /><circle cx="22.50" cy="47.50" r="0.320" fill="#000000" /><circle cx="27.50" cy="47.50" r="0.320" fill="#000000" /></g><g clip-path="url(#qr-circle-clip)" id="qr-data"><circle cx="16.50" cy="8.50" r="0.400" fill="#000000" stroke="none" /><circle cx="21.50" cy="8.50" r="0.400" fill="#000000" stroke="none" /><circle cx="23.50" cy="8.50" r="0.400" fill="#000000" stroke="none" /><circle cx="25.50" cy="8.50" r="0.400" fill="#000000" stroke="none" /><circle cx="26.50" cy="8.50" r="0.400" fill="#000000" stroke="none" /><circle cx="29.50" cy="8.50" r="0.400" fill="#000000" stroke="none" /><circle cx="30.50" cy="8.50" r="0.400" fill="#000000" stroke="none" /><circle cx="31.50" cy="8.50" r="0.400" fill="#000000" stroke="none" /><circle cx="32.50" cy="8.50" r="0.400" fill="#000000" stroke="none" /><circle cx="19.50" cy="9.50" r="0.400" fill="#000000" stroke="none" /><circle cx="20.50" cy="9.50" r="0.400" fill="#000000" stroke="none" /><circle cx="21.50" cy="9.50" r="0.400" fill="#000000" stroke="none" /><circle cx="22.50" cy="9.50" r="0.400" fill="#000000" stroke="none" /><circle cx="30.50" cy="9.50" r="0.400" fill="#000000" stroke="none" /><circle cx="31.50" cy="9.50" r="0.400" fill="#000000" stroke="none" /><circle cx="17.50" cy="10.50" r="0.400" fill="#000000" stroke="none" /><circle cx="19.50" cy="10.50" r="0.400" fill="#000000" stroke="none" /><circle cx="25.50" cy="10.50" r="0.400" fill="#000000" stroke="none" /><circle cx="26.50" cy="10.50" r="0.400" fill="#000000" stroke="none" /><circle cx="28.50" cy="10.50" r="0.400" fill="#000000" stroke="none" /><circle cx="30.50" cy="10.50" r="0.400" fill="#000000" stroke="none" /><circle cx="31.50" cy="10.50" r="0.400" fill="#000000" stroke="none" /><circle cx="32.50" cy="10.50" r="0.400" fill="#000000" stroke="none" /><circle cx="16.50" cy="11.50" r="0.400" fill="#000000" stroke="none" /><circle cx="17.50" cy="11.50" r="0.400" fill="#000000" stroke="none" /><circle cx="19.50" cy="11.50" r="0.400" fill="#000000" stroke="none" /><circle cx="20.50" cy="11.50" r="0.400" fill="#000000" stroke="none" /><circle cx="22.50" cy="11.50" r="0.400" fill="#000000" stroke="none" /><circle cx="23.50" cy="11.50" r="0.400" fill="#000000" stroke="none" /><circle cx="24.50" cy="11.50" r="0.400" fill="#000000" stroke="none" /><circle cx="26.50" cy="11.50" r="0.400" fill="#000000" stroke="none" /><circle cx="28.50" cy="11.50" r="0.400" fill="#000000" stroke="none" /><circle cx="30.50" cy="11.50" r="0.400" fill="#000000" stroke="none" /><circle cx="17.50" cy="12.50" r="0.400" fill="#000000" stroke="none" /><circle cx="19.50" cy="12.50" r="0.400" fill="#000000" stroke="none" /><circle cx="20.50" cy="12.50" r="0.400" fill="#000000" stroke="none" /><circle cx="21.50" cy="12.50" r="0.400" fill="#000000" stroke="none" /><circle cx="25.50" cy="12.50" r="0.400" fill="#000000" stroke="none" /><circle cx="26.50" cy="12.50" r="0.400" fill="#000000" stroke="none" /><circle cx="27.50" cy="12.50" r="0.400" fill="#000000" stroke="none" /><circle cx="28.50" cy="12.50" r="0.400" fill="#000000" stroke="none" /><circle cx="29.50" cy="12.50" r="0.400" fill="#000000" stroke="none" /><circle cx="30.50" cy="12.50" r="0.400" fill="#000000" stroke="none" /><circle cx="17.50" cy="13.50" r="0.400" fill="#000000" stroke="none" /><circle cx="18.50" cy="13.50" r="0.400" fill="#000000" stroke="none" /><circle cx="20.50" cy="13.50" r="0.400" fill="#000000" stroke="none" /><circle cx="23.50" cy="13.50" r="0.400" fill="#000000" stroke="none" /><circle cx="26.50" cy="13.50" r="0.400" fill="#000000" stroke="none" /><circle cx="16.50" cy="14.50" r="0.400" fill="#000000" stroke="none" /><circle cx="18.50" cy="14.50" r="0.400" fill="#000000" stroke="none" /><circle cx="20.50" cy="14.50" r="0.400" fill="#000000" stroke="none" /><circle cx="22.50" cy="14.50" r="0.400" fill="#000000" stroke="none" /><circle cx="24.50" cy="14.50" r="0.400" fill="#000000" stroke="none" /><circle cx="26.50" cy="14.50" r="0.400" fill="#000000" stroke="none" /><circle cx="28.50" cy="14.50" r="0.400" fill="#000000" stroke="none" /><circle cx="30.50" cy="14.50" r="0.400" fill="#000000" stroke="none" /><circle cx="32.50" cy="14.50" r="0.400" fill="#000000" stroke="none" /><circle cx="17.50" cy="15.50" r="0.400" fill="#000000" stroke="none" /><circle cx="20.50" cy="15.50" r="0.400" fill="#000000" stroke="none" /><circle cx="23.50" cy="15.50" r="0.400" fill="#000000" stroke="none" /><circle cx="24.50" cy="15.50" r="0.400" fill="#000000" stroke="none" /><circle cx="26.50" cy="15.50" r="0.400" fill="#000000" stroke="none" /><circle cx="28.50" cy="15.50" r="0.400" fill="#000000" stroke="none" /><circle cx="29.50" cy="15.50" r="0.400" fill="#000000" stroke="none" /><circle cx="32.50" cy="15.50" r="0.400" fill="#000000" stroke="none" /><circle cx="10.50" cy="16.50" r="0.400" fill="#000000" stroke="none" /><circle cx="12.50" cy="16.50" r="0.400" fill="#000000" stroke="none" /><circle cx="13.50" cy="16.50" r="0.400" fill="#000000" stroke="none" /><circle cx="14.50" cy="16.50" r="0.400" fill="#000000" stroke="none" /><circle cx="16.50" cy="16.50" r="0.400" fill="#000000" stroke="none" /><circle cx="22.50" cy="16.50" r="0.400" fill="#000000" stroke="none" /><circle cx="25.50" cy="16.50" r="0.400" fill="#000000" stroke="none" /><circle cx="26.50" cy="16.50" r="0.400" fill="#000000" stroke="none" /><circle cx="27.50" cy="16.50" r="0.400" fill="#000000" stroke="none" /><circle cx="28.50" cy="16.50" r="0.400" fill="#000000" stroke="none" /><circle cx="31.50" cy="16.50" r="0.400" fill="#000000" stroke="none" /><circle cx="33.50" cy="16.50" r="0.400" fill="#000000" stroke="none" /><circle cx="37.50" cy="16.50" r="0.400" fill="#000000" stroke="none" /><circle cx="40.50" cy="16.50" r="0.400" fill="#000000" stroke="none" /><circle cx="8.50" cy="17.50" r="0.400" fill="#000000" stroke="none" /><circle cx="10.50" cy="17.50" r="0.400" fill="#000000" stroke="none" /><circle cx="11.50" cy="17.50" r="0.400" fill="#000000" stroke="none" /><circle cx="12.50" cy="17.50" r="0.400" fill="#000000" stroke="none" /><circle cx="15.50" cy="17.50" r="0.400" fill="#000000" stroke="none" /><circle cx="17.50" cy="17.50" r="0.400" fill="#000000" stroke="none" /><circle cx="19.50" cy="17.50" r="0.400" fill="#000000" stroke="none" /><circle cx="22.50" cy="17.50" r="0.400" fill="#000000" stroke="none" /><circle cx="23.50" cy="17.50" r="0.400" fill="#000000" stroke="none" /><circle cx="24.50" cy="17.50" r="0.400" fill="#000000" stroke="none" /><circle cx="28.50" cy="17.50" r="0.400" fill="#000000" stroke="none" /><circle cx="29.50" cy="17.50" r="0.400" fill="#000000" stroke="none" /><circle cx="30.50" cy="17.50" r="0.400" fill="#000000" stroke="none" /><circle cx="32.50" cy="17.50" r="0.400" fill="#000000" stroke="none" /><circle cx="34.50" cy="17.50" r="0.400" fill="#000000" stroke="none" /><circle cx="38.50" cy="17.50" r="0.400" fill="#000000" stroke="none" /><circle cx="40.50" cy="17.50" r="0.400" fill="#000000" stroke="none" /><circle cx="8.50" cy="18.50" r="0.400" fill="#000000" stroke="none" /><circle cx="11.50" cy="18.50" r="0.400" fill="#000000" stroke="none" /><circle cx="14.50" cy="18.50" r="0.400" fill="#000000" stroke="none" /><circle cx="17.50" cy="18.50" r="0.400" fill="#000000" stroke="none" /><circle cx="19.50" cy="18.50" r="0.400" fill="#000000" stroke="none" /><circle cx="20.50" cy="18.50" r="0.400" fill="#000000" stroke="none" /><circle cx="24.50" cy="18.50" r="0.400" fill="#000000" stroke="none" /><circle cx="26.50" cy="18.50" r="0.400" fill="#000000" stroke="none" /><circle cx="28.50" cy="18.50" r="0.400" fill="#000000" stroke="none" /><circle cx="30.50" cy="18.50" r="0.400" fill="#000000" stroke="none" /><circle cx="32.50" cy="18.50" r="0.400" fill="#000000" stroke="none" /><circle cx="33.50" cy="18.50" r="0.400" fill="#000000" stroke="none" /><circle cx="34.50" cy="18.50" r="0.400" fill="#000000" stroke="none" /><circle cx="36.50" cy="18.50" r="0.400" fill="#000000" stroke="none" /><circle cx="37.50" cy="18.50" r="0.400" fill="#000000" stroke="none" /><circle cx="38.50" cy="18.50" r="0.400" fill="#000000" stroke="none" /><circle cx="39.50" cy="18.50" r="0.400" fill="#000000" stroke="none" /><circle cx="40.50" cy="18.50" r="0.400" fill="#000000" stroke="none" /><circle cx="9.50" cy="19.50" r="0.400" fill="#000000" stroke="none" /><circle cx="10.50" cy="19.50" r="0.400" fill="#000000" stroke="none" /><circle cx="11.50" cy="19.50" r="0.400" fill="#000000" stroke="none" /><circle cx="15.50" cy="19.50" r="0.400" fill="#000000" stroke="none" /><circle cx="17.50" cy="19.50" r="0.400" fill="#000000" stroke="none" /><circle cx="18.50" cy="19.50" r="0.400" fill="#000000" stroke="none" /><circle cx="19.50" cy="19.50" r="0.400" fill="#000000" stroke="none" /><circle cx="21.50" cy="19.50" r="0.400" fill="#000000" stroke="none" /><circle cx="23.50" cy="19.50" r="0.400" fill="#000000" stroke="none" /><circle cx="24.50" cy="19.50" r="0.400" fill="#000000" stroke="none" /><circle cx="25.50" cy="19.50" r="0.400" fill="#000000" stroke="none" /><circle cx="27.50" cy="19.50" r="0.400" fill="#000000" stroke="none" /><circle cx="29.50" cy="19.50" r="0.400" fill="#000000" stroke="none" /><circle cx="30.50" cy="19.50" r="0.400" fill="#000000" stroke="none" /><circle cx="31.50" cy="19.50" r="0.400" fill="#000000" stroke="none" /><circle cx="33.50" cy="19.50" r="0.400" fill="#000000" stroke="none" /><circle cx="37.50" cy="19.50" r="0.400" fill="#000000" stroke="none" /><circle cx="9.50" cy="20.50" r="0.400" fill="#000000" stroke="none" /><circle cx="12.50" cy="20.50" r="0.400" fill="#000000" stroke="none" /><circle cx="13.50" cy="20.50" r="0.400" fill="#000000" stroke="none" /><circle cx="14.50" cy="20.50" r="0.400" fill="#000000" stroke="none" /><circle cx="17.50" cy="20.50" r="0.400" fill="#000000" stroke="none" /><circle cx="19.50" cy="20.50" r="0.400" fill="#000000" stroke="none" /><circle cx="22.50" cy="20.50" r="0.400" fill="#000000" stroke="none" /><circle cx="24.50" cy="20.50" r="0.400" fill="#000000" stroke="none" /><circle cx="25.50" cy="20.50" r="0.400" fill="#000000" stroke="none" /><circle cx="26.50" cy="20.50" r="0.400" fill="#000000" stroke="none" /><circle cx="28.50" cy="20.50" r="0.400" fill="#000000" stroke="none" /><circle cx="30.50" cy="20.50" r="0.400" fill="#000000" stroke="none" /><circle cx="32.50" cy="20.50" r="0.400" fill="#000000" stroke="none" /><circle cx="33.50" cy="20.50" r="0.400" fill="#000000" stroke="none" /><circle cx="34.50" cy="20.50" r="0.400" fill="#000000" stroke="none" /><circle cx="36.50" cy="20.50" r="0.400" fill="#000000" stroke="none" /><circle cx="40.50" cy="20.50" r="0.400" fill="#000000" stroke="none" /><circle cx="9.50" cy="21.50" r="0.400" fill="#000000" stroke="none" /><circle cx="10.50" cy="21.50" r="0.400" fill="#000000" stroke="none" /><circle cx="11.50" cy="21.50" r="0.400" fill="#000000" stroke="none" /><circle cx="12.50" cy="21.50" r="0.400" fill="#000000" stroke="none" /><circle cx="13.50" cy="21.50" r="0.400" fill="#000000" stroke="none" /><circle cx="17.50" cy="21.50" r="0.400" fill="#000000" stroke="none" /><circle cx="18.50" cy="21.50" r="0.400" fill="#000000" stroke="none" /><circle cx="23.50" cy="21.50" r="0.400" fill="#000000" stroke="none" /><circle cx="24.50" cy="21.50" r="0.400" fill="#000000" stroke="none" /><circle cx="26.50" cy="21.50" r="0.400" fill="#000000" stroke="none" /><circle cx="30.50" cy="21.50" r="0.400" fill="#000000" stroke="none" /><circle cx="33.50" cy="21.50" r="0.400" fill="#000000" stroke="none" /><circle cx="34.50" cy="21.50" r="0.400" fill="#000000" stroke="none" /><circle cx="35.50" cy="21.50" r="0.400" fill="#000000" stroke="none" /><circle cx="39.50" cy="21.50" r="0.400" fill="#000000" stroke="none" /><circle cx="40.50" cy="21.50" r="0.400" fill="#000000" stroke="none" /><circle cx="9.50" cy="22.50" r="0.400" fill="#000000" stroke="none" /><circle cx="10.50" cy="22.50" r="0.400" fill="#000000" stroke="none" /><circle cx="12.50" cy="22.50" r="0.400" fill="#000000" stroke="none" /><circle cx="13.50" cy="22.50" r="0.400" fill="#000000" stroke="none" /><circle cx="14.50" cy="22.50" r="0.400" fill="#000000" stroke="none" /><circle cx="15.50" cy="22.50" r="0.400" fill="#000000" stroke="none" /><circle cx="16.50" cy="22.50" r="0.400" fill="#000000" stroke="none" /><circle cx="17.50" cy="22.50" r="0.400" fill="#000000" stroke="none" /><circle cx="19.50" cy="22.50" r="0.400" fill="#000000" stroke="none" /><circle cx="21.50" cy="22.50" r="0.400" fill="#000000" stroke="none" /><circle cx="22.50" cy="22.50" r="0.400" fill="#000000" stroke="none" /><circle cx="23.50" cy="22.50" r="0.400" fill="#000000" stroke="none" /><circle cx="26.50" cy="22.50" r="0.400" fill="#000000" stroke="none" /><circle cx="29.50" cy="22.50" r="0.400" fill="#000000" stroke="none" /><circle cx="32.50" cy="22.50" r="0.400" fill="#000000" stroke="none" /><circle cx="33.50" cy="22.50" r="0.400" fill="#000000" stroke="none" /><circle cx="35.50" cy="22.50" r="0.400" fill="#000000" stroke="none" /><circle cx="36.50" cy="22.50" r="0.400" fill="#000000" stroke="none" /><circle cx="38.50" cy="22.50" r="0.400" fill="#000000" stroke="none" /><circle cx="39.50" cy="22.50" r="0.400" fill="#000000" stroke="none" /><circle cx="40.50" cy="22.50" r="0.400" fill="#000000" stroke="none" /><circle cx="9.50" cy="23.50" r="0.400" fill="#000000" stroke="none" /><circle cx="10.50" cy="23.50" r="0.400" fill="#000000" stroke="none" /><circle cx="12.50" cy="23.50" r="0.400" fill="#000000" stroke="none" /><circle cx="13.50" cy="23.50" r="0.400" fill="#000000" stroke="none" /><circle cx="15.50" cy="23.50" r="0.400" fill="#000000" stroke="none" /><circle cx="17.50" cy="23.50" r="0.400" fill="#000000" stroke="none" /><circle cx="18.50" cy="23.50" r="0.400" fill="#000000" stroke="none" /><circle cx="19.50" cy="23.50" r="0.400" fill="#000000" stroke="none" /><circle cx="20.50" cy="23.50" r="0.400" fill="#000000" stroke="none" /><circle cx="24.50" cy="23.50" r="0.400" fill="#000000" stroke="none" /><circle cx="26.50" cy="23.50" r="0.400" fill="#000000" stroke="none" /><circle cx="28.50" cy="23.50" r="0.400" fill="#000000" stroke="none" /><circle cx="29.50" cy="23.50" r="0.400" fill="#000000" stroke="none" /><circle cx="30.50" cy="23.50" r="0.400" fill="#000000" stroke="none" /><circle cx="34.50" cy="23.50" r="0.400" fill="#000000" stroke="none" /><circle cx="12.50" cy="24.50" r="0.400" fill="#000000" stroke="none" /><circle cx="13.50" cy="24.50" r="0.400" fill="#000000" stroke="none" /><circle cx="14.50" cy="24.50" r="0.400" fill="#000000" stroke="none" /><circle cx="21.50" cy="24.50" r="0.400" fill="#000000" stroke="none" /><circle cx="25.50" cy="24.50" r="0.400" fill="#000000" stroke="none" /><circle cx="26.50" cy="24.50" r="0.400" fill="#000000" stroke="none" /><circle cx="27.50" cy="24.50" r="0.400" fill="#000000" stroke="none" /><circle cx="29.50" cy="24.50" r="0.400" fill="#000000" stroke="none" /><circle cx="30.50" cy="24.50" r="0.400" fill="#000000" stroke="none" /><circle cx="33.50" cy="24.50" r="0.400" fill="#000000" stroke="none" /><circle cx="34.50" cy="24.50" r="0.400" fill="#000000" stroke="none" /><circle cx="37.50" cy="24.50" r="0.400" fill="#000000" stroke="none" /><circle cx="38.50" cy="24.50" r="0.400" fill="#000000" stroke="none" /><circle cx="39.50" cy="24.50" r="0.400" fill="#000000" stroke="none" /><circle cx="8.50" cy="25.50" r="0.400" fill="#000000" stroke="none" /><circle cx="9.50" cy="25.50" r="0.400" fill="#000000" stroke="none" /><circle cx="10.50" cy="25.50" r="0.400" fill="#000000" stroke="none" /><circle cx="11.50" cy="25.50" r="0.400" fill="#000000" stroke="none" /><circle cx="15.50" cy="25.50" r="0.400" fill="#000000" stroke="none" /><circle cx="16.50" cy="25.50" r="0.400" fill="#000000" stroke="none" /><circle cx="17.50" cy="25.50" r="0.400" fill="#000000" stroke="none" /><circle cx="18.50" cy="25.50" r="0.400" fill="#000000" stroke="none" /><circle cx="19.50" cy="25.50" r="0.400" fill="#000000" stroke="none" /><circle cx="21.50" cy="25.50" r="0.400" fill="#000000" stroke="none" /><circle cx="22.50" cy="25.50" r="0.400" fill="#000000" stroke="none" /><circle cx="23.50" cy="25.50" r="0.400" fill="#000000" stroke="none" /><circle cx="24.50" cy="25.50" r="0.400" fill="#000000" stroke="none" /><circle cx="27.50" cy="25.50" r="0.400" fill="#000000" stroke="none" /><circle cx="28.50" cy="25.50" r="0.400" fill="#000000" stroke="none" /><circle cx="29.50" cy="25.50" r="0.400" fill="#000000" stroke="none" /><circle cx="33.50" cy="25.50" r="0.400" fill="#000000" stroke="none" /><circle cx="34.50" cy="25.50" r="0.400" fill="#000000" stroke="none" /><circle cx="35.50" cy="25.50" r="0.400" fill="#000000" stroke="none" /><circle cx="37.50" cy="25.50" r="0.400" fill="#000000" stroke="none" /><circle cx="38.50" cy="25.50" r="0.400" fill="#000000" stroke="none" /><circle cx="39.50" cy="25.50" r="0.400" fill="#000000" stroke="none" /><circle cx="40.50" cy="25.50" r="0.400" fill="#000000" stroke="none" /><circle cx="10.50" cy="26.50" r="0.400" fill="#000000" stroke="none" /><circle cx="11.50" cy="26.50" r="0.400" fill="#000000" stroke="none" /><circle cx="14.50" cy="26.50" r="0.400" fill="#000000" stroke="none" /><circle cx="16.50" cy="26.50" r="0.400" fill="#000000" stroke="none" /><circle cx="18.50" cy="26.50" r="0.400" fill="#000000" stroke="none" /><circle cx="27.50" cy="26.50" r="0.400" fill="#000000" stroke="none" /><circle cx="28.50" cy="26.50" r="0.400" fill="#000000" stroke="none" /><circle cx="29.50" cy="26.50" r="0.400" fill="#000000" stroke="none" /><circle cx="30.50" cy="26.50" r="0.400" fill="#000000" stroke="none" /><circle cx="33.50" cy="26.50" r="0.400" fill="#000000" stroke="none" /><circle cx="35.50" cy="26.50" r="0.400" fill="#000000" stroke="none" /><circle cx="36.50" cy="26.50" r="0.400" fill="#000000" stroke="none" /><circle cx="38.50" cy="26.50" r="0.400" fill="#000000" stroke="none" /><circle cx="39.50" cy="26.50" r="0.400" fill="#000000" stroke="none" /><circle cx="40.50" cy="26.50" r="0.400" fill="#000000" stroke="none" /><circle cx="8.50" cy="27.50" r="0.400" fill="#000000" stroke="none" /><circle cx="10.50" cy="27.50" r="0.400" fill="#000000" stroke="none" /><circle cx="11.50" cy="27.50" r="0.400" fill="#000000" stroke="none" /><circle cx="15.50" cy="27.50" r="0.400" fill="#000000" stroke="none" /><circle cx="18.50" cy="27.50" r="0.400" fill="#000000" stroke="none" /><circle cx="22.50" cy="27.50" r="0.400" fill="#000000" stroke="none" /><circle cx="27.50" cy="27.50" r="0.400" fill="#000000" stroke="none" /><circle cx="28.50" cy="27.50" r="0.400" fill="#000000" stroke="none" /><circle cx="29.50" cy="27.50" r="0.400" fill="#000000" stroke="none" /><circle cx="30.50" cy="27.50" r="0.400" fill="#000000" stroke="none" /><circle cx="33.50" cy="27.50" r="0.400" fill="#000000" stroke="none" /><circle cx="34.50" cy="27.50" r="0.400" fill="#000000" stroke="none" /><circle cx="35.50" cy="27.50" r="0.400" fill="#000000" stroke="none" /><circle cx="36.50" cy="27.50" r="0.400" fill="#000000" stroke="none" /><circle cx="39.50" cy="27.50" r="0.400" fill="#000000" stroke="none" /><circle cx="40.50" cy="27.50" r="0.400" fill="#000000" stroke="none" /><circle cx="8.50" cy="28.50" r="0.400" fill="#000000" stroke="none" /><circle cx="9.50" cy="28.50" r="0.400" fill="#000000" stroke="none" /><circle cx="11.50" cy="28.50" r="0.400" fill="#000000" stroke="none" /><circle cx="13.50" cy="28.50" r="0.400" fill="#000000" stroke="none" /><circle cx="14.50" cy="28.50" r="0.400" fill="#000000" stroke="none" /><circle cx="16.50" cy="28.50" r="0.400" fill="#000000" stroke="none" /><circle cx="17.50" cy="28.50" r="0.400" fill="#000000" stroke="none" /><circle cx="20.50" cy="28.50" r="0.400" fill="#000000" stroke="none" /><circle cx="21.50" cy="28.50" r="0.400" fill="#000000" stroke="none" /><circle cx="25.50" cy="28.50" r="0.400" fill="#000000" stroke="none" /><circle cx="29.50" cy="28.50" r="0.400" fill="#000000" stroke="none" /><circle cx="33.50" cy="28.50" r="0.400" fill="#000000" stroke="none" /><circle cx="35.50" cy="28.50" r="0.400" fill="#000000" stroke="none" /><circle cx="37.50" cy="28.50" r="0.400" fill="#000000" stroke="none" /><circle cx="40.50" cy="28.50" r="0.400" fill="#000000" stroke="none" /><circle cx="10.50" cy="29.50" r="0.400" fill="#000000" stroke="none" /><circle cx="11.50" cy="29.50" r="0.400" fill="#000000" stroke="none" /><circle cx="15.50" cy="29.50" r="0.400" fill="#000000" stroke="none" /><circle cx="19.50" cy="29.50" r="0.400" fill="#000000" stroke="none" /><circle cx="21.50" cy="29.50" r="0.400" fill="#000000" stroke="none" /><circle cx="23.50" cy="29.50" r="0.400" fill="#000000" stroke="none" /><circle cx="24.50" cy="29.50" r="0.400" fill="#000000" stroke="none" /><circle cx="26.50" cy="29.50" r="0.400" fill="#000000" stroke="none" /><circle cx="27.50" cy="29.50" r="0.400" fill="#000000" stroke="none" /><circle cx="28.50" cy="29.50" r="0.400" fill="#000000" stroke="none" /><circle cx="29.50" cy="29.50" r="0.400" fill="#000000" stroke="none" /><circle cx="31.50" cy="29.50" r="0.400" fill="#000000" stroke="none" /><circle cx="33.50" cy="29.50" r="0.400" fill="#000000" stroke="none" /><circle cx="37.50" cy="29.50" r="0.400" fill="#000000" stroke="none" /><circle cx="39.50" cy="29.50" r="0.400" fill="#000000" stroke="none" /><circle cx="40.50" cy="29.50" r="0.400" fill="#000000" stroke="none" /><circle cx="8.50" cy="30.50" r="0.400" fill="#000000" stroke="none" /><circle cx="11.50" cy="30.50" r="0.400" fill="#000000" stroke="none" /><circle cx="14.50" cy="30.50" r="0.400" fill="#000000" stroke="none" /><circle cx="15.50" cy="30.50" r="0.400" fill="#000000" stroke="none" /><circle cx="16.50" cy="30.50" r="0.400" fill="#000000" stroke="none" /><circle cx="17.50" cy="30.50" r="0.400" fill="#000000" stroke="none" /><circle cx="18.50" cy="30.50" r="0.400" fill="#000000" stroke="none" /><circle cx="21.50" cy="30.50" r="0.400" fill="#000000" stroke="none" /><circle cx="22.50" cy="30.50" r="0.400" fill="#000000" stroke="none" /><circle cx="24.50" cy="30.50" r="0.400" fill="#000000" stroke="none" /><circle cx="25.50" cy="30.50" r="0.400" fill="#000000" stroke="none" /><circle cx="27.50" cy="30.50" r="0.400" fill="#000000" stroke="none" /><circle cx="30.50" cy="30.50" r="0.400" fill="#000000" stroke="none" /><circle cx="34.50" cy="30.50" r="0.400" fill="#000000" stroke="none" /><circle cx="35.50" cy="30.50" r="0.400" fill="#000000" stroke="none" /><circle cx="39.50" cy="30.50" r="0.400" fill="#000000" stroke="none" /><circle cx="40.50" cy="30.50" r="0.400" fill="#000000" stroke="none" /><circle cx="9.50" cy="31.50" r="0.400" fill="#000000" stroke="none" /><circle cx="10.50" cy="31.50" r="0.400" fill="#000000" stroke="none" /><circle cx="11.50" cy="31.50" r="0.400" fill="#000000" stroke="none" /><circle cx="12.50" cy="31.50" r="0.400" fill="#000000" stroke="none" /><circle cx="15.50" cy="31.50" r="0.400" fill="#000000" stroke="none" /><circle cx="21.50" cy="31.50" r="0.400" fill="#000000" stroke="none" /><circle cx="23.50" cy="31.50" r="0.400" fill="#000000" stroke="none" /><circle cx="24.50" cy="31.50" r="0.400" fill="#000000" stroke="none" /><circle cx="26.50" cy="31.50" r="0.400" fill="#000000" stroke="none" /><circle cx="28.50" cy="31.50" r="0.400" fill="#000000" stroke="none" /><circle cx="29.50" cy="31.50" r="0.400" fill="#000000" stroke="none" /><circle cx="30.50" cy="31.50" r="0.400" fill="#000000" stroke="none" /><circle cx="31.50" cy="31.50" r="0.400" fill="#000000" stroke="none" /><circle cx="33.50" cy="31.50" r="0.400" fill="#000000" stroke="none" /><circle cx="35.50" cy="31.50" r="0.400" fill="#000000" stroke="none" /><circle cx="40.50" cy="31.50" r="0.400" fill="#000000" stroke="none" /><circle cx="8.50" cy="32.50" r="0.400" fill="#000000" stroke="none" /><circle cx="10.50" cy="32.50" r="0.400" fill="#000000" stroke="none" /><circle cx="12.50" cy="32.50" r="0.400" fill="#000000" stroke="none" /><circle cx="13.50" cy="32.50" r="0.400" fill="#000000" stroke="none" /><circle cx="14.50" cy="32.50" r="0.400" fill="#000000" stroke="none" /><circle cx="15.50" cy="32.50" r="0.400" fill="#000000" stroke="none" /><circle cx="17.50" cy="32.50" r="0.400" fill="#000000" stroke="none" /><circle cx="18.50" cy="32.50" r="0.400" fill="#000000" stroke="none" /><circle cx="19.50" cy="32.50" r="0.400" fill="#000000" stroke="none" /><circle cx="20.50" cy="32.50" r="0.400" fill="#000000" stroke="none" /><circle cx="21.50" cy="32.50" r="0.400" fill="#000000" stroke="none" /><circle cx="23.50" cy="32.50" r="0.400" fill="#000000" stroke="none" /><circle cx="28.50" cy="32.50" r="0.400" fill="#000000" stroke="none" /><circle cx="32.50" cy="32.50" r="0.400" fill="#000000" stroke="none" /><circle cx="33.50" cy="32.50" r="0.400" fill="#000000" stroke="none" /><circle cx="34.50" cy="32.50" r="0.400" fill="#000000" stroke="none" /><circle cx="35.50" cy="32.50" r="0.400" fill="#000000" stroke="none" /><circle cx="36.50" cy="32.50" r="0.400" fill="#000000" stroke="none" /><circle cx="37.50" cy="32.50" r="0.400" fill="#000000" stroke="none" /><circle cx="39.50" cy="32.50" r="0.400" fill="#000000" stroke="none" /><circle cx="16.50" cy="33.50" r="0.400" fill="#000000" stroke="none" /><circle cx="19.50" cy="33.50" r="0.400" fill="#000000" stroke="none" /><circle cx="24.50" cy="33.50" r="0.400" fill="#000000" stroke="none" /><circle cx="25.50" cy="33.50" r="0.400" fill="#000000" stroke="none" /><circle cx="26.50" cy="33.50" r="0.400" fill="#000000" stroke="none" /><circle cx="28.50" cy="33.50" r="0.400" fill="#000000" stroke="none" /><circle cx="32.50" cy="33.50" r="0.400" fill="#000000" stroke="none" /><circle cx="36.50" cy="33.50" r="0.400" fill="#000000" stroke="none" /><circle cx="38.50" cy="33.50" r="0.400" fill="#000000" stroke="none" /><circle cx="40.50" cy="33.50" r="0.400" fill="#000000" stroke="none" /><circle cx="20.50" cy="34.50" r="0.400" fill="#000000" stroke="none" /><circle cx="23.50" cy="34.50" r="0.400" fill="#000000" stroke="none" /><circle cx="25.50" cy="34.50" r="0.400" fill="#000000" stroke="none" /><circle cx="27.50" cy="34.50" r="0.400" fill="#000000" stroke="none" /><circle cx="29.50" cy="34.50" r="0.400" fill="#000000" stroke="none" /><circle cx="32.50" cy="34.50" r="0.400" fill="#000000" stroke="none" /><circle cx="34.50" cy="34.50" r="0.400" fill="#000000" stroke="none" /><circle cx="36.50" cy="34.50" r="0.400" fill="#000000" stroke="none" /><circle cx="37.50" cy="34.50" r="0.400" fill="#000000" stroke="none" /><circle cx="39.50" cy="34.50" r="0.400" fill="#000000" stroke="none" /><circle cx="40.50" cy="34.50" r="0.400" fill="#000000" stroke="none" /><circle cx="16.50" cy="35.50" r="0.400" fill="#000000" stroke="none" /><circle cx="17.50" cy="35.50" r="0.400" fill="#000000" stroke="none" /><circle cx="18.50" cy="35.50" r="0.400" fill="#000000" stroke="none" /><circle cx="21.50" cy="35.50" r="0.400" fill="#000000" stroke="none" /><circle cx="22.50" cy="35.50" r="0.400" fill="#000000" stroke="none" /><circle cx="25.50" cy="35.50" r="0.400" fill="#000000" stroke="none" /><circle cx="26.50" cy="35.50" r="0.400" fill="#000000" stroke="none" /><circle cx="28.50" cy="35.50" r="0.400" fill="#000000" stroke="none" /><circle cx="32.50" cy="35.50" r="0.400" fill="#000000" stroke="none" /><circle cx="36.50" cy="35.50" r="0.400" fill="#000000" stroke="none" /><circle cx="40.50" cy="35.50" r="0.400" fill="#000000" stroke="none" /><circle cx="16.50" cy="36.50" r="0.400" fill="#000000" stroke="none" /><circle cx="18.50" cy="36.50" r="0.400" fill="#000000" stroke="none" /><circle cx="19.50" cy="36.50" r="0.400" fill="#000000" stroke="none" /><circle cx="20.50" cy="36.50" r="0.400" fill="#000000" stroke="none" /><circle cx="24.50" cy="36.50" r="0.400" fill="#000000" stroke="none" /><circle cx="25.50" cy="36.50" r="0.400" fill="#000000" stroke="none" /><circle cx="26.50" cy="36.50" r="0.400" fill="#000000" stroke="none" /><circle cx="28.50" cy="36.50" r="0.400" fill="#000000" stroke="none" /><circle cx="32.50" cy="36.50" r="0.400" fill="#000000" stroke="none" /><circle cx="33.50" cy="36.50" r="0.400" fill="#000000" stroke="none" /><circle cx="34.50" cy="36.50" r="0.400" fill="#000000" stroke="none" /><circle cx="35.50" cy="36.50" r="0.400" fill="#000000" stroke="none" /><circle cx="36.50" cy="36.50" r="0.400" fill="#000000" stroke="none" /><circle cx="39.50" cy="36.50" r="0.400" fill="#000000" stroke="none" /><circle cx="18.50" cy="37.50" r="0.400" fill="#000000" stroke="none" /><circle cx="22.50" cy="37.50" r="0.400" fill="#000000" stroke="none" /><circle cx="27.50" cy="37.50" r="0.400" fill="#000000" stroke="none" /><circle cx="36.50" cy="37.50" r="0.400" fill="#000000" stroke="none" /><circle cx="37.50" cy="37.50" r="0.400" fill="#000000" stroke="none" /><circle cx="16.50" cy="38.50" r="0.400" fill="#000000" stroke="none" /><circle cx="19.50" cy="38.50" r="0.400" fill="#000000" stroke="none" /><circle cx="21.50" cy="38.50" r="0.400" fill="#000000" stroke="none" /><circle cx="22.50" cy="38.50" r="0.400" fill="#000000" stroke="none" /><circle cx="23.50" cy="38.50" r="0.400" fill="#000000" stroke="none" /><circle cx="24.50" cy="38.50" r="0.400" fill="#000000" stroke="none" /><circle cx="26.50" cy="38.50" r="0.400" fill="#000000" stroke="none" /><circle cx="27.50" cy="38.50" r="0.400" fill="#000000" stroke="none" /><circle cx="29.50" cy="38.50" r="0.400" fill="#000000" stroke="none" /><circle cx="30.50" cy="38.50" r="0.400" fill="#000000" stroke="none" /><circle cx="31.50" cy="38.50" r="0.400" fill="#000000" stroke="none" /><circle cx="33.50" cy="38.50" r="0.400" fill="#000000" stroke="none" /><circle cx="35.50" cy="38.50" r="0.400" fill="#000000" stroke="none" /><circle cx="36.50" cy="38.50" r="0.400" fill="#000000" stroke="none" /><circle cx="40.50" cy="38.50" r="0.400" fill="#000000" stroke="none" /><circle cx="17.50" cy="39.50" r="0.400" fill="#000000" stroke="none" /><circle cx="20.50" cy="39.50" r="0.400" fill="#000000" stroke="none" /><circle cx="21.50" cy="39.50" r="0.400" fill="#000000" stroke="none" /><circle cx="25.50" cy="39.50" r="0.400" fill="#000000" stroke="none" /><circle cx="26.50" cy="39.50" r="0.400" fill="#000000" stroke="none" /><circle cx="32.50" cy="39.50" r="0.400" fill="#000000" stroke="none" /><circle cx="33.50" cy="39.50" r="0.400" fill="#000000" stroke="none" /><circle cx="34.50" cy="39.50" r="0.400" fill="#000000" stroke="none" /><circle cx="35.50" cy="39.50" r="0.400" fill="#000000" stroke="none" /><circle cx="37.50" cy="39.50" r="0.400" fill="#000000" stroke="none" /><circle cx="39.50" cy="39.50" r="0.400" fill="#000000" stroke="none" /><circle cx="18.50" cy="40.50" r="0.400" fill="#000000" stroke="none" /><circle cx="20.50" cy="40.50" r="0.400" fill="#000000" stroke="none" /><circle cx="22.50" cy="40.50" r="0.400" fill="#000000" stroke="none" /><circle cx="23.50" cy="40.50" r="0.400" fill="#000000" stroke="none" /><circle cx="26.50" cy="40.50" r="0.400" fill="#000000" stroke="none" /><circle cx="27.50" cy="40.50" r="0.400" fill="#000000" stroke="none" /><circle cx="31.50" cy="40.50" r="0.400" fill="#000000" stroke="none" /><circle cx="32.50" cy="40.50" r="0.400" fill="#000000" stroke="none" /><circle cx="33.50" cy="40.50" r="0.400" fill="#000000" stroke="none" /><circle cx="35.50" cy="40.50" r="0.400" fill="#000000" stroke="none" /><circle cx="36.50" cy="40.50" r="0.400" fill="#000000" stroke="none" /><circle cx="37.50" cy="40.50" r="0.400" fill="#000000" stroke="none" /><circle cx="39.50" cy="40.50" r="0.400" fill="#000000" stroke="none" /><circle cx="40.50" cy="40.50" r="0.400" fill="#000000" stroke="none" /></g><g clip-path="url(#qr-circle-clip)" id="finder-patterns"><path d="M8.6,8.0H14.4A0.6,0.6 0 0 1 15.0,8.6V14.4A0.6,0.6 0 0 1 14.4,15.0H8.6A0.6,0.6 0 0 1 8.0,14.4V8.6A0.6,0.6 0 0 1 8.6,8.0Z" fill="#000000" stroke="none" /><path d="M9.42,9.0H13.58A0.42,0.42 0 0 1 14.0,9.42V13.58A0.42,0.42 0 0 1 13.58,14.0H9.42A0.42,0.42 0 0 1 9.0,13.58V9.42A0.42,0.42 0 0 1 9.42,9.0Z" fill="#ffffff" stroke="none" /><path d="M10.3,10.0H12.7A0.3,0.3 0 0 1 13.0,10.3V12.7A0.3,0.3 0 0 1 12.7,13.0H10.3A0.3,0.3 0 0 1 10.0,12.7V10.3A0.3,0.3 0 0 1 10.3,10.0Z" fill="#000000" stroke="none" /><path d="M34.6,8.0H40.4A0.6,0.6 0 0 1 41.0,8.6V14.4A0.6,0.6 0 0 1 40.4,15.0H34.6A0.6,0.6 0 0 1 34.0,14.4V8.6A0.6,0.6 0 0 1 34.6,8.0Z" fill="#000000" stroke="none" /><path d="M35.42,9.0H39.58A0.42,0.42 0 0 1 40.0,9.42V13.58A0.42,0.42 0 0 1 39.58,14.0H35.42A0.42,0.42 0 0 1 35.0,13.58V9.42A0.42,0.42 0 0 1 35.42,9.0Z" fill="#ffffff" stroke="none" /><path d="M36.3,10.0H38.7A0.3,0.3 0 0 1 39.0,10.3V12.7A0.3,0.3 0 0 1 38.7,13.0H36.3A0.3,0.3 0 0 1 36.0,12.7V10.3A0.3,0.3 0 0 1 36.3,10.0Z" fill="#000000" stroke="none" /><path d="M8.6,34.0H14.4A0.6,0.6 0 0 1 15.0,34.6V40.4A0.6,0.6 0 0 1 14.4,41.0H8.6A0.6,0.6 0 0 1 8.0,40.4V34.6A0.6,0.6 0 0 1 8.6,34.0Z" fill="#000000" stroke="none" /><path d="M9.42,35.0H13.58A0.42,0.42 0 0 1 14.0,35.42V39.58A0.42,0.42 0 0 1 13.58,40.0H9.42A0.42,0.42 0 0 1 9.0,39.58V35.42A0.42,0.42 0 0 1 9.42,35.0Z" fill="#ffffff" stroke="none" /><path d="M10.3,36.0H12.7A0.3,0.3 0 0 1 13.0,36.3V38.7A0.3,0.3 0 0 1 12.7,39.0H10.3A0.3,0.3 0 0 1 10.0,38.7V36.3A0.3,0.3 0 0 1 10.3,36.0Z" fill="#000000" stroke="none" /></g><circle cx="24.5" cy="24.5" r="24.2" fill="none" stroke="#000000" stroke-width="0.8" /></svg>