<?xml version="1.0" encoding="utf-8"?>
<!-- Generator: Adobe Illustrator 30.2.1, SVG Export Plug-In . SVG Version: 9.03 Build 0)  -->
<svg version="1.2" baseProfile="tiny" id="Layer_1" xmlns="http://www.w3.org/2000/svg" xmlns:xlink="http://www.w3.org/1999/xlink"
	 x="0px" y="0px" viewBox="0 0 1000 1000" overflow="visible" xml:space="preserve">
<g>
	<path fill="none" stroke="#000000" stroke-miterlimit="10" d="M795.2473145,912.2545776
		c-0.9633179-0.3667603-0.999939,0.7039185-0.673645,1.3261108c0.463562,1.1002808,1.5164795,2.3138428,2.3776245,2.3399658
		c0.3275146-0.0239258,0.4158936-0.2677612,0.4009399-0.6123047c-0.0891113-1.0875854-1.0299683-2.5693359-2.0233765-3.0206299
		L795.2473145,912.2545776z"/>
	<path fill="none" stroke="#000000" stroke-miterlimit="10" d="M789.0876465,768.9576416
		c-1.3237305,0.3857422-0.5744019,1.6345825,0.5266113,2.1888428c0.9341431,0.645813,3.4898071,0.5598145,3.6820679-0.376709
		c0.0736084-0.5614014-0.3553467-0.9689941-0.8120117-1.3328247c-0.8119507-0.6216431-2.3825684-0.8043823-3.3076782-0.5079346
		L789.0876465,768.9576416z"/>
	<path fill="none" stroke="#000000" stroke-miterlimit="10" d="M787.6831055,908.0212402
		c-1.0454102-1.09552-5.0259399-4.6986694-3.5361328-1.0875244c1.4223633,2.982605,3.2233887,5.609375,5.0093384,8.6922607
		c0.9837646,1.4354858,3.7774048,6.3453369,5.0761719,5.6433105c0.5125122-0.902771,0.0374146-2.0426025-0.2575684-3.3353271
		c-0.8120117-3.3306274-3.6940918-7.399292-6.2020264-9.8220215L787.6831055,908.0212402z"/>
	<path fill="none" stroke="#000000" stroke-miterlimit="10" d="M784.741272,770.1298828
		c1.7761841,0.8637085,4.3503418,0.8109131,5.1984863-1.1398315c0.5985718-2.0568848-1.1257324-4.6125488-3.2051392-5.6203613
		c-1.3198242-0.6280518-3.1889038-0.6553345-4.3082886,0.300354c-1.8232422,1.9378052,0.0717163,5.3797607,2.2194214,6.4125977
		L784.741272,770.1298828z"/>
	<path fill="none" stroke="#000000" stroke-miterlimit="10" d="M784.3591919,918.701355
		c-0.0921021,0.9801636,1.5756226,1.3654175,1.6353149,0.2719116c0.0681763-0.9308472-1.3515625-1.2208252-1.6259155-0.366272
		L784.3591919,918.701355z"/>
	<path fill="none" stroke="#000000" stroke-miterlimit="10" d="M770.324585,756.1689453
		c-2.795105-2.6004028-2.2496338,2.8342285-1.3712769,4.2597046c0.8485107,1.6900024,2.2799072,2.5020142,2.5230103-0.09375
		c0.1793213-1.2404175-0.2175293-3.1895142-1.0847168-4.0928955L770.324585,756.1689453z"/>
	<path fill="none" stroke="#000000" stroke-miterlimit="10" d="M777.2061768,914.9344482
		c-1.0169067-1.9377441-3.5147095-3.0690308-4.105835-0.3248901c-0.1525269,1.6522217,1.1882935,3.7807617,2.5358887,4.4596558
		c0.7350464,0.4011841,1.7285767,0.2855225,2.1564331-0.4874268c0.5795898-1.1218262,0.1375732-2.3427124-0.5278931-3.5490112
		L777.2061768,914.9344482z"/>
	<path fill="none" stroke="#000000" stroke-miterlimit="10" d="M781.0720215,765.3673706
		c0.8776855-1.4242554-0.7663574-3.7171631-2.0930176-4.7387695c-1.6609497-1.3706665-4.9039307-1.5646362-5.819519,0.5889282
		c-0.5958252,2.9767456,5.694458,6.4128418,7.8798828,4.1933594L781.0720215,765.3673706z"/>
	<path fill="none" stroke="#000000" stroke-miterlimit="10" d="M781.4581909,915.3860474
		c-1.1539307-0.7053833-1.6706543,0.6499023-1.4172363,1.6084595c0.2423096,1.3254395,1.546936,2.9841309,2.4434204,1.7767944
		c0.4655151-0.9963379-0.1355591-2.6820068-0.9576416-3.3380127L781.4581909,915.3860474z"/>
	<path fill="none" stroke="#000000" stroke-miterlimit="10" d="M803.4573364,916.5969238
		c-0.4902344,0.1748657-1.1782837,0.7285767-1.4745483,1.1884766c-0.5229492,0.788147-0.1362305,1.0638428,0.7593384,0.5206909
		c0.4540405-0.2693481,0.8539429-0.6253052,1.1105347-1.041626c0.2478027-0.3441162,0.2888184-0.9006958-0.3050537-0.6985474
		L803.4573364,916.5969238z"/>
	<path fill="none" stroke="#000000" stroke-miterlimit="10" d="M866.5459595,873.6992798
		c-0.199707,0.1461792-0.3054199,0.5727539-0.072937,0.6759033c0.2696533,0.1253662,0.7409668-0.3439941,0.6728516-0.6047974
		c-0.0332642-0.24646-0.3378906-0.2682495-0.5187378-0.133606L866.5459595,873.6992798z"/>
	<path fill="none" stroke="#000000" stroke-miterlimit="10" d="M876.8150024,863.9955444
		c0.5308228,0.1083374,0.6166992-0.8829956,0.1685791-1.0527344c-0.6387939-0.3444214-0.8114624,0.8629761-0.2567139,1.0237427
		L876.8150024,863.9955444z"/>
	<path fill="none" stroke="#000000" stroke-miterlimit="10" d="M771.8425293,914.605896
		c-2.984314-1.7693481-0.4768677,2.131958-0.149292,3.4161987c0.4661865,1.3439941-0.1757812,1.6881714-1.1375122,2.1578369
		c-1.286377,0.5976562-3.0471191,1.2653809-4.382019,2.0099487c-1.9498901,1.0831909-4.6221313,3.512207-6.2161865,4.8052979
		c-0.3710327,0.3358765-0.9052124,0.6862793-1.0655518,1.1083374c0.2833862,1.0345459,6.6655273-0.7460938,7.8249512-1.1958008
		c2.8722534-0.9812012,6.4534302-2.9179688,7.3456421-5.6254272c1.0055542-2.4943237-0.5578613-5.7240601-2.1707764-6.6447144
		L771.8425293,914.605896z"/>
	<path fill="none" stroke="#000000" stroke-miterlimit="10" d="M872.7452393,860.3776855
		c0.0388794,0.1893311,0.4230957,0.3788452,0.6363525,0.5275879c0.3048706,0.166687,0.6356812,0.4179688,0.963562,0.3865967
		c0.3943481-0.213501-1.4738159-1.2109375-1.5857544-0.9404297L872.7452393,860.3776855z"/>
	<path fill="none" stroke="#000000" stroke-miterlimit="10" d="M867.4818726,890.9866333
		c-0.6639404,0.6081543-1.442749,1.383606-1.7040405,2.0752563c-0.1314697,0.519104,0.4680176,0.383606,0.7915649,0.2476807
		c1.3161621-0.5131226,3.0032959-2.1490479,3.5812378-3.0974121c1.0145874-1.8618774-2.0604248,0.116394-2.5551758,0.6744995
		L867.4818726,890.9866333z"/>
	<path fill="none" stroke="#000000" stroke-miterlimit="10" d="M872.5876465,857.9481201
		c-0.2290039-0.2979736-0.4483643-0.1113281-0.5708008,0.1900024c-0.1734009,0.3450928-0.050354,1.0889893,0.4016724,0.9116211
		c0.3272095-0.2062378,0.4268188-0.6971436,0.2202148-1.0247192L872.5876465,857.9481201z"/>
	<path fill="none" stroke="#000000" stroke-miterlimit="10" d="M820.0925293,910.479126
		c-2.8516235,2.4736938-0.7341309,4.0021973,2.2188721,3.5727539c2.3820801-0.2723999,5.1677246-1.2921143,6.8517456-2.9820557
		c1.9038086-1.942688,1.0597534-3.6914673-1.9130859-3.1273804c-2.15271,0.3039551-5.3866577,1.2266846-7.0744019,2.4734497
		L820.0925293,910.479126z"/>
	<path fill="none" stroke="#000000" stroke-miterlimit="10" d="M863.2556152,868.7767944
		c0.0283813,0.423645,0.220459,1.0391235,0.5476074,1.3424683c0.12677,0.1240845,0.2295532,0.1679688,0.2731323,0.0758667
		c0.0665283-0.1098022-0.0007324-0.5273438-0.0426025-0.723938c-0.1309814-0.6769409-0.6837158-1.3911743-0.7787476-0.7906494
		L863.2556152,868.7767944z"/>
	<path fill="none" stroke="#000000" stroke-miterlimit="10" d="M830.8880615,910.05896
		c0.7320557,0.7457886,14.0081177-5.8339233,12.7865601-7.0007935c-1.7963257-0.2647705-12.4827271,5.374939-12.7943115,6.9845581
		L830.8880615,910.05896z"/>
	<path fill="none" stroke="#000000" stroke-miterlimit="10" d="M860.3428345,895.6975098
		c-0.5638428-2.8237915-7.56427,0.6965942-7.9539795,2.7605591c-0.5943604,2.3299561,3.0652466,1.2033081,4.2772827,0.7713623
		c1.5202026-0.5126343,3.6715698-1.956543,3.6791992-3.4736328L860.3428345,895.6975098z"/>
	<path fill="none" stroke="#000000" stroke-miterlimit="10" d="M868.8161621,856.0496826
		c-0.1533813,0.413208,0.6481934,1.2851562,0.8169556,0.5739136c0.1221924-0.4090576-0.4370728-1.0629272-0.7859497-0.6431885
		L868.8161621,856.0496826z"/>
	<path fill="none" stroke="#000000" stroke-miterlimit="10" d="M613.5928345,922.7085571
		c0.1161499-0.020813,0.2612915-0.3755493,0.0557251-0.3634033c-0.1325684,0.0195312-0.1856079,0.2856445-0.1043701,0.3552246
		L613.5928345,922.7085571z"/>
	<path fill="none" stroke="#000000" stroke-miterlimit="10" d="M606.427002,921.9349365
		c0.2225342,0.0574341,0.5410156-0.3746338,0.414856-0.6065063c-0.2727051-0.4517212-0.6121826,0.3326416-0.4614868,0.5740356
		L606.427002,921.9349365z"/>
	<path fill="none" stroke="#000000" stroke-miterlimit="10" d="M612.3400879,922.7523804
		c0.0498657-0.0140381,0.1114502-0.416687,0.1010742-0.605896c-0.0638428-0.385376-0.1856079,0.4874268-0.1234131,0.5971069
		L612.3400879,922.7523804z"/>
	<path fill="none" stroke="#000000" stroke-miterlimit="10" d="M409.4197998,233.0717773
		c-2.2600403,0.2328491-8.2449341,3.0304718-9.0889282,5.3081055c0.0599365,0.7259674,1.1949768,0.5296783,1.7760925,0.4841766
		c2.7638855-0.3880615,6.750946-2.6401978,8.1044312-4.1474762c0.8730774-0.8870544,0.8143921-1.8250275-0.7084656-1.652771
		L409.4197998,233.0717773z"/>
	<path fill="none" stroke="#000000" stroke-miterlimit="10" d="M613.1817627,922.2210693
		c0.0444946-0.0488892,0.0509033-0.1973267,0.0408936-0.3120728c-0.0061646-0.1174316-0.0390015-0.1546021-0.0894165-0.0883789
		c-0.0846558,0.1038818-0.0733032,0.4400635,0.0059204,0.4273071L613.1817627,922.2210693z"/>
	<path fill="none" stroke="#000000" stroke-miterlimit="10" d="M593.321228,324.0577087
		c-1.4700928-1.886261-4.0869751-0.3486633-2.6166992,1.7012329c1.2873535,1.4123535,3.8044434,0.2208557,2.6762085-1.6177063
		L593.321228,324.0577087z"/>
	<path fill="none" stroke="#000000" stroke-miterlimit="10" d="M166.5397186,151.8956299
		c-6.0945587,0.0628967-12.0456543,1.2447357-18.1427917,1.8309021c-7.3204498,0.7595978-14.486496,1.9800568-21.7482834,3.1421051
		c-4.6151505,0.831192-9.0458908,1.5249634-13.6120529,2.4112549c-3.4655762,0.6744995-6.7252274,1.4858093-10.1944733,2.0290375
		c-3.9907608,0.7332764-11.0208054,1.0067596-14.3045349,2.0265045c-1.509697,0.6850281,1.9558029,0.8174286,2.3963852,0.8147125
		c1.9100647,0.0325928,3.8854523-0.1807556,5.8406982-0.4263763c18.9071426-2.2968903,63.9347305-8.2203217,83.2394485-10.266449
		c0.0660095-0.0743256-0.028595-0.1137085-0.1054382-0.1622314c-1.8073273-0.8229065-10.0378418-1.523941-13.2683716-1.4004364
		L166.5397186,151.8956299z"/>
	<path fill="none" stroke="#000000" stroke-miterlimit="10" d="M900.5658569,498.7236633
		c0.7678833,3.1457214,2.3353882,7.1006775,3.5529175,10.3323669c1.5546265,4.3197021,3.1755981,8.8440552,4.6708374,13.0845947
		c1.4834595,4.3251953,3.2255859,9.5739136,4.5620728,14.4185791c1.2060547,4.3452759,2.2294312,8.9876099,3.5561523,13.2463989
		c1.7713623,5.8223877,4.0081787,10.5430908,6.6153564,16.1412354c3.1400146,6.4562378,5.7718506,13.7095337,9.0606689,20.0379639
		c1.0611572,1.9907837,1.8511963,3.0458374,1.9030762,2.3677979c0.06427-0.5523071-0.5637207-2.402832-1.5181885-5.0568237
		c-4.7226562-12.7446289-12.9311523-34.2866211-18.2732544-48.7739258
		c-1.2963257-3.6047974-1.9763184-6.8786011-2.9251709-10.5264282c-1.5632324-6.4817505-5.5927124-14.2137756-8.4363403-20.6922913
		c-2.0921021-4.5428772-3.5383301-7.932312-2.7808228-4.6321411L900.5658569,498.7236633z"/>
	<path fill="none" stroke="#000000" stroke-miterlimit="10" d="M395.4957275,242.2034912
		c-4.2591553,2.7678833-7.3459778,4.9868622-12.4367065,7.6008911c-4.365509,2.3031769-9.1408081,4.5596313-13.5489807,6.7162781
		c-3.8547363,1.8234863-7.3764648,3.5783081-10.8835754,4.5385437c-3.0046387,0.796051-6.1267395,0.7355652-7.9197083,0.90802
		c-1.1789551,0.0835876-2.7038269,0.276825-0.0608215,0.6056213c6.3919983,1.0769958,12.5917053-0.7946167,18.1546936-4.0114136
		c4.2519226-2.4122314,8.6006165-4.7071533,12.9141846-6.9512024c4.2395325-2.2701263,9.0351257-4.9113922,12.6741638-7.8315735
		c1.2275391-0.9548492,2.1218567-1.7252655,2.5330505-2.134491c0.6425171-0.6392975-0.107666-0.2771149-1.3754883,0.5274506
		L395.4957275,242.2034912z"/>
	<path fill="none" stroke="#000000" stroke-miterlimit="10" d="M750.8253174,759.6359253
		c1.6779175,2.5985718,6.4994507,1.2758179,5.3228149-2.0391846c-1.4572144-3.2084961-7.5205078-1.607605-5.3754883,1.9610596
		L750.8253174,759.6359253z"/>
	<path fill="none" stroke="#000000" stroke-miterlimit="10" d="M350.9036255,254.0746613
		c-0.2112732-4.8435974-7.5740662-4.6448212-11.2366028-4.3544769c-2.5841675,0.2292633-5.660675,1.1368256-3.0986328,3.7772064
		c2.5220032,2.497818,6.9646606,5.0292816,10.8347168,4.2483368c1.7755127-0.3557434,3.4274292-1.7327271,3.4977112-3.592865
		L350.9036255,254.0746613z"/>
	<path fill="none" stroke="#000000" stroke-miterlimit="10" d="M701.5817261,926.5302124
		c-0.4001465-0.3705444-2.3234863-1.5174561-2.2884521-0.6495972c0.3230591,0.8519287,1.3908691,2.0066528,2.5782471,2.9729614
		c0.5283813,0.3585815,1.1327515,0.954834,1.7496948,0.9558716c0.2817383-0.1557617,0.1176758-0.4641113-0.0015259-0.8051758
		c-0.3461914-0.84198-1.1710815-1.7757568-1.9370117-2.392334L701.5817261,926.5302124z"/>
	<path fill="none" stroke="#000000" stroke-miterlimit="10" d="M699.4620361,652.539856
		c-1.6183472-2.5697021-4.4741821-3.4804688-3.6347046,0.7927856c0.4054565,2.4586182,1.8773193,6.0061035,2.8348999,8.6724854
		c0.953125,2.6289062,1.7609863,5.3439331,2.6478882,8.0011597c0.9484863,2.8068237,2.1281738,5.4100952,3.2686768,6.8300781
		c1.0906982,1.4678345,2.4827881,1.798584,2.5432739-0.5490112c0.0623169-2.387085-0.7855225-4.777771-1.5764771-7.3295898
		c-0.756897-2.3644409-1.4526978-4.7390747-2.1286621-7.0058594c-1.0183105-3.3244019-2.0204468-6.5615234-3.9022827-9.3363037
		L699.4620361,652.539856z"/>
	<path fill="none" stroke="#000000" stroke-miterlimit="10" d="M708.0410156,683.7124023
		c-7.402832-1.5001831-10.5370483-3.5829468-14.8601074-9.8634644c-0.7719727-1.0010376-1.2484741-1.918335-2.0394897-2.4367676
		c-0.074585-0.0296021-0.1376953-0.0307617-0.1902466-0.0042114c-0.4824829,0.631958,0.0145264,2.6624146,1.0305176,5.3676147
		c1.8272705,4.3106079,4.9367065,8.378479,9.1033325,10.4882812c2.7734985,1.3501587,6.822937,2.0617065,9.4765625,0.6082764
		c2.9642334-2.0055542,0.6563721-3.5246582-2.4242554-4.1364136L708.0410156,683.7124023z"/>
	<path fill="none" stroke="#000000" stroke-miterlimit="10" d="M747.5810547,929.0327759
		c-1.951416,0.1749268-8.8931885,1.7058105-9.1155396,4.2307739c0.486145,0.3278809,1.3026733-0.0968628,1.8826904-0.1751099
		c1.394104-0.3355713,3.7224121-0.7219849,5.3492432-1.6578979c0.539856-0.2211304,3.7937622-2.4492188,1.9335327-2.4001465
		L747.5810547,929.0327759z"/>
	<path fill="none" stroke="#000000" stroke-miterlimit="10" d="M756.8809204,926.6793213
		c-1.3363037-1.0472412-3.9667358-0.9437866-5.6094971-0.0683594c-1.5413818,0.7254028-4.3482056,2.9897461-1.9783936,4.2669067
		c0.4276123,0.2226562,0.953125,0.3666382,1.4634399,0.4110107c1.696106,0.4780273,8.3134155-2.5673828,6.1746216-4.5668335
		L756.8809204,926.6793213z"/>
	<path fill="none" stroke="#000000" stroke-miterlimit="10" d="M700.7546997,932.0198975
		c-0.1830444,0.5248413,1.8026733-0.3200684,1.7615967-0.5888062c-0.0117798-0.1082153-0.1553955-0.0831909-0.2684326-0.083313
		c-0.4525757,0.0339966-1.1367188,0.3305664-1.4573975,0.6268921L700.7546997,932.0198975z"/>
	<path fill="none" stroke="#000000" stroke-miterlimit="10" d="M685.6774902,643.7631836
		c-0.0477905-1.1907349-1.4180298-8.3439941-2.9029541-7.3394775c-1.1795044,2.2111206-0.1439819,7.3228149,0.5732422,9.8143311
		c1.8466187,5.6384888,2.7319946,0.7652588,2.3439331-2.328064L685.6774902,643.7631836z"/>
	<path fill="none" stroke="#000000" stroke-miterlimit="10" d="M642.052124,560.6656494
		c-1.1184082-1.5651855-2.3133545-3.0487671-3.3262939-4.203186c-0.9349976-1.0674438-1.706543-1.8618774-2.2528687-2.3063965
		c-0.3988037-0.3234863-0.6867065-0.4622803-0.8764038-0.4432373c-1.3048706,0.8539429,3.8902588,8.052063,4.965332,9.2860107
		c7.6502075,9.0402222,6.8206787,5.2288208,1.5827637-2.2037964L642.052124,560.6656494z"/>
	<path fill="none" stroke="#000000" stroke-miterlimit="10" d="M614.9492798,919.430481
		c-0.1329346-0.0794678-0.3551025,0.0926514-0.246521,0.2905884c0.1724243,0.2129517,0.4122314-0.0488892,0.2941895-0.2453613
		L614.9492798,919.430481z"/>
	<path fill="none" stroke="#000000" stroke-miterlimit="10" d="M687.2436523,653.864502
		c-0.5541992-1.5578613-2.3962402-5.3400879-1.8898315-1.6872559c0.3032227,1.9191284,1.0216675,4.618103,1.9743042,6.9296875
		c0.4637451,1.0728149,0.982605,2.3328857,1.6509399,3.2044678c0.1193237,0.1364136,0.211792,0.1922607,0.2791748,0.1790161
		c0.3012695-0.2952881,0.0884399-0.9370117,0.0311279-1.6316528c-0.2988281-2.0361328-1.189209-4.8087158-1.992981-6.8594971
		L687.2436523,653.864502z"/>
	<path fill="none" stroke="#000000" stroke-miterlimit="10" d="M829.0632935,832.9727783
		c2.1282959-1.1775513-0.9381714-2.7789307-2.2281494-1.5866089c-0.4678955,0.3672485-0.3710327,1.0015259,0.0557861,1.3689575
		c0.5048218,0.4735718,1.4378662,0.5185547,2.0731812,0.2591553L829.0632935,832.9727783z"/>
	<path fill="none" stroke="#000000" stroke-miterlimit="10" d="M629.4177246,362.8500061
		c-0.2928467,0.0868225-0.0795288,0.931427,0.1502075,0.9959412c0.5032959,0.1536865,0.1515503-0.941803-0.0977173-0.999176
		L629.4177246,362.8500061z"/>
	<path fill="none" stroke="#000000" stroke-miterlimit="10" d="M631.7040405,381.8711243
		c0.3675537,0.15448,1.0307007-0.1576233,1.095459-0.5747375c-0.0599976-0.5904541-1.4980469,0.0904846-1.1448975,0.5353088
		L631.7040405,381.8711243z"/>
	<path fill="none" stroke="#000000" stroke-miterlimit="10" d="M634.0684204,361.8511353
		c0.5716553,0.4518738,1.9177856,0.3660889,2.6130981,0.0992126c0.348938-0.1137085,0.6646118-0.3894653,0.3030396-0.6453552
		c-0.7025146-0.4748535-2.0906372-0.3145752-2.6730957,0.0362549c-0.1611328,0.0991516-0.4030151,0.2729492-0.2749023,0.4713745
		L634.0684204,361.8511353z"/>
	<path fill="none" stroke="#000000" stroke-miterlimit="10" d="M635.9433594,358.8820496
		c0.7815552,0.2131653,1.7476196,0.0448914,0.7250977-0.6703796c-0.6500244-0.3817444-1.6882935-0.5793457-2.1046143-0.3812866
		c-0.4031372,0.4604492,0.8579102,0.9309998,1.2496948,1.021637L635.9433594,358.8820496z"/>
	<path fill="none" stroke="#000000" stroke-miterlimit="10" d="M629.4057007,368.5484314
		c0.3679199,0.6911316,2.4945068,0.36026,2.8773193-0.0612793c0.1499634-0.1651611,0.0178833-0.2739563-0.161377-0.3760681
		c-0.7220459-0.3746948-2.2553711-0.3022766-2.7127686,0.3966064L629.4057007,368.5484314z"/>
	<path fill="none" stroke="#000000" stroke-miterlimit="10" d="M620.7974243,330.7013855
		c0.3093872-0.8786316-0.9017334-1.2550659-1.4656372-0.7249146c-1.3710327,1.3545227,0.774231,2.2046509,1.4328003,0.8108215
		L620.7974243,330.7013855z"/>
	<path fill="none" stroke="#000000" stroke-miterlimit="10" d="M633.5499878,373.3582153
		c-1.0546875,1.3898621,0.5756836,4.4347534,2.1400146,2.5249023c0.4146118-0.5634155,0.5238647-1.3565369,0.2424316-2.0045166
		c-0.3570557-0.9714661-1.6499634-1.6582947-2.335144-0.5902405L633.5499878,373.3582153z"/>
	<path fill="none" stroke="#000000" stroke-miterlimit="10" d="M841.9325562,841.3225708
		c0.1113892,0.531311,0.3009644,1.0650024,0.5286255,1.46875c1.956665,2.8944092,1.8115234-1.6343994,0.9241333-2.7582397
		c-1.2474976-1.7354126-1.8404541-0.4663696-1.4786987,1.1572876L841.9325562,841.3225708z"/>
	<path fill="none" stroke="#000000" stroke-miterlimit="10" d="M628.0136719,372.1791077
		c-0.102478-0.131073-0.6696167,0.5418701-0.3817749,0.6289673c0.1884766-0.0222168,0.5060425-0.4230957,0.4190674-0.5951843
		L628.0136719,372.1791077z"/>
	<path fill="none" stroke="#000000" stroke-miterlimit="10" d="M630.6583252,361.5457153
		c-0.6826172,0.7865601,0.4223633,0.9417114,0.9798584,0.5380554c0.2852173-0.1904602,0.4345093-0.4430237,0.4865723-0.610321
		c0.1038818-0.8599548-1.1144409-0.3360596-1.4099731,0.0148621L630.6583252,361.5457153z"/>
	<path fill="none" stroke="#000000" stroke-miterlimit="10" d="M638.9869385,359.8203125
		c-0.7714233-0.9238586-1.3651733-0.4064331-1.2568359,0.5990906c0.0531616,1.0326538,1.0250854,2.5495911,1.5883179,3.0716858
		c0.2997437,0.3356628,0.7462769,0.3218079,0.8956909-0.1629028c0.4163818-1.1170959-0.4442749-2.6375732-1.1610718-3.4344788
		L638.9869385,359.8203125z"/>
	<path fill="none" stroke="#000000" stroke-miterlimit="10" d="M879.9835815,400.0082703
		c-0.5206299-1.7432556-1.9306641-2.5820007-3.6727295-2.5160828c-3.3060303,0.1012573-6.645874,2.5653687-8.5585327,5.275116
		c-3.8620605,5.2361755-2.5802612,12.3898621-1.4985352,18.4242859c1.2333984,6.8575134,3.4290771,13.526123,6.065979,20.0273438
		c0.762146,1.8598633,1.8675537,4.8592834,2.6586304,6.2728271c0.0834961,0.1195679,0.1459961,0.1604919,0.1923218,0.1216125
		c0.3106079-1.0280151-0.1144409-3.358429-0.2384644-7.1135864c-0.1657104-3.4187927,0.0002441-6.8385315,0.2384644-10.3314514
		c0.3894043-6.0118103,0.7896729-11.611908,2.5939941-17.1538391c1.2194824-4.1708069,3.2427368-8.8424988,2.2407837-12.9338989
		L879.9835815,400.0082703z"/>
	<path fill="none" stroke="#000000" stroke-miterlimit="10" d="M635.4876709,389.8399353
		c0.1104736-0.0656128-0.2365112-0.9424744-0.4403687-0.8972778c-0.0939941,0.1599121,0.0369263,0.3670349,0.0872192,0.5261841
		c0.064209,0.1170654,0.2044067,0.3583374,0.317749,0.3778381L635.4876709,389.8399353z"/>
	<path fill="none" stroke="#000000" stroke-miterlimit="10" d="M839.4155884,845.0404053
		c0.1627808,0.4421997,0.7212524,0.2176514,1.1062622,0.0371094c0.8345337-0.3395996,1.6595459-1.4609985,1.4599609-2.1659546
		c-0.0014038-0.5351562-0.7193604-0.4759521-1.2112427-0.2001953c-0.8285522,0.3327637-1.5394897,1.4603882-1.3704224,2.2751465
		L839.4155884,845.0404053z"/>
	<path fill="none" stroke="#000000" stroke-miterlimit="10" d="M876.9435425,450.8859863
		c0.4460449,1.1411743,0.9021606,2.4490967,1.56604,3.338623c0.2798462,0.1965027-0.0167847-0.6990662-0.0505371-0.8470764
		c-0.1790161-1.1208496-3.3838501-7.9354858-1.5645752-2.6288147L876.9435425,450.8859863z"/>
	<path fill="none" stroke="#000000" stroke-miterlimit="10" d="M636.7553101,384.6124573
		c-0.0122681-0.1069641-0.0578613-0.2285156-0.1167603-0.3148193c-0.2730713-0.343811-0.5635376-0.0032959-0.4089966,0.3589783
		c0.0998535,0.3528137,0.4971313,0.3644714,0.5266113,0.057251L636.7553101,384.6124573z"/>
	<path fill="none" stroke="#000000" stroke-miterlimit="10" d="M638.7250977,405.4458313
		c0.1523438-0.0026245,0.2282104-0.1214294,0.2347412-0.2669678c0.1347656-0.4717102-1.1506348-1.4007263-1.5030518-1.0691833
		c-0.2158203,0.6124268,0.723877,1.2055664,1.2034302,1.3313293L638.7250977,405.4458313z"/>
	<path fill="none" stroke="#000000" stroke-miterlimit="10" d="M637.7084351,394.0937805
		c0.6414185,0.3183899,1.3545532-0.0431519,0.7992554-0.6972351c-0.4152222-0.534729-1.5343018-0.8757629-1.8659058-0.638092
		c-0.5223999,0.4172668,0.5957031,1.1032104,0.9616089,1.2888184L637.7084351,394.0937805z"/>
	<path fill="none" stroke="#000000" stroke-miterlimit="10" d="M638.9695435,377.3811951
		c-0.5541992-0.2050476-1.5241089-0.1650085-2.0053711,0.2454834c-0.1312256,0.1130676-0.2172852,0.2348938-0.1345215,0.3788757
		c0.2988892,0.4201355,1.7346191,0.2286072,2.1188354-0.0617676c0.2254028-0.1221924,0.3927612-0.3874207,0.0958252-0.5285034
		L638.9695435,377.3811951z"/>
	<path fill="none" stroke="#000000" stroke-miterlimit="10" d="M635.8864746,379.3619995
		c-2.7116089-0.5593872-3.1161499,2.7279663-0.4816895,3.0815735c2.119812,0.1732788,2.3745117-2.3792725,0.5656738-3.0572205
		L635.8864746,379.3619995z"/>
	<path fill="none" stroke="#000000" stroke-miterlimit="10" d="M889.946106,848.9837646
		c-0.2265015-0.2543945-1.569458,0.8790894-1.4780273,1.1185303c0.1587524,0.5686035,1.6757202-0.7307129,1.4981689-1.0879517
		L889.946106,848.9837646z"/>
	<path fill="none" stroke="#000000" stroke-miterlimit="10" d="M877.6281128,859.2608032
		c0.5656738-0.3126831,0.1455078-3.9269409-0.7092896-2.9064331c-0.3057861,0.3450317-0.2695923,3.1520996,0.6674194,2.9385986
		L877.6281128,859.2608032z"/>
	<path fill="none" stroke="#000000" stroke-miterlimit="10" d="M931.1053467,809.2174683
		c-1.2004395,1.1112061-2.9182129,4.4906616-3.8429565,6.4830322c-1.1546021,2.2886353-3.3123169,9.2988892,0.4306641,3.6350708
		c1.4012451-2.1109009,3.2366333-5.8289185,3.7439575-8.0842285c0.1053467-0.4906616,0.6143799-2.5568848-0.2988281-2.0570679
		L931.1053467,809.2174683z"/>
	<path fill="none" stroke="#000000" stroke-miterlimit="10" d="M896.5811768,858.7805786
		c0.4177246-0.9092407,0.3154907-1.5331421-0.5964355-0.7636108c-0.3600464,0.2960205-0.7559204,0.8881836-1.067749,1.5116577
		c-0.2906494,0.5774536-0.4939575,1.0941162-0.53479,1.3475342c-0.0163574,0.1054077-0.0252075,0.2105103,0.0609741,0.2647095
		c0.9891357,0.0407104,1.6896362-1.4451904,2.0883789-2.2427368L896.5811768,858.7805786z"/>
	<path fill="none" stroke="#000000" stroke-miterlimit="10" d="M933.4920654,778.0534058
		c-1.4451904,1.1410522-1.9986572,4.4978027-1.5534668,6.3588867c0.1726685,0.7995605,0.7504272,2.2567749,1.6251831,1.5039062
		c1.1077881-1.3846436,2.0238037-5.0315552,0.9661865-7.1459961c-0.2234497-0.409668-0.5537109-0.890625-1.0001221-0.7335205
		L933.4920654,778.0534058z"/>
	<path fill="none" stroke="#000000" stroke-miterlimit="10" d="M644.62146,538.27948
		c0.1790771-0.0852661,0.2929688-0.3039551,0.0336914-0.2121582c-0.1821899,0.0341187-0.3759766,0.2094727-0.1187744,0.2319946
		L644.62146,538.27948z"/>
	<path fill="none" stroke="#000000" stroke-miterlimit="10" d="M875.7531128,859.3204956
		c-0.9099731,0.0646362-0.1948242,1.8643188,0.4146729,2.2507935c0.3772583,0.2888794,0.6847534,0.0030518,0.6740723-0.4351807
		c0.0349731-0.6456299-0.4120483-1.5917969-1.0259399-1.8016357L875.7531128,859.3204956z"/>
	<path fill="none" stroke="#000000" stroke-miterlimit="10" d="M643.2237549,537.6651611
		c-0.4252319,0.1571655-0.8572998,0.4858398-1.0325317,0.8847656c-0.3173828,0.9116821,1.0539551,0.5098877,1.5317383,0.15271
		c0.9793091-0.6165161,0.6484375-1.3910522-0.3842163-1.0768433L643.2237549,537.6651611z"/>
	<path fill="none" stroke="#000000" stroke-miterlimit="10" d="M879.6123657,881.8007202
		c-1.4160156,1.0500488-3.3480835,3.1324463-4.0836792,4.8063354c-0.1136475,0.5464478,0.5698242,0.0321655,0.7712402-0.1104126
		c0.869751-0.6151733,2.3982544-2.2025146,3.1685791-3.3374634c0.2567139-0.3449097,1.3677368-2.1122437,0.2081909-1.4007568
		L879.6123657,881.8007202z"/>
	<path fill="none" stroke="#000000" stroke-miterlimit="10" d="M921.4248657,828.3718872
		c-5.2796631,1.9390869-7.9040527,7.414856-9.9767456,12.2964478c-0.9380493,2.1602173-1.6901855,4.7091675-3.2522583,6.7172852
		c-1.4196167,1.9104004-3.4824829,3.5652466-5.1264648,5.1777954c-1.9520264,1.944458-3.0133057,3.4918213-4.1408691,5.8078003
		c-1.0479736,2.7570801-2.401062,4.7181396-4.5809326,7.1004028c-3.5991821,3.9483643-7.7761841,8.3897705-11.2594604,12.5037231
		c-2.289917,2.9924316-1.3442383,3.2874146,1.1201782,1.2260742c5.1046143-3.8632812,9.1984863-9.6828613,13.885437-13.9187012
		c3.2027588-3.1123047,6.7214355-6.072998,9.5070801-9.4642334c4.3723145-5.395874,7.0506592-11.4736328,10.9136963-17.2501221
		c1.0727539-1.5151367,8.5288086-12.0933838,2.9665527-10.2165527L921.4248657,828.3718872z"/>
	<path fill="none" stroke="#000000" stroke-miterlimit="10" d="M883.3579712,852.8074951
		c0.3978882-0.1950073,0.3859253-0.5878906,0.0645142-1.0300293c-0.3495483-0.4925537-1.0126343-0.776062-1.5842285-0.5828247
		c-0.5726929,0.1929321-0.3302612,0.8178711,0.0032349,1.1708374c0.3182983,0.3946533,0.9981079,0.6212158,1.4369507,0.473999
		L883.3579712,852.8074951z"/>
	<path fill="none" stroke="#000000" stroke-miterlimit="10" d="M825.4397583,834.6514893
		c-0.819397,3.3348999,3.6578369,4.6748657,4.4465332,1.1043701c0.5112305-2.8077393-3.4542847-3.9238281-4.4152832-1.2011719
		L825.4397583,834.6514893z"/>
	<path fill="none" stroke="#000000" stroke-miterlimit="10" d="M949.817627,649.6948242
		c0.048645-9.8762207-2.1954346-19.3813477-5.2112427-28.5792847c-1.6845703-6.3495483-1.9277954-13.1967773-5.0252686-19.203125
		c-4.1139526-12.9021606-25.3894653-21.788147-14.1474609-18.4248047c7.6358032,3.0856323,0.7136841-7.494812-0.305481-11.3793945
		c-2.2684326-5.4415283-4.5969849-11.1308594-6.8672485-16.5897827
		c-5.7253418-12.1450806-6.6276245-23.1265869-10.5060425-34.9746704
		c-15.0223999-37.2107239-37.9301147-74.8987732-46.8076782-113.9627991
		c0.019104-3.5169373-11.8311768-37.1030884-0.5805664-28.1409302c3.2345581,4.1784668,1.5274658,10.1929932,4.1895752,14.5776978
		c4.2337646,6.467804,15.4647217,1.6367798,18.0684814,10.1390686c2.6193237,8.7722778-0.9620361,17.8385925-1.4360352,26.9725647
		c-0.6794434,9.6147156-0.8500366,19.7285156,1.8015137,29.0863953c2.1655884,6.9892273,5.4372559,13.8060913,8.7677002,20.3104858
		c1.7962036,3.5070496,3.368042,6.6375122,5.3561401,9.5726929c0.9760742,1.390686,1.6844482,2.0462646,1.7096558,1.5158386
		c-1.6804199-5.4760437-5.6647339-11.3499756-8.1976929-16.7592773c-3.5523682-7.431366-5.3925171-15.624054-6.3869629-23.7517395
		c-0.6209106-6.1951599-1.0447998-12.4192505-0.1018677-18.5371704c1.0458984-6.1220093,3.907959-11.5587769,4.3065186-17.5983582
		c-0.3746338-13.4064941-11.2045288-24.745697-17.1779175-36.1262817
		c-9.0878906-16.2413635-20.2498169-31.9980774-28.1529541-49.110199
		c-7.2727661-13.184082-12.5427856-27.3040771-17.9523926-41.2747803
		c-6.2015381-13.5337524-12.2681885-27.042572-16.4893188-41.4127655
		c-6.7536621-19.4029541-9.7130737-39.3995209-14.5658569-59.2505646
		c-4.9639282-12.4975433-4.7171021-26.1368561-8.1281128-38.8946075
		c-1.8863525-6.5939636-8.5739746-12.4030457-8.0701904-19.3493805c1.6018066-0.4659729,3.1239014,3.3874359,4.3482056,1.5180817
		c2.0962524-6.3974609,1.3760376-16.2268906-6.4385986-18.2641373c-9.5515137-2.2620926-19.7983398-3.4893951-29.0256348-7.3426971
		c-7.7192993-2.5901337-16.4650269-8.0738754-24.6332397-6.1101074c-14.4667969,5.3566818-8.880249,22.6556778-8.4647217,34.3394089
		c0.1092529,9.391922-3.1117554,29.6735992-16.5727539,22.8663025c-4.2764893-2.6046448-5.7102051-8.6296692-6.8275146-13.4156952
		c-3.1999512-16.2392578-23.0616455-11.5870972-35.3453979-13.5632477
		c-64.1318359-4.4098663-128.3843384-8.7905273-192.506958-13.1928024
		c-18.9020386-1.3180695-37.8450317-2.573204-56.7348938-3.8991699
		c-13.4805908-1.7788696-33.6837463,2.109314-37.5400391-15.2104263
		c-3.0042725-8.242981-4.5899963-26.4869461-15.5932922-25.3826218c-23.0806885-0.041626-50.5230408,0.0309753-76.0290833,0.000473
		c-79.7693481-0.0788345-138.0437317,0.1043091-214.5988159,0.0354996
		c-4.1174355,0.1502228-8.9380417-1.1025467-10.7625504,3.6269989c-2.5477829,6.3563385-2.4143562,13.8128891,0.8134727,19.9575119
		c4.571846,10.3844376,17.9622078,15.6661758,19.7885628,27.3222427c0.5036545,5.0246277-1.2415619,10.3502502,0.3310165,15.1958771
		c1.3997726,4.9618835,6.4325409,9.6269684,3.7411041,15.0245514c-2.005661,4.1362762-5.3427429,7.5650787-8.1743774,11.0912781
		c-2.4999924,2.3339539-7.0610809,5.4214478-0.9805374,4.5564117c7.6444016-1.1604004,16.497345-3.8149872,21.9148788-9.508316
		c3.9228287-4.193573,9.048317-8.0479584,11.4703217-13.2865295c2.0564957-2.7113037,0.3126144-13.1998444,4.191803-12.645752
		c3.902771,1.5753784,4.1690979,8.5239258,8.2736969,9.3108673c3.9983215-2.2577515,3.9844208-10.9362793,8.7367477-12.1506195
		c2.3185272,1.4649048,1.1977692,6.2013855,2.932457,8.5556793c1.0764923,2.6222229,3.6968384,4.6150055,5.2638855,6.7727661
		c0.4861298,4.7793121-9.778244,5.5088806-13.7681732,7.3384552c-9.0356064,2.3385925-19.6797562,7.1422882-0.8531189,3.4781036
		c11.2623062-2.3683319,23.067337-3.4277039,34.3642426-4.3173676c8.3305511-0.5503693,17.1306152-0.6474152,24.548996-4.3431702
		c20.602005-15.5306091,8.741745-1.5076904,30.5896912-5.6355286c6.1013184-0.6540527,13.5625153-0.7212219,17.9551697,4.037323
		c7.6238861,9.9932404-3.6960754,6.5110016-9.0544739,6.0233765c-6.7122192,1.1357269-45.0507507-0.1971283-18.1359406,4.7397919
		c17.2549896,3.5774384,34.7390594,8.4300385,50.2429657,16.7281189
		c6.8087158,3.3278809,13.4527283,7.6943665,19.9264221,11.6891632c7.5118408,5.1098633,9.7807922,1.8080597,4.6776733-4.3675995
		c-2.0723267-2.2258453-6.1679382-4.9875793-7.0406189-7.3950958c-0.765564-2.9642334,2.9914246-4.3515472,5.4537964-3.9848938
		c4.2420654,0.2548065,8.0892029,2.8078766,12.3591309,1.444519c15.1362915-6.1631775,6.91922,1.2061157,0.3778076,6.3073578
		c-8.5629883,9.7186737,7.9268799,13.3133392,14.9263306,14.4610901c4.5282898,1.1546783,5.4271545,6.9314575,9.54245,8.8242035
		c7.7666016,4.5361481-4.2181396,1.939621-7.1420898-0.2824402c-4.2452087-2.3437347-9.3374023-6.7927246-13.5444946-7.2085876
		c-0.9098816-0.0374756-1.4226685,0.3058929-1.051178,1.2361755c2.5263367,5.1690826,11.1422729,9.4232941,13.805542,14.0693359
		c-0.2993164,0.3950958-1.7049866,0.0043335-0.7456055,0.9017181c6.9692688,5.3173981,16.3059082,9.6427155,20.9902344,17.4558411
		c2.4094543,3.9741821,4.2105408,8.6627502,4.4968872,13.3138428c0.8506775,5.8816528-3.9494629,9.9310455-7.0841064,3.6006165
		c-1.9995117-3.6047974-2.2964172-8.2459412-3.6711731-11.3061523
		c-1.1027527,10.6486359,4.9173889,20.9602966,17.1968994,18.3409119
		c10.1245117-2.1902008,20.8316345-2.7434082,30.7226868-5.7995605c3.9402161-1.2757874,8.0653992-4.6693115,11.7250671-5.3829956
		c1.0576782-0.0559387,1.9827576,0.3625793,2.8556824,0.9080658c3.6471863,3.3423462,9.6970215-0.0588226,13.5197144-2.2725983
		c13.0097351-6.9441528,25.6312256-19.2829895,41.3971863-17.1699524c1.6964417-0.1602783,6.4276123,0.6209869,6.0613098-1.7352142
		c-1.3546753-2.6701355-4.1540833-4.6889038-6.3714905-6.6595459c-0.3581238-0.3762054-1.0085449-0.7154846-0.6826782-1.196106
		c1.0025024-0.6217346,3.9619751-0.5651855,5.3492737-1.2868347c1.213562-1.0305328,0.8686523-3.0914001,1.6986694-4.4603577
		c2.3132019-4.1301575,8.1417847-7.0633392,12.8363953-8.2933655c8.3962402-1.2979126,17.1630554-1.2173004,25.6574402-0.6089172
		c5.7778625,0.8769073,10.6997986,4.3637238,15.5488586,7.4654694
		c16.5849304,9.0245056,30.0451965,14.2028961,38.6255188,32.4535065
		c5.5897827,12.5437164,19.9679565,14.1765289,22.1688232,27.8614197c0.6890869,2.9269409,1.3877563,5.9145203,2.9332886,8.5487061
		c4.3619385,7.3215637,13.0657959,10.9250488,18.492981,17.3456421c5.8756104,7.1820068,11.0903931,15.086731,17.1411743,22.0586853
		c7.3051147,11.1713562,20.1445312,5.6296692,29.8884888,11.1550903c5.6538696,3.9699402,6.7167358,11.5462952,9.1523438,17.6795654
		c1.8637695,6.2557373,5.7723999,11.3345947,9.2597046,16.712738c7.4181519,12.2053528-1.3189697,9.3721313,3.1037598,26.9633179
		c0.4899292,11.4881592-1.1774902,23.8496094-3.8933105,35.0379333
		c-3.2497559,12.3308716-8.4869385,23.6063538-11.6934814,35.8381653
		c-1.1365967,9.5652771-0.8551025,21.3775635-4.571167,30.0851135c-3.0471191,6.6445007-4.7909546,5.6328735-2.567627,13.953125
		c2.074646,6.4750061,6.3546753,12.8099976,10.2470093,18.4072876c0.4151001,0.5396729,0.7188721,0.8861694,0.9179077,1.0444336
		c0.357666,0.2927856,0.3036499-0.0717773,0.2354126-0.362915c-1.0171509-4.0184326-5.0438843-8.2866211-5.5044556-12.2767944
		c5.3468018,1.1849365,11.8311157,14.8133545,17.6898804,7.3762817c2.1379395-3.3579712,4.0114136-9.4223633,4.6538696-13.8676453
		c0.6448975-3.7857971-2.6682129-5.9794006-5.5279541-7.7142029c-5.4717407-2.7098694-4.7859497-8.562439-3.3185425-13.4650879
		c2.7235718-2.40448,6.8613892,2.9622498,9.2313843,4.4790039c3.993042,2.1924744,7.3074341,16.5615845,10.84729,15.5252991
		c1.5705566-0.9029541,3.5875854-4.418335,5.5758057-5.5550232c6.9213257-0.4996643,6.0519409,10.7799988,3.6170654,15.0945435
		c-3.9934082,7.6295776-11.6818237,14.0773926-15.6694336,21.6521606c-2.3807373,3.8770752-4.1053467,9.0412598-6.293335,12.6102905
		c-2.9595947,2.2546997-5.7952271,5.7337646-9.8567505,4.2102661c-4.9886475-0.6126099,3.0392456,5.0465088,4.5324707,6.6450806
		c9.3649292,6.7418213,11.0554199,13.1845093,13.5669556,23.7593384c4.9971313,9.40448,7.5750122,18.5528564,12.2405396,28.3511353
		c2.3193359,4.7861938,4.8915405,10.7372437,7.9360962,14.5484619c1.8122559,1.5280151,3.088623,3.0630493,4.347229,5.0905762
		c1.657959,2.4329834,4.7468872,6.7445679,7.9625244,8.8069458c3.4312744,2.3425903,12.4608154,6.4713135,12.1743774-0.5324707
		c0.6238403-8.2771606-16.4230957-24.4534912-4.4498291-16.819519c9.1438599,7.1973267,30.1694946-7.7872314,18.4060669,5.1610107
		c-3.9894409,5.3419189-1.9376221,11.8104858-2.2081299,18.1372681c-0.3887329,8.7744751-3.2201538,35.852417,10.3015137,31.8679199
		c6.598938-4.1686401,9.8840942-14.5396118,17.5042725-17.9255371c3.0328979-1.4135132,0.7294312,1.5559692-0.2872925,2.7478638
		c-4.1905518,4.8933105-7.8972168,10.8460083-12.3134155,15.5031128c-2.9113159,3.0386353-8.6281738,7.7481079-1.7230835,10.055481
		c3.876709,1.5091553,9.5441895-0.1907349,11.0328979,4.7897339c2.6187134,9.6051025,3.0615234,19.4468994,4.6989136,29.4038086
		c0.4987183,9.4155273,5.3494263,16.7944336,10.2302856,24.6745605c1.4992676,2.4979858,3.8942871,4.6607666,3.9827271,7.456665
		c0.0131226,1.741394-1.3206177,3.1264648-1.1526489,4.6723022c3.46875,2.1687012,9.0144653,0.5375366,13.1048584,1.5426636
		c5.788147,1.0855103,10.8413086,3.6011963,16.4686279,5.9956055c8.2662964,3.1120605,13.6321411,10.1820068,16.5562134,18.2268677
		c3.5144653,7.003479,8.704895,13.6236572,11.7053833,20.9769287c5.288208,10.1791992,7.1456299,23.5254517,18.2034302,29.5306396
		c3.760437,2.2792358,8.4592285,4.2609863,11.4204102,7.1238403c2.9230347,2.2130737,5.050354,9.255249-0.1582031,9.2248535
		c-5.4612427-0.3751221-9.3596802-6.6754761-14.2828979-9.3530884c-10.319458-5.4822998-9.131897,12.7902832-4.0289307,17.0307617
		c9.3529053,9.6887207,24.5733032,0.1303101,35.3463745,0.7463379c23.2987671,5.121582,22.5862427-8.8502197,36.5385132-8.5128784
		c2.206604,0.4849854,4.1637573,2.2625732,6.1098633,3.2293701c0.5204468,0.1877441,0.9626465-0.3562622,1.2063599-0.8868408
		c1.2189331-2.1156006,4.5562134-0.25354,5.6983643-2.871521c4.5256958-10.5844727,11.3563232-18.0678101,10.1781006-30.1525879
		c0.0231934-14.003479,7.4205933-26.6344604,13.9942017-38.5153198c3.0571289-4.8790283,7.6268311-22.8397217,10.0689697-7.4420166
		c1.7495728-14.2510376,0.578125-29.4208374,2.8999634-43.4827271c2.4596558-12.4931641,3.6166382-25.2202148,4.8390503-37.8325806
		c1.3109741-12.6344604,4.3571777-24.710022,3.1192627-37.4407349L949.817627,649.6948242z M766.7019043,399.263092
		c-1.3829956,1.7607727-3.9597168,3.0853577-6.0877075,3.4317322c-5.7494507,0.7931519-7.9350586-6.3139038-7.7349243-11.0653076
		c0.0886841-4.2327271,4.4667358-5.6735229,8.0838623-4.514679c5.1464844,1.3137207,9.5582886,7.2918091,5.7996216,12.0700378
		L766.7019043,399.263092z M767.8469238,317.9699402c-4.5784912,0.9401245-7.2201538-2.9891663-9.0673828-6.6462402
		c-1.0995483-2.1201782-2.1436768-4.4310608-2.788208-6.6065979c-1.7911377-5.4280396-1.1339111-10.6642151-1.7666626-16.4242554
		c-0.2938843-2.4523926-0.7904663-5.0341492-0.9475708-7.4786682c-0.0829468-1.1289062-0.1359863-2.1482239-0.1542969-2.9284668
		c-0.0275269-1.1799927,0.0400391-1.8510132,0.2796631-1.9123535c0.2369385-0.0727234,0.6621704,0.5045776,1.1551514,1.6043091
		c0.960083,2.1920166,1.5371094,5.050354,2.5882568,7.30896c1.9343262,4.1051941,5.0050049,7.3640137,7.8075562,10.8838806
		c2.4458618,2.6401978,4.4552002,5.7196045,5.8651733,8.9629822c1.0232544,2.1819458,2.0294189,4.5757141,1.8932495,6.9142151
		c-0.1096191,2.8561707-1.9575806,5.717804-4.7919312,6.3067322L767.8469238,317.9699402z M807.914856,562.4692383
		c-0.5653687,3.2744751-2.8532104,6.7156982-5.9656372,7.9439697c-5.1260376,1.8980713-7.7071533-7.8984985-7.5149536-11.6651001
		c-0.0779419-4.8461304,4.388855-8.029541,8.9188232-6.1452026c3.7672729,1.5366211,5.3582764,5.7944946,4.5817261,9.7570801
		L807.914856,562.4692383z M811.8937378,507.3381958c-1.7109375-1.0133362-3.6660767-3.014801-5.3654785-4.3757324
		c-3.9094849-3.3724976-7.9643555-6.5823669-10.4613647-11.0941467c-1.7706909-3.2888184-2.6677246-7.9539185-0.461853-11.1637268
		c1.5366821-2.096344,4.7888184-2.7123413,7.1464233-1.4309387c4.3946533,2.4928284,6.0336914,8.725769,7.3527222,13.5419617
		c0.7908936,3.3895569,1.8372192,7.4968872,2.4185791,10.5402527c0.4492798,2.7483215,0.6068115,4.4078979-0.5946655,3.99646
		L811.8937378,507.3381958z M880.1171875,624.9801636c-1.6088867,4.7952881-4.3736572,9.3709106-6.624939,13.8343506
		c-1.6651001,2.9369507-3.7820435,5.5397949-5.1456299,8.5072021c-1.4540405,2.5402222-3.8670654,5.4754639-7.2980347,5.1112061
		c-3.6881714-0.343811-7.5704956-2.4693604-10.7435913-4.5255127c-4.6088867-3.0665283-8.1876831-7.3233643-11.019043-11.9923706
		c-1.7711792-2.8059082-3.4541626-4.736084-5.9139404-6.447937c-4.041687-2.9308472-10.3098755-6.4576416-10.0120239-12.0966797
		c0.4435425-5.199646,7.3679199-8.2670898,11.0687256-11.3859863c4.0031128-3.0679932,7.3049316-6.5194092,10.7360229-10.4937744
		c2.8372192-3.1529541,5.6664429-6.7266846,9.3706055-8.8717651c7.0873413-4.4588623,14.2396851,2.0958252,18.1397095,7.8086548
		c5.9810181,8.5018311,10.414978,20.074585,7.4717407,30.4553223L880.1171875,624.9801636z"/>
	<path fill="none" stroke="#000000" stroke-miterlimit="10" d="M821.3429565,827.8964844
		c-1.3720703,0.2072144-0.1016846,0.8950806,0.5230713,1.083252c1.0123291,0.3835449,2.585144,0.4862671,3.3601074,0.388855
		c0.6022949-0.0466309,1.0581055-0.2461548,0.2794189-0.6709595c-1.0671387-0.6068115-2.9005127-0.949707-4.0740356-0.812561
		L821.3429565,827.8964844z"/>
	<path fill="none" stroke="#000000" stroke-miterlimit="10" d="M821.5869751,831.9761353
		c1.8555298,1.7994385,4.5410767,0.4262695,2.2751465-2.0198364c-2.1117554-2.0707397-5.1366577-0.5861206-2.3579712,1.9457397
		L821.5869751,831.9761353z"/>
	<path fill="none" stroke="#000000" stroke-miterlimit="10" d="M837.2302246,841.2347412
		c0.7575073,0.3117676,1.8456421-0.7443237,1.2214355-1.428772c-0.2243652-0.2958374-0.7849731-0.3835449-1.1316528-0.1339111
		c-0.4370728,0.3161011-0.7266235,1.2226562-0.161377,1.5324097L837.2302246,841.2347412z"/>
</g>
</svg>
