<?xml version="1.0" encoding="utf-8"?>
<!-- Generator: Adobe Illustrator 30.2.1, SVG Export Plug-In . SVG Version: 9.03 Build 0)  -->
<svg version="1.2" baseProfile="tiny" id="Layer_1" xmlns="http://www.w3.org/2000/svg" xmlns:xlink="http://www.w3.org/1999/xlink"
	 x="0px" y="0px" viewBox="0 0 1000 1000" overflow="visible" xml:space="preserve">
<g id="Lakes">
	<g>
		<polygon fill="#FFFFFF" stroke="#010101" points="795.7568359,834.1835327 794.3372192,840.1951904 786.2574463,846.7703857 
			784.5530396,852.4969482 784.904541,853.6494751 786.3059692,857.2893066 786.7914429,858.9873657 786.9307861,860.5950928 
			786.7914429,865.4661255 788.3805542,880.0488892 789.6000366,880.6859741 790.8130493,878.9873047 791.3832397,875.2445679 
			790.3275757,869.536438 790.3823242,866.6307983 792.8874512,861.3897095 794.4890747,854.5838013 795.0715942,849.0087891 
			796.5211792,842.7669678 796.9033203,838.1082764 796.8547974,834.1835327 		"/>
		<path fill="#FFFFFF" stroke="#010101" d="M890.241272,632.8033447l-2.8081665-0.8372803h-2.2689209l-1.6501465-0.7340088
			l-0.1514282-0.4306641l-0.1516724,0.0608521l-3.2877808-0.2972412l-3.0026855-1.0983276l-2.5176392-1.9532471
			l-1.0552979-2.6565552l-1.1221924-1.4014282l-6.5877075-3.1541748l-3.585022-0.7827148l-9.4814453,0.7827148l-1.4556274-0.8190918
			l-4.7559814-5.8719482l-0.8674316-0.7216797l-1.7529297-1.0131836l-0.7159424-0.8735352l-0.4851074-1.401062l0.1453857-1.0678101
			l0.2913818-0.7823486l0.0483398-0.6190796l-2.9054565-6.1568604l-0.4306641-1.2493896l0.3334351-2.1352539l1.5528564-3.3062134
			l0.3277588-1.1525269l-0.2788086-5.0408936l0.2788086-2.1231079l0.5397339-1.8501587l1.2677612-2.6204834l0.3336792-2.2685547
			l-0.3336792-4.0704956l-1.3223877-3.3908691l-1.9833984-2.2869263l-2.468689-0.8007202l-4.9927368-15.8566284l0.1520386-6.041748
			l-0.722229-3.2514038l-2.2866821-1.4073486l-2.2141113-0.7827148l-0.8371582-1.868103l-0.3336182-2.2384033l-0.5823364-1.7043457
			l-0.8674316-0.7160034l-3.6396484-1.9352417l-0.5823364,0.145752l-0.8736572-0.7280884l-2.468689-2.874939l-1.2011108-1.2014771
			l-1.3163452-1.0188599l-1.5043335-0.7643433l-4.8892212-0.9159546l-3.3909302-1.7044067l-2.9541626-2.0684814
			l-2.0869141-2.1051025l-1.5830688-3.1359863l0.1880493-2.8693848l0.8613892-2.9359741l0.5336304-3.7427673l-0.3334351-1.2979431
			l-0.7643433-1.5045471l-0.9887695-1.3057251l-0.7642822-0.5307617l-0.4369507-0.8674622l0.637085-2.0381775l0.4365845-2.368988
			l1.0192871-1.3193665l0.1273804-2.6203308l-0.9646606-3.1026001l-1.6376343-2.7054443l-0.9160156-2.9543457l-0.2001343-2.9058228
			l-0.4851074-2.9994812l-1.5529175-5.377533l-8.3833008-14.6373596l-1.9352417-1.6347961v-3.7730713l1.3529053-6.6423035
			l-0.5823364-3.3029785l-1.5348511-3.9732361l-2.0321655-3.272644l-2.038147-1.4162292l-3.585022-0.6187439l-2.4749756-1.5680542
			l-4.6586914-4.5072632l-6.6724854-3.806427l-14.4373779-5.9750671l-5.8597412-4.8374634l-0.8191528-2.7054443
			l-0.9157715-7.8102417l-1.1221924-1.5892944l-3.6881714-0.2487183l-2.947876-1.0675964l-2.5723877-2.4023438l-2.505127-4.4219666
			l2.3231201-1.4861755l0.5339966-2.0383911l-1.1707153-2.2866821l-2.8025513-2.1868286l2.2141113-1.2010803v-1.3009644
			l-1.0979614-0.6339111l-1.9532471-0.7675171l-1.8380127-0.25177l-0.7643433,0.9190063l-0.6369019,0.9673462l-1.3527222-1.2037048
			l-6.9759521-8.3410034l-1.1161499-2.9389954l2.3231201-1.2192688l-2.0196533-4.7893372l0.4303589-1.4692993l2.602478-0.4335327
			l-1.4014282-3.0042114l-0.8187256-1.0010986l1.1705322-4.2247925l-2.3352051-3.3850403l-6.5756226-4.555603l-3.3908691-3.1573792
			l-6.8970947-8.7593384l-3.4334106-2.8554077l-3.2390747-1.6033325l-7.7950439-2.3215942l-3.536499-1.6512756l-3.8217773-2.6011963
			l-3.3057861-3.589386l-2.3172607-5.7263489l-1.4014282-4.3554077l-2.6687012-3.8701477l-2.0383301-8.8139343l-4.458374-5.3231506
			l-7.9467163-7.3774414l-6.9274292-5.558197l-6.2904663-4.1732483l-5.3258057-2.41922l-5.0836792-3.4407654l-3.8760376-4.4052734
			l-2.8571167-4.1690674l-2.6144409-2.6569214h-3.2877808l-2.6207275-0.9660339l-2.0380249-2.2230072l-1.2497559-5.1379242
			l-1.8074951-4.6587219l-1.6802979-5.4746094l-1.4012451-2.1837616l-3.8276978-2.0715637l-1.3650513-2.7723694
			l-1.7833862-5.4745941l-1.2736816-1.96521l-1.8380127-2.2383728l-2.0808716-1.8852081l-3.8759766-1.602951l-2.6992188-3.6881561
			l-1.1225586-0.8674316l-0.9158325-2.7555084l-3.1057739-16.8575134l-1.3041992-4.4555054l-9.3417358-14.5190735
			l-1.5043335-1.7528992l-2.2384033-6.3920746l-0.8128662-5.3762207l-1.8379517-5.1726227l-6.9274292-4.4236603h-11.1981201
			l-7.7461548,0.2500305l-5.2774658-2.9706573l-2.6629639-2.9359589l-2.6205444-4.709137l-3.4879761-2.2351532l-3.4454956-4.6388092
			l-6.0842285-3.4409637l-1.2736816-2.4660339l-0.2792358-2.6734161l-1.1705322-0.2835922l-3.8701477,1.1205139
			l-5.5246582-2.7039337l-14.9544678-9.7496414l-5.1927185-7.3080597l1.552887-8.3785324l2.8027039-3.538208l0.6854553-1.6044617
			l0.3336487-1.5997314l0.1031189-1.6044693l0.2303162-1.502861l0.6886902-1.1026917l1.3511963-2.8690491l2.1837769-1.9352493
			l2.523468-1.5877914l2.1657715-1.9835892l1.6560364-2.8055496l2.3655701-6.3088684l1.455658-2.8538818l1.8501282-2.1868057
			l6.6713257-4.8406982l2.0927734-1.0674324l4.3493652-1.4029617l1.8925781-1.6833267l1.3952026-2.288414l0.9705811-2.3172264
			l0.2487183-2.4203491l-0.0970459-0.2365761c-27.6852417,0.4124908-55.372345,0.7764549-83.059082,1.108757
			c-26.9032593,0.3230171-53.8046265,0.7717133-80.7073364,1.0932159
			c-11.5711365,0.1380005-23.1421204,0.3139153-34.7142334,0.4549522
			c-13.8036499-0.6869774-27.6051941-1.389122-41.4086609-2.0899391l-1.1675415-0.4653816h-93.0090485
			c-25.207428,0-50.4163666,0.0335541-75.6237946,0.0335541h-1.9094772
			c4.7438278,26.0473862,8.8518677,52.2179794,13.3606415,78.3065033
			c4.8086624,27.8307953,9.5269089,55.6769409,14.3433304,83.506424
			c4.4536133,25.7366791,8.8729095,51.4811401,13.2814178,77.2252197
			c4.6966248,27.4200134,9.5236816,54.8172913,14.2443848,82.2344666
			c4.5923615,26.6661072,9.1841736,53.3339233,13.8976746,79.9805298l0.6228943,3.5213318l-0.4350433,1.7834167
			l5.3246613,14.0034485l-0.483963,5.5746765l0.1499481,1.7348938l0.5339966,1.5013428l0.8173981,1.3709412l1.019104,1.234436
			l3.287796,3.6062622l0.9341583,1.3013611l-1.3661804,1.8379822l0.6321869,1.8984985l1.5030518,1.9716492l1.3510284,2.2351379
			l0.9658203,6.7757874l1.654892,3.9715271l0.0998993,2.4751282l-0.3834839,3.3850403l1.0022278,1.8560486l1.9500427,1.2980957
			l1.2541504,1.5409546l-0.9190063,2.5293579l11.2832184,14.673584l1.8848267,3.190918l0.6854553,2.517395l0.7690735,6.1873779
			l1.2677917,3.0089111l1.6829529,2.7718506l1.4029541,2.8511963l0.2015076,2.5718384l0.0504303-0.6185913v1.4376831
			l-0.0504303-0.8190918l-0.2835846,2.5175781l-1.0689545,2.1411133l-0.6854553,1.8806763l0.8704681,2.1898193l-3.5728912,3.8762207
			l0.5823364,3.536499l3.1890411,3.1363525l7.8450928,4.555542l1.5529022,1.2494507l1.0177612,2.2383423l0.7171326,0.1334839
			l0.7337952,0.4003296l0.3340149,1.4014893l-0.4324036,1.5407715l-1.1510315,1.0673828l-1.4696808,0.527771l-1.4040985,0.1031494
			l0.9190063,2.4385376l-0.4854736,1.8681641l-1.2494202,1.4681396l-1.4545135,0.9038696l-2.9007111-1.2556763l-2.4703979,0.6369019
			l-0.5840454,1.5834351l2.6173096,1.7043457l-1.9348755,1.4678345l-2.719101,1.2497559l-2.7039337,0.8733521l-2.2368622,0.3461304
			l-1.1176605,0.7216797l-1.1026917,1.7833862l-2.6218567,6.3088989l-0.2987518,1.6376343l0.0515594,4.7375488l-0.3867035,2.5356445
			l-1.6349945,3.3724976l-0.533432,4.3736572l1.2025909,4.307251l-0.5355225,4.803894l-0.2320251,0.7160034l-1.4044647,2.8571167
			l-0.6854706,0.9219971l-4.602417,7.5582886l-3.1878967,7.3579102l-1.3208771,6.4425659l-0.817215,2.5234375l-0.2350464,0.9642944
			l-0.1503296,1.1709595l-1.0674286,4.1065063l1.118988,3.8701172l4.5408173,21.4129639l1.3161316,3.1846924l5.6582947,7.7645264
			l1.4541473,3.5852051l0.3486023,2.4082031l0.0500488,5.2410889l0.3355255,1.4497681l1.4509125,3.8215942l0.3340149,2.6203613
			l-0.9694214,4.555542l-1.8332825,3.5731201l-0.9174805,3.9732666l1.5997314,5.4713745l-3.4362335,4.6103516l-1.1694183,6.9700928
			l-0.9658203,14.6917725l-0.783844,1.6863403l-2.0700378,3.0026855l-0.5355225,1.9348755l0.2835846,1.5045776l1.501358,3.7245483
			l0.335144,1.9047241l-0.8674469,6.8242798l0.248703,2.9844971l1.8880615,2.468689l3.2862701,1.6744385l4.4572144,6.1390381
			l3.9715576,7.994812l2.0865173,8.9593506l1.5529175,2.0383911l0.2839661,1.9716187l-0.5370331,1.5650635l-1.0158844,1.2067871
			l-0.4854736,0.8132324l-0.3321075,0.6365356l0.1501312,2.3661499l0.7174988,0.8916626l2.8690491,2.0137329l1.0010834,1.0252075
			l0.9353027,2.0806274l1.3030701,5.7265625l1.399353,1.401062l2.2383728,4.507019l1.2012634,4.4403687l0.2032166,8.0435791
			l2.4656525,12.5020752l7.3110962,7.7886353l1.4545135-0.2303467l5.1910248,0.3334351l1.0526428,0.09729
			c27.3074188,1.8438721,54.6078033,3.800354,81.9184418,5.6019897c27.1017456,1.786438,54.1881104,3.7702026,81.2866211,5.5807495
			c26.7345581,1.7866211,53.4658813,3.6304932,80.1960754,5.4866943c27.9887085,1.9472046,55.9772034,3.897644,83.9721985,5.7567139
			c26.4266968,1.7561035,52.8533936,3.5941162,79.2740479,5.4503174c6.0388794,0.4215698,12.0744019,0.8492432,18.1160278,1.2342529
			l0.3519897,0.2850952v0.5825195l-0.4851074,1.2008667l-0.6854248,1.2194824l-0.2850952,0.7216797v0.7827148l0.1878662,0.7827148
			l0.8795776,1.5344849l3.8763428,5.0407104l0.7156372,1.2014771l0.7825317,1.6681519l0.2363281,0.8674316l0.1031494,0.873291
			l-0.1031494,0.9647217l-0.1514282,1.0189209l-0.8128662,2.7539673l-0.4367676,2.2383423l-0.1030884,1.0979614l0.0543823,0.9404297
			l0.3338623,1.6801147l2.4688721,7.0303345l0.9341431,1.6317749l0.6187134,0.6854858l0.885498,0.588562l1.1525269,0.381958
			l1.5529175,0.09729l7.6069946-0.8674927l1.0979614,0.1820068l3.0574951,0.9705811l0.8369141,0.0968628h0.7159424
			l4.5067139-1.2494507l0.8676147-0.4306641l0.6369629-0.7340088l0.3275757-1.4922485l0.0543823-1.1646729l-0.3336182-5.4715576
			l0.097229-1.1705322l0.4367676-2.4692993l3.2877808-11.8165894l2.2383423-12.586853l0.048584-2.1837769l-0.2001953-1.8863525
			l-0.2550049-0.9343872l-0.7155762-1.4376221l-3.154541-4.4708862l-0.7702026-1.6859741l-0.52771-1.7532959l-0.3334351-1.5045166
			l-0.1520386-2.2137451l0.097229-1.0740967l1.1525269-4.3068848l0.2001953-1.2130127l0.097229-1.104187l-0.5339966-4.7070312
			l0.1031494-1.8380127l0.2365723-0.8612061l0.3336182-0.8433838l0.479248-0.7279053l1.9532471-1.9348755l0.4851074-0.9042358
			l0.2367554-1.0674438l0.3334351-2.0015869l0.479187-0.6733398l0.8373413-0.2305298l1.6861572,0.5336304l1.3709106,0.1820068
			l1.4803467-0.2790527l0.6854248-0.5883789l0.5396729-0.8795776l0.2003784-0.9038696l0.1820068-1.2677612v-0.382019
			l0.2487183-1.2255249l0.430481-0.7644653l0.8190918-0.7338257l1.4012451-0.381958l1.2678223-0.085144l2.2747803,0.1334839
			l1.0130005-0.0483398l1.2736816,0.0483398l1.4497681,0.3336182l2.4203491,1.5529175l1.2498169,0.97052l2.2385864,1.2494507
			l14.9523926,6.1574097l1.4681396-0.1821899l1.4862061,0.1333008l2.3414917,0.6312256l1.583252,1.1220093l1.067627,1.0132446
			l1.6499634,1.0004883l2.4203491,1.0737305l7.8977661,2.3720093l1.7838135,0.2003174l1.7043457-0.2850952l1.1705322,0.0483398
			l2.2141113,1.4014893l1.6560669,0.7337646l6.7759399,1.534729l1.5529175-0.0301514l5.3200684-1.607666l2.9537964,0.8249512
			l1.2194824,0.2792358l-0.2000122-2.3171997l1.0674438-4.7559814l0.3823242-4.2401733l-0.7159424-2.1898193l-1.9352417-2.565979
			l-0.8369751-1.7530518l-0.2304688-2.5722046l0.0485229-2.3716431l-0.6793823-1.8620605l-2.3718262-0.9705811v-1.3167114
			l1.8317261-0.1030884l1.7532959,0.2003174l1.6376343,0.4851074l1.4986572,0.734375l-0.1277466-2.3903809l-0.7337646-1.2494507
			l-0.8191528-1.1220093l-0.5336304-1.8501587l0.1333008-0.8674316l0.7827148-2.6085815l0.1819458-1.0615234l1.019104-2.4751587
			l5.0407104-5.7019043l1.8867188-2.8692017l-2.1655884-0.9220581l-5.7809448,0.0485229l-3.3850098-1.6014404v-1.4556274
			l7.758667-1.4498291l2.6081543-1.8869019l0.9647217-3.8881226l-1.4012451-3.1361694l-6.5756226-6.8788452l-2.3414917-3.536499
			l4.1795044,1.4012451l4.0704956,3.5425415l3.3361816,4.3068848l2.0864868,3.7365112h1.0192871l3.081543-13.2723389
			l0.3093872-5.0406494l-3.4940186,3.1541138l-1.0130615,2.1716919l0.0968628,3.7728882l-1.7528687-1.5042114l-3.7670288-4.052124
			l-4.7072144-2.086731l-0.5397339-2.4203491l1.4193115-1.4014282l5.8597412,3.1547241l0.7643433-2.6387329l-0.2788696-3.803772
			l-1.3167114-7.5762939l0.2972412-2.9421997l1.6865845-2.0805054l3.536499-0.539856l1.2190552,2.3720093l-0.4850464,8.9108276
			l0.1030884,2.1900024l1.4497681,1.0977783l3.7728882,0.3031006l3.0574951-2.2684937l3.9674072-5.1439819l5.8595581-9.5479736
			l3.105835,1.8380127l2.3173828-2.8085938l1.1157837-4.4041138l-0.3455811-3.0995483l-2.5234375-2.4019775l-7.0609131-5.2958374
			l-2.7175293-1.0192871l-6.0963745-0.5823364l-7.3278198-1.7832031l-6.6240845-2.8085938l-4.1732788-3.8397827l2.0380249-1.2494507
			l1.5043945,0.2850952l3.2877808,2.1835938l3.585022,1.6560669l17.1121216,3.6699219l6.3936157,0.0487061l1.6802979-1.4497681
			l-0.6671143-3.9249268l-1.9837646-2.9179688l-4.9438477-5.0768433l-1.0126343-3.0516357l-0.1520386-2.5234375l0.4371338-0.2788696
			l1.3463135-1.1709595l1.3223877-0.6185303l0.9163208,0.9036865l0.5334473,1.8017578l0.1821899,1.8863525l0.3518066,1.8869019
			l0.9705811,1.9349365l1.2493896,1.5043335l1.3043823,0.5823364l2.038208-0.4854736l0.4307251-1.2493896l-0.085144-1.7532959
			l0.4369507-1.8380127l11.4344482-16.9058228l3.0389404-6.6239624l-5.8171387,0.2000122l-4.9863281,2.5054321l-9.3479004,6.4419556
			l1.4014282-3.008728l1.7043457-2.2322998l0.7341919-1.8683472l-1.5043945-2.0380249l-0.2487183,0.4302979l-4.8892212-0.4302979
			l-0.9642944-0.4003296l-1.1226196-0.9647217l-1.0188599-1.2556763l-0.8191528-1.3225708l2.6571655-0.8005371l2.8690186-1.3648682
			l3.0574951-0.3881836l3.2394409,1.9411011l2.9054565,0.7825317l3.0997314-2.038208l4.6888428-4.7557373l-2.0379639-2.4203491
			l-4.0036011-3.8703613l-1.9049072-2.7717896l3.7368164,0.1514893l2.8087769,1.4497681l2.0863647,2.2688599l1.4497681,2.5718384
			l1.7348633,6.9456177l1.1226196,1.0010986l0.9642944-0.734375l0.7886353-1.7713013l3.8701172-12.2653198l0.8190918-4.7434692
			l-0.3339844-4.1673584l-2.3231201-2.5540161l-2.6692505,0.612854l-1.2977295,2.3231201l1.8800659,2.2384033v1.2980957
			l-10.2269897,1.3041992l-3.2879639-0.0847168l6.593811-6.9761353l0.4306641-3.4879761l-4.7921753-3.8397827l-5.03479-1.4013062
			l-2.1412964-1.3041992l-0.6854858-2.6692505l1.1221924-1.2977295l2.1900635,0.394104l2.3655396,1.4012451l1.6497803,1.5407715
			l3.9732666,2.6203613l5.4230347,0.9163208l8.6139526-0.2003174l2.2384033-0.9705811l2.3171997-2.2141113l4.9438477-6.5272827
			l1.8865356-4.8587036l1.6014404-2.6206665l-0.8733521-0.1333008l-2.614624,0.1333008l-3.4396362-3.2390747l-0.921875-0.6672974
			l-9.0626831-1.401062l2.0869141-2.2872925l6.545105-1.7528687l-0.2003784-1.7832642l-3.3363037-2.4692383l-1.0735474-1.8863525
			l1.6558838-1.6560059l2.1171875,0.0545654l1.4194946,1.6014404l1.0010986,2.1352539l0.9824829,1.6012573l2.7598267,1.2014771
			l7.4068604,1.4556274l2.8569336,1.9352417l2.4144287-0.1882324l3.6881714-2.6629639l5.611084-5.7144165l-4.2037354-0.9337769
			l-2.2384033-3.2394409l-0.2792358-3.4881592l1.6984863-1.6497803l0.9647217-0.7338257l0.7218628-1.5349121l1.1161499-1.401062
			l2.2201538-0.2549438l0.0545654,0.7158203l0.6309204,1.7045288l1.1707153,1.8078613l1.5042114,0.994812l8.0739136-6.0904541
			l3.0513916-3.9732666L890.241272,632.8033447z M405.3736877,173.1020508l-3.0085754,4.4541779l-0.7853699,0.4835815
			l-1.1498718,0.2851105l-1.0674438,0.4018707l-0.4339294,0.8158722l-0.148407,1.3208923l-0.3366699,1.5834198l-0.5338135,1.3208771
			l-0.6308594,0.5669861l-1.9868164,0.6339111l-1.6044922,2.8025055l-2.068512,0.583847l-2.4203491,0.4534454l-2.0863342,0.9658203
			l-3.9706116,2.552475l1.3982239,1.9868164l4.9927368-1.5013428l2.5687866,0.9688568l-3.9702148,1.8018036l-4.6071777,4.5084076
			l-2.8027039,5.0211639l1.3013611,3.4881592l-2.1382751,1.1705475l-3.5213318,2.4188385l-1.6529846,0.4852753l-1.7834167-0.670105
			l-1.5529175-1.2677917l-1.7530823-0.6354218l-2.2717285,1.2025909l0.4852905,0.783844l0.7157898,1.937912l-4.1522217,1.4198303
			l-2.523468,0.2320251l-1.1161499-0.9174805l-0.7186279-3.3894043l-3.1547241-5.0410614l-0.7337952-2.4673615l2.1382751-1.9032288
			l4.4556885,1.6666412l3.9700317,0.2365875l0.6339111-6.0614929l3.7245483,1.4543304l3.302948,0.4835815l2.3716431-1.6543274
			l0.9190063-5.0391693l0.6826172-1.5348969l1.4526062-1.0206146l1.0494385-1.1146393l-0.4818726-1.7377319l-0.3855591-0.8674469
			l-0.1332703-1.0357666l0.0333557-2.1172333l-0.4335327-1.5529175l-0.9678955-0.3336334l-1.1525574,0.1336517l-0.9311523-0.336853
			l-1.9712524-3.1012726l-0.2033997-2.0364838l0.6371155-2.7039337l0.4337158-4.9423065l-0.2487183-7.9938965l0.9159851-2.6203461
			l2.6690674-3.7715607l0.148407,4.9394684l2.3234863,1.118988l3.1058044,0.4854736l2.4203796,3.037384l-0.8373108,0.1652985
			l-0.1332703,0.1850128l-2.9025879-0.1850128l-1.8018188,1.2541504l-0.3850098,2.5175934l1.4528198,2.8538818l-3.2424927,0.6187439
			l-0.2456665,2.3371277l1.4497986,1.8365021l2.0383606-0.7690582l3.8701477,1.9352417l4.5584412,0.5366669l4.3040466-0.73703
			l3.1543274-1.7348785l-1.6499634-2.9706573l-1.9382935-1.4861755l-1.5496826-1.7849426l-0.9675293-5.2897797l-0.5853882-1.4526215
			l-0.3821411-1.6016235l0.2489014-1.6393433l1.1521606-1.5997314h1.0162354l0.7823486,1.1675262l0.4338989,1.684845
			l0.1516724,3.389389l0.9190063,2.5706787l1.4527893,1.9864349l1.9348755,1.7532806l2.3234863,1.3330078l3.7850342,0.5002594
			l1.7348938,0.8706665L405.3736877,173.1020508z"/>
	</g>
</g>
</svg>
