<?xml version="1.0" encoding="utf-8"?>
<!-- Generator: Adobe Illustrator 30.2.1, SVG Export Plug-In . SVG Version: 9.03 Build 0)  -->
<svg version="1.2" baseProfile="tiny" id="Layer_1" xmlns="http://www.w3.org/2000/svg" xmlns:xlink="http://www.w3.org/1999/xlink"
	 x="0px" y="0px" viewBox="0 0 1000 1000" overflow="visible" xml:space="preserve">
<path fill="none" stroke="#000000" stroke-miterlimit="10" d="M870.7244263,538.0559082l-1.5890503,1.2106934l-0.6939087,1.0177612
	l-0.6289673,0.829895l-4.2845459,2.9119263l-10.447998,10.9490356l-11.9299316,19.2258301l-1.4455566,3.6373291l0.897522,2.3641968
	l1.1168823-3.2932129l12.5562134-21.1098022l5.6282959-6.2572632l1.8605347-1.3253174l2.2492676-1.1535034l5.0909424-5.4952393
	l2.7268066-1.7327881l2.0953369-3.3867188l-1.4011841,0.5372925L870.7244263,538.0559082z M928.8664551,414.897644
	l-0.6602783-0.6001587l-0.6625977-0.4825439l-1.4351807-0.6316833l-0.7200928-0.5060425l-0.8688965-0.391449l-0.9290771-0.1747437
	l-0.9002075,0.2348633l-0.8141479,0.7123413l0.2167358,0.6001282l0.6599731,0.5792847l0.5715332,0.6600037l0.8037109,1.4038391
	l2.9616699,3.3269043l0.8165283,1.9179688l0.4438477,2.3668518l0.6912231,2.0325928l1.5604248,0.868927l1.8894043-0.1122437
	l0.3312988-0.5715332l0.0339355-1.2862854l0.9263916-2.2832336l-3.5123291-4.4827881l-1.229126-2.0144043L928.8664551,414.897644z
	 M887.0826416,520.421814l-0.5662231,0.3810425l-0.3312988,1.1428223l-0.7751465,0.871582l-0.7513428,0.6784058
	l-0.3313599,0.6418457l-0.6810913,1.7536011l-3.1208496,3.3087769l-0.9889526,1.3672485h0.6290283l1.5601807-2.3588257
	l7.5176392-5.3076782l0.3914185-0.145874l0.3601685-0.0628052l0.3313599-0.1878662l0.3601685-0.4435425l-2.2808228-1.2576904
	L887.0826416,520.421814z M905.9928589,510.2610474l-5.4222412,3.7156982l-2.7556763,1.1010742l-2.3353271-0.6888428
	l-0.9001465,3.2617188l-0.7200928,1.4663696l-1.166626,1.2630615l11.0898438-7.6036987l9.2319946-3.2720947l1.9414673-1.8578186
	l1.6203003-0.9603271l0.6314087-0.6001282l0.5688477-0.8873901l-2.9119263,1.6911316L905.9928589,510.2610474z
	 M896.6486206,339.3147278l0.1747437,1.7952881l0.3914795,1.7664795l2.0980225,0.8063965h4.1696777l1.0123901-0.3521729v-0.868927
	l-0.4122925-1.1118164l-0.3000488-1.2002869l-0.0598755-3.4495239l-0.0339355-0.0809631h-1.7952881l-1.65448-0.0312805
	l-0.6888428,0.806427l-1.2184448,0.028595l-0.5167847-0.835022l-4.6994629-0.0625l0.6810913,1.0436707L896.6486206,339.3147278z
	 M907.9471436,341.8849182l0.7516479,4.2952271l1.4663696,3.0187988l0.3286743,2.1867676l1.4065552,3.0581055l0.3289185,1.683075
	l0.6313477,8.2091675l0.6915283,3.4209595l-0.1854248-0.0339355l-0.3312988,0.1851501l-0.1434937,0.443573l0.3286133,0.6941833
	l1.3753052,1.5264893l2.8494263,5.6387024l1.0540771,4.1306152l1.4351196,3.6793518l1.0439453,3.8097534l-0.414978,3.089325
	v0.866272l0.7463379,2.0641174l0.4827881,2.2832336l0.7123413,2.0144043l1.5081177,1.3098145l1.1975708-0.9288025
	l1.0126953,0.7227783l0.7540283,1.6438293l0.4435425,1.9804688l-2.3954468,0.7462769l-0.866272-0.2086792l-0.8349609-1.3229065
	l-0.3965454,2.17099l0.9915771,1.4872437l1.5601807,0.5766296l1.3125-0.8061523h0.6289673l6.9279785,9.5032043l1.4976196,3.2825317
	l0.2687988,4.4098816l0.6001587,2.2805481l2.2519531,1.3752747l0.1121826,0.9915771l-0.0288086,1.1350403l0.2687988,0.879364
	l0.6914673,0.4435425l1.9831543,0.837677l0.803772,0.474823l-3.0584106-7.3765869l-1.0201416-5.2005005l-15.2543945-29.2901001
	l-4.3654785-12.8878174l-2.9432373-6.1659241l-0.446228-2.0352478l-0.1854248-2.9955444l-0.4459229-2.6094666l-1.5265503-5.0933533
	l-4.1725464-20.6844482v-0.1122131h-1.4324951l-1.375-0.044342l0.052124,0.1565552l-0.052124,0.6914978L907.9471436,341.8849182z
	 M918.4681396,446.4554749l-1.0228271-2.2781372v-0.9026184l2.4293823-0.2453003l2.5180664,0.1042175l0.3911743-0.8504944
	l-0.093811-2.6434021l-0.4539795-1.756012l-1.4038086-2.2492981l-0.2688599-1.177002l0.4436035-1.8813477l0.9001465-1.6723938
	l0.7540894-1.8057556l0.0288086-2.2832031l-0.4200439-0.868927l-1.737854-2.5701904l0.03125-1.6831055l-4.8221436-7.7575989
	l-2.9119263-3.4965515l-3.4497681-2.4397888l-0.052124,1.2290955l-0.2765503,1.1481628l-0.446228,1.0097351l-0.6575928,0.9603271
	h1.2238159l1.1091309,0.2685242l1.0228271,0.5507202l0.9263916,0.887085l-2.0328369,1.0204468l-2.1266479-0.4253845
	l-2.1578979-0.9263916l-2.1293335-0.5376282l0.5688477,1.5577698l0.897522,1.6831055l1.1377563,1.3229065l2.0432739,0.9498901
	l0.3209229,0.848114l-0.2375488,0.8349915l-0.8689575,0.3834229l-0.6287231-0.1747437l-2.4579468-1.3541565l-2.0015869-2.8389893
	l-1.4976807-1.5292053l-0.6628418,0.4253845l-0.7853394,0.8871155l-3.3870239,2.3433228l-0.7436523,1.1062012v15.3145447
	l-0.5036621,4.2035828l-3.6686401,9.8505554h-0.6209717l-0.4827881-0.8977966l-0.2687988-0.7123413l-0.0914307-0.5480347
	l0.0914307-0.3834229l-2.8521118,0.5608521l-2.7868652,0.2140198l-2.3952026-1.0436707l-1.7351685-3.1572571h2.4266968
	l3.2955933,1.2601318l3.0527954,0.6001282l1.7458496-1.86026l-0.6289673-0.383667l-1.0228271-1.4744263l-0.5036621-1.5497437
	l1.0436401-0.7438965l0.5662231-0.6626282l-0.4748535-1.4768372l-0.9602661-1.4978943l-0.866272-0.7828979h0.7203369
	l-1.4770508-0.0806885l-1.6726685-0.3967896l-1.6203003-0.6808472l-1.1663208-0.8456726l-0.7751465-1.3202209h1.197876
	l2.7294312,0.9263611l2.9616089-0.7724609l0.5349731-3.2328491l-1.229126-3.5957031l-2.2674561-1.8971252v-0.868927
	l2.2073364-0.4149475l1.7979736-1.8864441l1.3830566-2.6145325l0.9001465-2.7243652l-1.4404907,0.308075l-3.4780884,1.3125
	l0.8061523-4.3473511l1.1168823-1.1663208l2.2388306,1.2577209l0.1852417-2.0144348l-1.9519653-1.8762512l-2.7866211-1.4062805
	l-2.4266968-0.6001282l-9.7094727,0.7748718l-9.0153198,2.552002l-2.2780762,1.9099731l0.8977661,1.3204651l2.1265869,1.2288818
	l1.3515015,1.5917053l-2.614502-0.1226501l-4.2845459-2.0039978l-2.1894531-0.4251099l-1.1350708,0.487915l-0.866272,0.7748718
	l-0.7462158,0.381012l-0.7201538-0.806427l0.0285645-0.7435913l0.2688599-1.0749512l0.1148682-1.2576904l-0.4122925-1.2604065
	l-3.3269043-1.0228271l-5.3701782,1.1062317l-5.328186,2.1581421l-3.3036499,2.0950928h-0.7462769l-2.6640015-0.7748718
	l-14.0252686-0.0625v-0.9290466l3.5328979-4.9656372l0.6313477-1.779541l-1.5601196-0.2973938l-0.331604-1.0231018
	l0.0654297-1.4664001l-0.2687988-1.4976807l-0.7855225-1.0412598l-0.897522-0.868927l-0.7751465-1.1142273l-0.6314087-3.5304871
	l-1.4324951-2.8544922l-0.3312988-1.3803406l0.0807495-8.2639465l0.425354-2.6091919l0.9576416-2.2207031l1.6726685-2.3665771
	l1.6541748-1.589325l0.5977783-1.0436707l0.2059937-1.6542358l-0.3497925-1.1665649l-1.8262939-2.1266479l-0.6340332-1.4351196
	l2.2438965,0.8349915l1.9519043,1.3568115l0.897583,2.2076111l-0.9291382,3.4495544l-0.7748413,1.1978455l-1.4768066,1.7143555
	l-0.5375977,1.2812195l-1.375,5.6074524l0.539978,3.2929688l2.3641968,5.5970154l1.4378052,6.8392334l2.0742798,2.1867371h2.3328857
	l1.7039185-2.9330444l0.928772,1.0543823l2.8833618,4.5218201l1.229126,0.6185303l1.8890991,0.1277466l3.4679565-0.2687988
	l2.4291382-0.6340637l3.3244629-1.5262451l3.2120361-2.1581726l2.1893921-2.5204773l-1.0543213,0.0625305l-0.3313599-0.0625305
	v-0.9264221l1.654541-0.931427l10.1920166-1.6101379v-0.9314575l-1.8890991-0.4539795l-2.8208008-1.2785339l-2.5806274-1.633667
	l-1.1064453-1.3098145l-0.5061035-0.9838257l-3.6558228-2.0429993l-0.7200928-0.9290466l-0.7775269-1.2916565l-1.3205566-2.9015198
	l1.7667236,1.1976013l1.7950439,1.675354l1.7667236,1.0829468l1.6516113-0.4542542l1.7039185,2.6928406l2.8181152,1.8006592
	l10.6697998,4.7697754l2.4580078,0.5375977l2.5180664-0.477478v-0.7828979l-1.8578491-1.7063293l-3.5331421-5.0049133
	l-1.1663208-1.0776062l-0.9263916-0.3289185l-0.9942627-0.866272l-0.835022-1.1168823l-0.4539795-1.1035461l-0.0339355-1.706604
	l0.6942139,0.1148987l1.5604248,1.5917053l2.8389893,2.2832336l0.9314575,0.3807373l0.6575928,0.6575623l1.7143555,2.8833618
	l3.1703491,1.9414978l0.9942017,0.425354l1.0202026,0.1122437l3.2018433-0.1122437v-0.7751465h-0.6810913v-0.9314575
	l3.6740112-0.3706055l1.1820679-0.412262l2.2388306-1.4038696l0.6287231-0.868927l-1.1350708-0.3938599l-1.1975708-0.6602478
	l-0.9942627-2.9303894l-2.4868164-1.3229065l-1.0436401-1.4976501l-1.6203003-2.9642944l-1.4065552-1.5682068l-2.0144043-1.6726685
	l-2.2677612-1.346405l-2.2828979-0.5766296l-0.3027344-0.6810608l0.508728-1.5083618l0.897522-1.4663696l0.9603271-0.6810913
	l1.3204956,0.352417l-0.0288696,0.8453979l-0.7227783,0.8871155l-0.9002075,0.5507202l5.3701782,1.5759277l1.6229858,0.910614
	l2.0013428,1.7953186l1.7664185,2.098053l0.8376465,0.6287231l1.8605347,0.519165l0.8141479,0.6471558l2.4579468,3.8123779
	l1.7352295,1.7977295l2.0953369,0.7438965l2.0980835,0.3104858l7.1964722,2.2701111v-0.868927l-1.4952393-0.5974731
	l-1.447937-1.0516968l-2.6017456-2.604126l1.3125-0.785553l-0.1461792-1.9411926l-0.7227783-2.3954468l-0.8373413-4.7099304
	l-0.9603882-1.0725403l-1.1376953-0.8793335l-0.897522-1.9099426l1.9750977,0.1461487l1.5265503,0.866272l2.7371826,2.3954163
	l-1.3827515,2.3770142l0.534668,1.0725403l1.4692993,0.6602478l1.4428711,1.0541077l0.3313599,0.8037415l0.0836182,1.800354
	l0.2164307,0.803772l0.5688477,0.6602478l2.2728271,1.8917542l1.229126,2.0352783l0.5974121,1.4038391l0.2479858,1.2577209
	l-0.2479858,0.9915771l-0.4435425,1.0228271l-0.1878052,1.1038208l0.5164795,1.2002563l2.572876,3.6531372l1.71698,1.9230347
	l1.7012939,0.8688965l1.8890991-0.7462463l-0.4748535-2.2207031l-1.3829956-2.7553406l-0.8061523-2.4267273l-0.4226685-1.9101868
	l-5.4538574-14.5418091l-0.3625488-1.5917053l-0.7227783-1.9804688l-3.2929688-5.0936279l-0.8977661-1.9518738l0.5375977-5.740509
	l-0.2060547-3.3661804l-1.291626,0.0627747l-0.8063965,2.5178223l-0.6287231,1.4666748l-0.3601685-0.0809631l0.2139893,1.2785339
	l0.3807983,0.9942627l0.6289673,0.9263611l0.9028931,1.0749512l-2.0980835-1.4351501l-2.5517578-3.2643433l-1.229126-3.0241699
	l1.7769165-0.9082031l-2.189209-1.427124l-2.2206421-2.1057739l-1.7325439-2.4764099l-0.8400879-2.585968l0.020874-2.0013123
	l0.6000977-2.4082642V336.79422l-0.0496826-0.2687988c-23.6278687-0.2492981-47.2581787-0.4539795-70.8861084-0.6602478
	c-23.6356201-0.2046814-47.2686157-0.4828186-70.9042358-0.6914978s-47.2713013-0.487915-70.9069214-0.6835022
	c-23.6356812-0.194519-47.2713013-0.4828186-70.9069214-0.6915283c-23.6332397-0.2089233-47.2662354-0.4868164-70.9018555-0.6914978
	c-23.6356812-0.2049561-47.2713013-0.4892578-70.9069519-0.6810913c-23.6342773-0.191864-47.2686157-0.4828186-70.9042664-0.6914978
	c-23.6292114-0.2087097-47.2571106-0.4996643-70.8860779-0.6915283c-0.7633972-0.0064087-1.527832-0.020874-2.2909851-0.03125
	l-0.6914978-0.2087097l-0.362854-0.3601685l-0.6810913-1.3830261l-4.8010254,7.9090881l-0.8977966,2.562439l0.1514893,0.5974731
	l1.4664001,3.0556946l0.03125,1.1377258l-1.6203003,4.6054382l-2.6329651,5.276123l-0.3625793,1.1663208l-0.0628052,0.868927
	l0.1750183,0.5480347l1.0880432,2.1578979l1.3699341,1.9438782l0.2792053,0.5742188l0.1747437,0.6626587l-0.2035828,0.352417
	l-0.487915,0.093811l-3.1363831-0.4253845l-5.3725891-1.7950439h-0.5063477l-0.5140686,0.2059937l-7.848999,5.3076477
	l-2.7892761,2.272522l-0.414978,0.5769043l-10.2208862,19.2909851l-0.8037415,1.0540771l-1.0255127,0.9082336l-0.9600525,0.4747925
	l-1.6387329,1.4664001l-0.9942322,0.6289978l-0.8662415,0.381012l-0.7254639,0.0443726l-0.8037415-0.1253357l-1.5289307-0.422699
	l-0.6629028-0.3209229l-0.5661926-0.3706055l-0.4539795-0.381012l-0.391449-0.487915l-0.1774292-0.5349121l-0.1539001-0.6314087
	l-0.0809631-0.5977173l-0.1279907-0.6001282l-0.2033386-0.5661926l-0.3315735-0.3941345l-0.4227295-0.3286438l-0.5688477-0.2399597
	l-0.6001282-0.1122131l-1.4038696-0.0628052l-0.6600037-0.1226196l-0.5688477-0.2687988l-0.9576416-0.7251892l-0.5376282-0.1750183
	h-0.3938293l-0.5375977,0.0940552l-1.1455078,0.5375977l-3.1390381,2.2701416l-0.5688782,0.2476807l-2.1554871-0.0625305
	l-0.8504944,0.0836487l-2.5389404,1.2627869l-3.6034393,0.9915466l-0.9498901,0.3887939l-1.6545105,0.868927l-1.7950439,1.3857117
	l-3.5409241,3.7156677l-1.0439453,1.4247131l-1.3229065,2.9434509l-0.4435425,0.8139038l-1.8578339,2.4189453l-0.7567139,0.8168335
	l-0.6602478,0.5661926l-0.4435577,0.3000488l-0.4852295,0.2399597l-4.6682434,2.9303589l-0.897522,0.4253845l-0.6316528,0.1226501
	h-0.6915131l-0.6599731-0.1747437l-0.6001434-0.331604l-0.5063324-0.3730164l-0.391449-0.4723816l-0.3599243-0.4775085
	l-0.3027344-0.537323l-0.5661926-1.620575l-0.0913849-0.7200928l0.0625305-0.7123718l0.1515045-0.9707336l0.6287079-1.5315857
	l0.1461639-0.5375977v-0.391449l-0.1461639-0.349762l-1.683075-2.3769836l-0.4200287-0.4122925l-0.7463074-0.1434937
	l-0.9603119,0.2059937l-4.8819885,2.4243164l-2.4266968,0.9025879l-6.9514618,3.7993164l-0.1565857,0.1514893l-0.2033386,0.3626099
	l-0.1565704,0.477478l0.0625153,1.7953186l-0.1747437,0.5792542l-0.3027344,0.5376282l-1.1951904,1.3410645l-0.4878998,1.0541077
	l-0.234848,0.723053l-0.6001587,0.928772l-0.5974579,0.4122925l-0.6602478,0.0913696l-0.5375977-0.1747437l-1.0540924-0.9082336
	l-1.4378052-1.0097046l-1.2889709-0.5792847l-0.8662567-0.2062988h-1.0752106l-1.5604553,0.308075l-0.8138885,0.3834534
	l-0.6003876,0.5036621l-0.3313293,0.5375977l-0.2687836,0.5504456l-0.2033539,0.6888428l-0.1226349,0.6837463l-0.0339508,0.6915283
	l0.1250458,0.6602478l0.1541748,0.5974426l0.8662872,2.0352478v0.6289978l-0.2453156,0.7567139l-1.1689911,1.4637146
	l-0.3289185,0.5715332l-0.2086945,1.2577209l-0.1747437,0.6287231l-0.5480042,1.1168823l-2.5076904,3.7704468l-2.6145172,3.0556946
	l-0.8037567,0.5375977l-0.6287231,0.1747437l-1.4690552-0.381012l-4.2246704-0.3938599l-1.2053528-0.328949h-0.5376129
	l-0.5688629,0.2167358l-5.307373,2.7449341l-3.5331726,1.0541077l-0.8037415,0.3601685l-0.6313934,0.4253845l-2.4868164,2.4788208
	l-1.0228424,0.6394043l-2.5520172,0.9496155l-0.7722168,0.4253845l-0.6001282,0.4435425l-0.3315887,0.4542542l-2.1552277,2.1266174
	l-2.0980377,2.8729248l-0.6626587,0.3078308l-0.7724762,0.0208435l-0.7567139-0.1774292l-0.897522-0.028595l-1.0436859,0.1851807
	l-0.9082031,0.477478l-1.4949799,1.3803406l-1.1091461,1.2210999l-1.3514862,1.0829773l-5.4824066,2.3353271l-0.897522,0.6105347
	l-0.6629181,0.5950623l-1.0410004,1.2526245l-2.2832031,2.1864929l-0.7123718,0.5480347l-0.6289673,0.3208923l-6.682663,1.3517761
	l-0.7227859-0.0601196l-0.6915131-0.2086792l-0.5373383-0.360199l-0.4774857-0.4253845l-0.4203033-0.4096069l-0.7540359-0.2503662
	l-0.9811554-0.0628052l-1.9855576,0.6445007l-1.1326599,0.1750183l-0.9314499,0.028595l-0.6001205-0.1461792l-0.6575928-0.1226501
	l-0.6629181,0.0208435l-0.6599808,0.1565857l-0.9811554,0.3315735l-0.3601837,0.0911255h-0.3938522l-3.5932999-0.3104858
	l-0.6626511,0.0419617l-2.0641174,0.5033875l-1.9844894,0.7567139l-2.3951569,1.4639893l-1.5903854,1.2627869l-0.990509,0.5557861
	l-0.8349915,0.3706055l-3.2341843,0.6629028l-1.6830826,0.5974731l-0.8675995,0.5063477l-0.6300583,0.537323l-1.6427231,3.3557739
	l-0.4839096,0.6286926l-0.8050766,0.8689575l-0.6928482,0.4253845l-4.2546005,1.4978943l-0.8975296,0.506073l-0.7553787,0.5950317
	l-2.3027191,2.4919434l-0.3315964,0.5661926l-0.2046738,0.4747925l-0.09272,0.487915v0.4438171l0.4435501,1.6280518
	l0.0627975,0.6212463l-0.1162338,0.7251587l-0.185173,0.6289978l-0.2976532,0.6001282l-1.7664566,2.5493469l-0.3013992,0.5974731
	l-0.4213791,1.260376l-0.1448212,0.6810913l-0.1565781,3.9582825l-0.4734726,1.0231018l-0.8376694,1.1323853l-1.9818192,1.9858398
	l-0.990242,0.8034668l-0.7123489,0.4750671l-0.3941116,0.0625305l-2.6014633-0.0208435l-5.4639587,0.6209717l-1.4677238-0.0208435
	l-0.6915092-0.1253052l-0.4737473-0.2477112l-0.4748116-0.352417l-0.7855644-0.8037415l-0.6287231-0.2503662l-0.8376694-0.0181885
	l-1.5903702,0.4956665l-0.8064041,0.433136l-0.6287231,0.4959106l-1.7966461,1.7456055l-1.1989212,1.4351501l-0.5987968,1.1794128
	l-0.2166824,0.5349426l-0.1747627,0.9536133c-0.8494263,9.1066895-1.6608963,18.21875-2.4579659,27.3305054
	c23.0862846-0.2661743,46.1701698-0.6495972,69.2564392-0.9314575c18.4704056-0.2244873,36.9435043-0.3861084,55.4112473-0.7489624
	l29.6997223-9.8842773l3.2617035-0.7096558l0.4253998,1.0437012l0.3914337,0.4435425l0.7462769,0.2661133l0.5349579-0.114624
	l0.8975067-0.4438477l1.1168823-0.7825928l2.3954468-1.2943115l1.1038055-0.803772l0.725174-0.7200928l0.4203033-1.4142456
	l0.3235779-0.6837769l0.6915131-0.5373535l0.8349915-0.0628052l1.2080078,0.0836792l0.7775574-0.1149292l0.9603119-0.3601685
	l3.3557739-1.7637939l5.2159729-1.706604l0.7409515-0.1253052l3.6558228-0.0625305l0.7540283-0.1774292l0.5376282-0.2765503
	l0.4852142-0.4959106l0.7724762-0.6992493l0.6629181-0.2712402l3.6555481-0.0210876l0.7751617-0.2661438l0.5453491-0.5164795
	l0.537323-1.8265686l0.5063477-0.6941833l0.6602478-0.6209717l1.4976501-0.9902344l0.7254486-0.2661438l0.6888428,0.0574341
	l0.3521729,0.3521729l0.3315887,0.3927917l0.4539795,0.7254333l0.2375336,0.2869873l0.3911743,0.2661133l0.414978,0.1565857
	l7.6715546-0.7096863c2.7462769,0.1434937,5.4965515,0.2530518,8.2404175,0.4435425l2.7580261,0.1095581
	c23.2065125,1.3464355,46.4298706,2.4788208,69.6465454,3.6296387c14.1872253,0.7019348,28.3717651,1.4690857,42.5563049,2.2153625
	l1.291626,0.2503662l0.8349915,0.3289185l0.4253845,0.391449l0.3938904,0.4486389l0.2976379,0.4854736l0.2059937,0.4956665
	l0.1461792,0.6105347l0.0285645,0.6471558l-0.049408,0.6629639l-0.2191162,0.6417847l-1.1665955,2.3483887l-0.1461487,0.5167847
	l-0.091095,0.4539795l-0.0312805,0.5114136l0.0937805,0.5322876l0.1461487,0.6000977l0.360199,0.6001587l0.3625793,0.5479736
	l0.6915283,0.5584717l0.5375977,0.041687l0.5661926-0.1878662l8.3839111-6.0327759l0.6939087-0.3810425l0.4542542,0.0628052
	l0.3313293,0.1774292l0.3313293,0.3911743c4.526062,6.02771,9.0714111,12.0397339,13.6314392,18.0412598l0.3598938,0.7567139
	l0.0628052,0.803772l-0.3941345,12.7336426l0.0339355,0.8349609l0.2036133,0.7828979l0.6314087,0.6314087l0.7748718,0.2348633
	l4.0159912,0.083374l1.1454773,0.0469971c23.0916443,0.414978,46.1765747,1.0725708,69.2668762,1.5527344
	c9.8452454,0.2036133,19.6891174,0.4435425,29.5340881,0.6340332l1.1141968,0.052124l3.7993164,0.0628052l3.0895996,0.5634766
	l2.0144043,0.6942139c16.5928345,16.9008789,33.118042,33.8669434,49.703064,50.7755737
	c16.2224731,16.5407104,32.4398804,33.0841064,48.732605,49.5545044c3.7523193,3.7940063,7.4995117,7.5932617,11.2437744,11.3977051
	l2.8208008-0.845459v0.7409668l-0.4827881,0.4542236l-0.9002075,1.2940063l8.9345703-3.3292847l6.3799438-1.7014771
	l2.3665771-1.4664307l1.0201416-3.4912109h0.7751465l0.5480347,2.2856445l-0.0601196,0.9865112l-0.487915,0.897522
	l3.418335,0.850708l8.2115479-1.8369751l2.609436,0.5322876l1.312561,0.6417847l5.6100464-0.1878052l1.9519043,0.2086792
	l9.1380005,2.583252l1.7351685,0.2036133l1.4639282-0.5061035l0.9026489-0.9915771l3.7471924-5.8449707l1.9203491-4.4881592
	l0.3914185-1.6125488l-0.1226196-4.2064819l0.2062988-2.0090942l0.6626587-1.706604l-1.0437012-2.9327393l-1.0829468-8.7259521
	l0.0288696-3.4078369h0.6287231l1.5916748,5.2971802l1.9414673,4.7647095l-0.8063965,3.507019l0.8349609,9.6231689
	l-1.4636841,3.5957031v0.7412109l0.3626099,0.934082l-0.1566162,1.0803223l-0.8349609,2.2439575l3.1470337-3.3870239
	l1.8289795-6.5597534l1.8894043-13.4540405l0.7435913-1.9414673l2.2832031-4.5036011l1.1976318-3.8931274l1.6437988-1.8577881
	l3.2095947-2.9434814l5.5449219-8.5119019l6.2885132-7.3688354l13.456665-11.3244629l8.1279297-4.4985352l5.2475586-1.5291748
	l1.6387329-0.6001587l0.902832-0.5688477l-0.3027344-0.3810425l-0.5375977-0.4331055v-0.824585l1.2005615-1.2993774
	l-0.7751465-1.3464355l-1.7769165-1.1115723l-1.8265381-0.4176025l-0.8063965-0.5635376l-1.0827026-1.2630615l-0.9317017-1.3725586
	l-0.3521729-0.991333l0.477478-1.0751953l0.9915771-0.6001587l0.9263306-0.0991211l0.446228,0.5114136l0.8165894,0.2714844
	l1.7039185-0.3914185l1.4640503-1.4717407l0.1564941-3.0217896l-0.5664062-1.6384277l-1.0252686-1.685791l-1.2576904-0.866272
	l-1.291687,0.7514038l-0.6497803-2.0457153l-0.7567139-6.4085083l1.1064453,1.6384888l1.1166382,0.2664185l1.0412598-0.2664185
	l0.9002075,0.0419312l1.2889404,0.928772l0.6942139,0.9812012l-0.3000488,0.6941528l-1.6831055,0.062561v0.7412109
	l1.6515503,1.3201904l3.8621216,4.9475098l0.7227783,1.3723145l-1.0204468,2.2858887l-4.4331055,3.4129028l-1.4639893,1.7694092
	l3.6242676,0.866272l0.5375977,0.4852295l0.3602295,0.1148682l2.0638428,1.9519043l1.8580933-0.3601685l2.5231323-1.748291
	l1.229126-0.3810425l2.8179321-1.5916748l5.265686-6.9303589l3.0583496-1.5449219l0.4539795-0.4539795l-0.897522-2.1918335
	l0.0806885-0.803772l0.8793335-0.1253052l0.6289673,0.6942139l0.5662231,0.8349609l0.6626587,0.3706055l1.1377563-0.6629028
	l0.9263306-1.3202515l0.6001587-1.8578491l0.1461792-2.1292725l-0.4436035-0.5739746l-0.7254028-2.1292725l0.03125-1.8161621
	l1.8265991,0.3286743v0.4750366l0.6340942,2.8703003l2.2179565,3.3661499l-1.7456055,1.3151245v1.3723755l0.9603271,0.7620239
	l1.1139526-0.4539795l0.9525757-0.6629028l14.6619873-4.37323l3.2956543-2.1501465l19.6824341,1.6699829l-0.6001587-1.5551147
	l-2.2099609-3.4810791l-0.7802734,0.7203979l-0.8376465,0.5060425l-0.9290771,0.3027344l-1.6229248,0.0940552l1.4979248-2.1346436
	l2.1891479-1.8578491l2.5205078-1.3098145l2.489502-0.5167236l1.4351196,1.2317505l0.4226685,2.8181763l0.1747437,3.2301636
	l0.7227783,2.4320679l2.541626,1.5238037l1.0829468-2.6615601l0.6602783-10.463501l0.8374023,0.2818604l1.4351196,2.0822754
	l2.2207031,1.9882812l-1.7039795,1.7324829l0.4748535,1.8894043l1.7667236,1.5550537l2.1578979,0.7463379l2.2519531,0.0625
	l1.0124512-0.2920532l0.9078979-0.6575928l0.5063477-1.0228271l-0.1854248-0.8769531l-0.3209229-0.7409058v-0.6629639
	l0.6837769-0.9915771l0.7200928-0.5581665l0.7227783-0.4331055l0.7123413-0.5376587l3.3870239-4.2794189l1.6229858-1.4613037
	l0.6000977-0.7043457l0.6289673-1.2002563l0.2688599-1.1535034l0.0598145-2.1082153l0.3652954-0.9290771h0.6289673
	l0.1122437,0.6942139l0.4539185,1.1636353l0.1748047,0.6629639l3.9871216-1.7953491l0.866272-0.7254639l1.0856323-2.0039673
	l-0.2167358-1.0228271l-0.6522217-0.7724609l-0.2166748-1.2368774l0.6000977-1.9152832l0.835022-0.1720581l1.1793823,0.4435425
	l1.6101685-0.052124l1.1481323-0.7254639l1.4351807-1.9518433l0.9602661-0.6889038v-0.9290161l-2.3954468-1.4976807
	l-1.3516846-2.2388306l-1.5604858-2.0718384l-3.1521606-0.9237671l0.814209,1.8578491l1.706543,2.5990601l0.3289185,1.9203491
	l-0.9915771,0.2923584l-2.1763306,0.1565552l-2.1605835,0.7513428l-0.9888916,2.1867676l-0.9002075-0.2453003l-4.4411011,1.4038696
	l-1.6414185,0.1044922l-0.5688477-0.3289185l-0.5140991-0.4539795l-0.2685547-0.7254639l0.031311-1.0123901l0.4721069-1.2576904
	l0.6629028-0.2086792l0.7853394,0.083313l2.6303101-1.4089355l0.539978-0.6888428l-0.5686035-1.1430664l-1.8292236-2.572876
	l0.1253052-1.1062012l0.5061035-1.9518433l0.1226196-1.2002563l-0.2164307-0.4436035l-0.9472046-1.5238037l-0.2193604-0.5480347
	l-0.503418-0.2402344l-1.1716919,1.675354l-1.1951904,2.3118286l-0.6626587,1.71698l-0.0288086,1.4875488l0.0913696,1.6804199
	l-0.062561,1.7950439l-0.6289673,1.769104l-1.385437-2.0665283l-1.5264893-0.9603271l-1.5578003-0.2661133h-1.4666138
	l-2.0665283,0.7516479l0.2059937,1.7324829l2.1894531,3.418335l0.5375977,2.4005127l-1.5812988-0.5739746l-2.3745728-1.6699829
	l-1.7664795-0.9915771l-0.1122437-0.4852295l-0.5453491-1.0856323l-0.809021-1.1532593l-0.9577026-0.7254028l-1.2002563-0.0940552
	l-1.0725098,0.3914185l-1.9516602,1.3776855l-1.7667236,1.65448l-1.7167358,1.9778442l-1.7640381,1.644043l-2.7241211,1.0228271
	l-0.9942017,1.2157593l-0.7409668,0.2194214l-0.4881592-0.3027344l-0.4122925-0.5950928l-0.4852295-0.8453979l-3.5332031-2.5413208
	l-4.913269-1.5604858l-4.5845947-0.8349609l-4.1725464-1.9257202l-3.6582642-4.9370117l-2.3302002-5.2240601l-1.6256714-2.3013916
	l-2.0013428-0.9915771l-0.1747437-1.2889404l-4.31604-7.1235352l3.6531372,1.6491394l4.7620239,6.8887024l3.7498779,1.5812378
	l1.3410645,0.7828979l4.5637817,5.1037598l2.8103638,2.3013916l3.512085,1.9989624l3.1705933,0.6367188l4.4098511-0.2402344
	l3.8931274-1.4142456l1.6830444-2.8128052l2.2177734-1.711731l4.4934692-2.567749l3.5957031-2.677063l-0.5402832-2.0040283
	l3.1521606-1.1689453l2.1790161-2.3433838l0.5765991-3.1051025l-1.6830444-3.5120544l-1.4351807,0.8974915v0.7828979
	l0.4436035,0.2712097l0.487915,0.4122925l0.5036621,0.2506409l-1.6205444,0.897522l-1.1062012-0.3340149l-0.9916382-0.8349915
	l-1.1951904-0.6626587l-4.2583618-0.308075l-1.3516846-0.474823l1.1481323-1.263031l1.5604248-0.7722168l1.6726685-0.3601685
	l1.5577393-0.1253357l0.7540894-0.412262l0.897522-0.9341431l1.2290649-0.8609314l1.7039795-0.3027344l2.7892456,1.1636658
	l1.4038696,0.2402039l0.5977173-1.0437012l-0.5375977-1.1131287l-1.229126-0.8374023l-2.3953857-1.1037903v-0.7855835
	l5.0623169,1.1377563l2.3145142,0.0392761l0.9263306-1.5892944l0.3313599-1.2889709l1.0150757-2.1421509l-0.2402344-0.824585
	l-1.5288696-1.7744446l-0.6602173-1.1663513l-0.2974243-1.2943115l-2.4293823-0.2035828l-9.2007446-3.0581055l-8.3526611-1.9414673
	l-6.4135742-3.7808838l-6.0852051-1.5264893l-1.5264893-0.962738l-3.1206055-2.458252l-4.1726074-2.4865417l-4.1618652-1.0543518
	l-3.1807861,1.7744751l-0.866272-3.8591614l-0.9915771-1.5318604l-1.9699707-0.6078796l-1.166626-0.6289978l-1.0541382-1.5289001
	l-1.6152344-3.7811279l3.8359985,3.3087158l2.0325317,1.3204956l4.5533447,1.1350708l4.8638306,2.7893066l2.8416748,0.8376465
	l5.2162476,0.6888428l2.0352783,1.0151062l2.1030884,2.1266174l2.3013916,1.1115723l5.4874878-1.4429016l2.9616699,0.7540588
	l0.487854-0.7540588l0.6290283-0.4750671l0.7722168-0.3000793l0.9317017-0.1773987l-0.2688599,2.8103943l2.1552734,1.9230347
	l2.93573,0.5974426l2.1290283-1.1062012l-0.3861084-0.8977966l-0.5662231-0.6914978l-0.8141479-0.506073l-1.0150757-0.422699
	l0.3209229-0.5349426l0.2166748-0.446228l0.2688599-0.394104l0.5688477-0.3313293v-0.7513733l-0.6629639-0.4438171
	l-0.6575928-0.5792847l-1.4351196-1.6723938l0.3602295-0.6316833l1.0201416-2.6928101l-0.6287231-1.1794128l-0.8480835-1.0722961
	l-1.1323853-0.8063965l-1.5604248-0.4253845l4.2243652-2.6928406l2.1266479-0.897522l2.7268066,0.2164307l4.7075195,1.2812195
	l2.3117676,0.0836487l2.635376-0.5402832l-1.5288696,3.4287109l-1.7039185,0.868927l-5.1013794-0.8165588l-2.604126,0.5661926
	l-0.4539795,1.4062805l1.0853882,1.683075l1.9727173,1.4351196v0.7855835l-1.5291748,1.260376l1.4142456,1.3229065
	l4.2872314,1.7039185l-0.394104,0.7748718l-0.2973633,0.4828491l-0.4852905,0.2687988l-0.9002075,0.1747437l1.2628174,2.0691833
	l1.3803101,1.1951904l3.5957031,1.808136l-0.3312988-0.8766785l-0.4435425-0.7463074l-0.6105347-0.5661926l-0.7124023-0.4253845
	l0.7749023-1.1663208l1.0540771-0.5063477l1.166626,0.1461792l1.1663208,0.7516174l2.2230835-4.2246704l-0.8376465-2.3326721
	l1.0725098-0.9290466l1.6229858,0.5974731l0.835022,2.2754517l0.1565552,4.0133362l0.414978,2.0692139l0.897522,1.0201416v0.9002075
	h-4.1619263l0.4435425,1.3100891l0.5977173,0.2476807l0.7540894-0.1226501l0.897522,0.331604l1.4690552,1.1323853
	l0.6289673,1.2627869l1.6542358-0.7853088l0.4724121-1.735199l-0.3313599-1.7666931l-0.7412109-0.7749023l-0.0625-0.9079285
	l0.0285645-1.7354736l0.8064575-1.0124207l2.3144531,1.1665955l0.835022,1.2916565l1.4064941,3.2328491l3.086731,2.0953674
	l1.1665649,0.2687988l0.5164795-1.3413391l0.3313599-1.322937l0.6784058-0.4721069l0.7254639,0.2348633l1.0856323,2.3013916
	l1.7952881,0.5375977l6.8574219,0.2191162l0.8138428-0.6629333l1.2839355-1.6828003l1.1766968-0.835022l3.9219971-1.249939
	l1.4690552-0.1253357v-0.7852783l-1.1166382-1.7953186l0.5164795-2.7868958l1.5291748-1.766449l1.9179688,1.260376
	l-0.7515869,0.866272l0.9915161,0.7721863l0.6602783-0.1408081l0.3495483-0.9915771l0.1279297-1.735199l0.5009766-0.9627075
	l0.9940186-0.8665161l0.5664673-1.1038208l-0.7412109-1.7456055l2.5701904-0.897522l0.6316528-0.4149475l0.5974731-0.9288025
	l0.03125-0.6420593l-0.2974243-0.5974731l-0.0940552-0.7436218l-0.2687988-0.8063965l0.1541748-0.7227783l1.8917847-0.3601685
	l0.472168-0.2685547l5.8163452-6.0539246l0.2687988-1.1949158l-0.0940552-1.9519043l0.1226807-2.1891479l0.8063965-1.9233093
	l0.8478394,2.8312378l1.1665649,2.3954468l1.7352295,1.0436707l2.4868164-1.0853577l0.2399292,0.3911743l0.1851807,0.3941345
	l0.1121826,0.422699l0.0940552,0.5063477l-0.7227173,0.1461487l-1.3413696,0.6001282v0.9261169l3.1182251-0.0208435
	l1.3413086-0.2661133l1.1350708-0.6391602l0.1851807-0.7778015l-0.1226196-1.1062012l0.0940552-0.9889221l0.9260864-0.4149475
	l0.9028931-0.1851807l0.6289673-0.412262l0.4435425-0.5480347l1.4455566-2.6121521l-0.1565552-1.2812195L918.4681396,446.4554749z
	 M694.4747314,665.7009888l-0.9811401-1.0540771l-1.5578003-0.1461792l-1.5315552,0.9028931l-0.7853394,1.9673462
	l0.5817261,1.2419434l1.4666748,0.803772l1.6723633,0.6316528l1.1350708,0.7096558l0.7855835-1.0698242l2.0665283-7.3167114
	l-2.1605835,2.7294312L694.4747314,665.7009888z M707.2503052,631.930481l-1.260376,2.9330444l-0.7539673,3.5332031
	l-1.0437012,3.1155396l1.4375-1.4979248l1.4351196-2.8753662l2.0432739-5.7249756l0.2687988-0.1253052h0.2687988
	l0.1747437-0.1149292l-0.0285645-0.6000977L707.2503052,631.930481z M949.7807007,452.4805603l-1.8894043-6.4451599
	c-0.1643066-1.7600098-0.3363647-3.52005-0.508728-5.2787476l-0.803772-3.2932434l-1.322876-2.9640503l-1.7640381-1.65448
	l-0.9314575,0.6289978l0.6314087,2.3665771l1.7327881,4.2351074l0.1851196,2.4136047l2.572876,9.1119995l0.6289673,5.1326599
	l0.0964966,2.9327698l-0.3027344,1.3517761l-1.4143066,2.7553406l-0.3601685,1.4038696l0.0288696,1.4404907l0.5164795,2.3954163
	l0.1461792,1.3515015l-0.2373047,2.7556152l-0.9915771,4.5036621l-0.4435425,4.6682434l-1.229126,6.092926l-0.6289673,1.5265198
	l0.0628052,3.7704163l-2.7371826,2.1891785l-7.0348511,2.5520325l-6.3617554,3.3242188l-0.4435425,0.0627747l-0.1565552-0.3313293
	l-0.0809937-0.4542236l-0.3000488-0.2059937l-0.5453491,0.2348633l-0.2086792,0.5712585l-0.0601196,0.6004028l-0.1461792,0.3598938
	l-0.4539795,0.5036926l-0.2687988,0.6014709l-0.4435425,0.474823l-0.9888916,0.1044617l-0.9028931,0.5375977l-0.897522,0.866272
	l-0.2479248,0.7722168l1.0228271,0.3601685l0.8349609-0.2661438l1.3857422-1.1168823l0.5688477-0.2244568l1.6203003-0.4382019
	l3.8305664-1.7939758l2.1605835-0.3810425l3.8591309-1.7664185l3.2146606,0.1434937l0.9915771-0.1434937l1.8867188-1.3204956
	l0.9838257-2.0064087l2.5178833-9.4382629l2.0354614-20.9008789l1.9230347-9.6469421L949.7807007,452.4805603z
	 M754.960083,588.2915039l-4.0159912,2.3380127l-1.8289795,0.5375977l-1.8292236,0.4906006l-13.0938721,8.6211548
	l-3.6558228,3.6531372l-1.9515991,4.0496826l1.6411133-1.8578491l10.4950562-9.3258057l1.4140625-0.6000977l3.3244629-0.824585
	l8.2716675-4.4411011l2.635376-2.2805786l0.2974243-0.1565552l0.300354,0.041687l0.2059937-0.1565552l-0.052063-0.6263428
	L754.960083,588.2915039z M839.4044189,572.3432007l-1.260376-1.3726196l-1.0751953-0.840332l-6.9801025-2.5154419h-2.0950928
	v0.845459l1.1663208,0.7724609l5.1222534,1.831665l3.7183228,2.8077393l0.4435425,0.4539185l1.4455566-0.6626587
	L839.4044189,572.3432007z M803.3533325,566.7747192l-15.9459229,2.8857422l-2.8103638,1.1535645l-1.7769165,1.9203491
	l27.6386108-6.5234375l2.604126-0.2711792l12.2248535,0.8349609v-0.8349609l-5.2971802-1.5291748L803.3533325,566.7747192z"/>
</svg>
