<?xml version="1.0" encoding="utf-8"?>
<!-- Generator: Adobe Illustrator 30.2.1, SVG Export Plug-In . SVG Version: 9.03 Build 0)  -->
<svg version="1.2" baseProfile="tiny" id="Layer_1" xmlns="http://www.w3.org/2000/svg" xmlns:xlink="http://www.w3.org/1999/xlink"
	 x="0px" y="0px" viewBox="0 0 1000 1000" overflow="visible" xml:space="preserve">
<g>
	<polygon fill="none" stroke="#010101" points="806.0977173,628.7741699 803.210083,630.7243042 801.3135376,633.9420166 
		800.3731689,638.0056152 800.3132935,642.2807007 801.7513428,642.2807007 805.3743286,633.4452515 805.6005859,630.1108398 
		806.3150635,629.7684937 806.600647,629.4231567 806.4819336,629.116333 	"/>
	<path fill="none" stroke="#010101" d="M948.2723999,449.5661011l-1.4442139-0.9020386l-1.7770386-0.3243103v-1.5124817
		l5.0608521-1.5301514c-18.784729-19.0839233-37.5873413-38.1499939-56.3900757-57.2128601
		c-18.4212036-18.6730957-36.7745972-37.4118652-55.1422119-56.1355591
		c-19.4606934-19.8400879-38.8824463-39.7188416-58.3372192-59.5661621
		c-11.2230225-11.449646-22.4047241-22.9376221-33.6307373-34.3826141l-3.7420654-1.2862396l-5.7249146-1.0506744
		l-7.0462646-0.1161041l-2.0747681-0.0939636c-26.477478-0.5194855-52.9576416-1.1225128-79.4319458-1.7312927
		c-27.164917-0.6262817-54.3300171-1.4079285-81.4979248-1.8825684c-7.460083-0.1296844-14.9174194-0.3083038-22.3777466-0.4482269
		l-2.1227417-0.0818634l-7.4512329-0.1503448l-1.4436035-0.4389191l-1.1673584-1.1716156l-0.3868408-1.4570465l-0.0476074-1.5511932
		l0.7174683-23.6252899l-0.1071777-1.4946289l-0.6726074-1.3962097
		c-8.4580078-11.1351929-16.8917847-22.2916107-25.2926025-33.4712677l-0.6132507-0.7325287l-0.6134644-0.3213196
		l-0.8452759-0.1177826l-1.2769165,0.7070312l-15.5606689,11.1919556l-1.0570068,0.3453217l-1.0000916-0.074234
		l-1.2830811-1.0389709l-0.6610718-1.0155182l-0.6726074-1.1102295l-0.2681274-1.1089172l-0.1754456-0.9987793l0.0593567-0.9390564
		l0.1756287-0.8411713l0.2591858-0.9598999l2.1670532-4.3690796l0.3991089-1.186142l0.1038208-1.2250214l-0.0625-1.2071686
		l-0.2679443-1.1299438l-0.383667-0.9211884l-0.553894-0.9003601l-0.7323303-0.8220062l-0.7801514-0.7306671l-1.5510254-0.6117706
		l-2.4020386-0.462738c-26.3049316-1.3857727-52.6078491-2.8044891-78.916687-4.1098938
		c-27.6295166-1.3709106-55.2573547-2.8296204-82.8822327-4.2840576
		c-17.1576233-0.9020233-34.3200684-1.9556885-51.485321-2.6597443c-5.0935974-0.3287811-10.1931763-0.5565186-15.2897644-0.8244476
		l-14.2388763,1.3217926l-0.7635956-0.2874756l-0.7291718-0.4984589l-0.4424591-0.5358582l-0.8437805-1.3398132
		l-0.6102905-0.7291718l-0.6504669-0.6506653l-1.2862396-0.1146088l-1.3424225,0.497345l-2.7758484,1.8395844l-1.2252197,1.1506042
		l-0.9392242,1.2845612l-0.9974823,3.3907776l-1.015152,0.9570923l-1.4391785,0.497345l-6.7802582,0.0386963l-1.2248383,0.4999542
		l-1.4393616,1.3009338l-0.8975677,0.9185791l-0.9985809,0.5209808l-1.3976898,0.3213196l-6.7862091,0.1175995l-1.3768463,0.2262421
		l-9.6766663,3.1645355l-6.226532,3.279129l-1.7813568,0.6651764l-1.4363861,0.2130432l-2.2403717-0.1533203l-1.5541687,0.1177826
		l-1.2830658,0.99263l-0.5952148,1.265213l-0.7859192,2.6257019l-1.3426208,1.3426056l-2.0481567,1.4929657l-4.4476013,2.3949738
		l-2.0675201,1.4585266l-1.6687775,0.8235168l-0.9928284,0.2067108l-1.3796387-0.4956665l-0.7308502-0.8261108l-0.7831268-1.932251
		l-6.0549927,1.3217773l-55.1055222,18.3354034l-3.4501343,0.0759125l0.1175919,0.2710876l-0.2885818,2.7758484
		l-1.1120834,2.6643829l-1.6075668,2.6227264l-2.1642609,1.9365234l-5.0013275,1.610733l-2.3966522,1.2248383l-7.6625519,5.5552216
		l-2.1287231,2.5079193l-1.6656189,3.2791443l-2.7207718,7.2414856l-1.8978271,3.2183075l-2.4902382,2.2846375l-2.8936234,1.8191223
		l-2.5110817,2.2223206l-1.5493279,3.296814l-0.785923,1.263916l-0.2679291,1.7219849l-0.1146126,1.8397827l-0.385704,1.8427429
		l-0.785923,1.8366089l-3.2181129,4.0624542l-1.7804184,9.6167603l5.9584198,8.3939514l17.1685982,11.1919556l6.3405914,3.1001587
		l4.4476089-1.2842102l1.3398209,0.3274841l0.3244934,3.0675659l1.4574127,2.8311157l6.9912491,3.9504395l3.9472885,5.3228455
		l4.0042191,2.5676575l3.0082321,5.4048767l3.0677795,3.3757019l6.0551682,3.4041748l8.8892593-0.2828064h12.8560715
		l7.9515076,5.07724l2.1047211,5.937561l0.942215,6.1712952l2.5676422,7.3354492l1.7220001,2.0137329l10.7320099,16.6683044
		l1.4931335,5.1188965l3.5617676,19.3473816l1.0599823,3.1643372l1.2830811,0.9972839l3.1005249,4.2334595l4.4446259,1.8423767
		l2.396286,2.1644287l2.1108551,2.5632019l1.4512787,2.2593384l2.0498352,6.2873535l1.5748291,3.1825867l4.3832245,2.3726501
		l1.6151886,2.5125732l1.9320679,6.2842102l2.0688019,5.3470154l1.4395599,5.900177l2.3322754,2.5481262l3.0143738,1.1105957
		h3.7733154l3.0067596,3.0454407l3.2759705,4.7899475l4.4446259,5.0610657l5.8469696,3.9472961l6.1087646,2.7774963
		l7.2266083,4.789978l7.9515076,6.3796387l9.116806,8.4665222l5.1163025,6.1147156l2.3352661,10.1187439l3.0692444,4.444458
		l1.6077576,4.9985352l2.6642151,6.5703735l3.7941589,4.1229248l4.3893738,2.9859009l4.0622559,1.8965149l8.944519,2.6642456
		l3.7180786,1.8397217l3.9474487,3.2776489l7.909668,10.0592041l3.8910828,3.6231689l7.5481262,5.227417l2.6850586,3.8909302
		l-1.3424377,4.8464966l0.9421997,1.1522827l1.6044006,3.4501343l-2.9855347,0.4941406l-0.5003052,1.6849976l2.3205566,5.5014648
		l-2.6643982,1.3961792l1.2830811,3.3760986l8.0125427,9.5797119l1.5463562,1.3753662l0.7325134-1.1074219l0.8783875-1.0570068
		l2.1075134,0.2891235l2.2399902,0.8839722l1.2681885,0.7233887v1.4974365l-2.5466003,1.3753662l3.2182922,2.515564
		l1.339447,2.6224976l-0.614563,2.3343506l-2.6647644,1.7115479l2.8789368,5.0757446l2.9499817,2.7597046l3.3907776,1.2236938
		l4.2334595,0.2885742l1.2860413,1.8220825l1.0538635,8.9666748l0.9392395,3.1018066l6.7262878,5.5550537l16.5715332,6.8619385
		l7.6625366,4.3642578l5.3481445,5.177124l2.8357544,1.8009033l4.1186523,0.7055664l2.3339539,1.6313477l2.3428955,3.7539673
		l1.7608643,4.56073l0.6713257,3.7928467l-1.5538025,7.6237183v4.3346558l2.2249146,1.878479l9.6173096,16.7992554
		l1.7787476,6.1710815l0.5550232,3.4503174l0.2338867,3.3344116l1.0506592,3.3907471l1.878479,3.1047974l1.1091309,3.5604858
		l-0.1503601,3.0126953l-1.168457,1.5125122l-0.5029297,2.7205811l-0.72229,2.3369141l0.4956665,0.9974976l0.8828735,0.6134033
		l1.1327515,1.491272l0.8809814,1.7266846l0.37677,1.4914551l-0.6117554,4.2959595l-0.9898376,3.3669434l-0.2115784,3.3015137
		l1.8131714,3.5987549l2.3994446,2.4174805l3.3907776,2.3756714l3.8864441,1.949707l5.6160889,1.0570068l1.7281189,0.8812256
		l1.507843,1.1669312l1.3857727,1.3813477l2.8311157,3.2925415l0.9942932,0.8456421l0.672821-0.1728516l4.179657,2.2208252
		l0.9972839,0.8275757l0.6638794,1.9526978l0.3868103,2.5693359l0.9558105,2.1434326l2.5542297,0.9020386l2.6255188,1.6075439
		l0.8218384,3.7363281l-0.1754456,6.9391479l5.7334595,18.1952515l2.8340759,0.9258423l2.2744141,2.6225586l1.5212402,3.8910522
		l0.3840332,4.6738892l-0.3840332,2.6048584l-1.4648743,3.0097046l-0.6098938,2.1287231l-0.3278503,2.4320068l0.3278503,5.7870483
		l-0.3752747,1.3219604l-1.7891846,3.7926636l-0.3810425,2.4500732l0.4971619,1.4406738l3.3340149,7.0675049l-0.0593567,0.7115479
		l-0.3216858,0.8990479l-0.1724854,1.2266846l0.5535278,1.6073608l0.8220215,0.9943237l2.0152283,1.170166l0.9943237,0.8244019
		l5.4655457,6.7460327l1.661499,0.937561l10.8864441-0.8988647l4.1203308,0.8988647l7.5704346,3.6199951l1.2830811,1.6105347
		l1.1999207,3.0571899l2.8934326,2.2211914l3.4503174,1.2650146l3.7748108,0.3423462l0.1698608-0.0744019l-1.107605-3.1049805
		l0.2855835-2.7120361l1.3249512-2.3369141l8.5588379-10.2884521l1.8963013-4.060791l0.6727905-5.4447021l0.9439087-1.5061646
		l4.2686157-4.5609131l1.3427734-2.3399048l0.4467773-3.1051636l0.1069336-2.9498291l0.5032959-2.5484619l1.5119629-2.0124512
		l0.4945679,8.2970581l-6.4542847,13.8903809l-1.7296143,8.0675659l15.7362671-9.7316895l6.1266479-8.5112305l5.0608521-5.3436279
		l0.1190796-2.3756714l-2.6286621-4.2927856l-1.7208862-2.1674194l-2.2238159-1.8959351l-2.836853-0.6104736l-3.3908081,1.5718384
		l-5.7904053-10.4077148l-1.4348755-1.7028198l-2.8962402-1.4168701l0.0593872-3.0484009l2.107666-5.3435059l-1.7772217-5.5552368
		l-3.5455933-8.1239624l-2.4561768-7.9902344l1.4916382-5.0759277v-1.4974365l-1.4349365-2.3787842l-2.7179565-6.3973389
		l-2.2831421-1.9945679v-1.3961792l3.5513306-0.1131592l1.6016235,1.9352417l0.9645386,2.9472046l1.6016235,2.8398438
		l3.0154419,1.6047974l2.3343506,0.3481445l0.4997559,1.053833l-2.6224976,3.8908691l0.1636963,4.6738892l2.1670532,8.2374878
		l4.7335815,12.3393555l12.7206421,11.3422852l2.5691528,1.4942627l2.0003052-0.6102905l0.8369141-4.0067749l-0.4378052-2.3192749
		l-1.8458862-3.5245361l-0.4342651-1.7235107l0.0921021-15.1202393l0.7888794-2.9265747l1.8369751-2.6286621l-1.107605-0.6727905
		l-0.1754761-0.7260132l-1.2266846,0.2855835l-0.5537109,0.291748l-0.3276978-0.4616089l-0.4941406-1.7266235l5.0014648,0.3516235
		l1.1072998,3.8282471l-3.5065308,15.956543l1.000061,1.211853l6.6860962-3.0458374l-2.4588013,13.8878174l-0.1101074,5.7870483
		l1.1102295,5.843811l2.0126343,0.940918l7.2786865-3.6051636l1.3842773-0.053772l3.0009766,0.4378052l2.0571289-0.3840332
		l15.5187988-9.7317505l2.0483398-3.2178955l-3.4505005-2.1851196l0.6132202-0.2681274l0.5535278,0.0563965l0.3515015-0.2885742
		l-0.1160889-1.1520996h1.1669312l2.4500732,1.0003052l1.9975586-3.5606689l1.3932495-5.3286133l0.7114868-4.3495483h-1.3755493
		l-0.8452759,1.8965454l-1.4379272,1.6073608l-2.8936157,2.6673584l-2.2833252,2.3343506l-4.673645,2.7802734l-5.001709,2.2208252
		l-3.5603027,0.3842163l-0.1011963-2.223999l3.2836304-3.5991211l4.4386597-3.4116211l8.1241455-3.4295044l1.0001221-4.1796875
		l-2.1670532-4.2332153l-4.84375-1.9352417l-17.343689-1.3988037l4.5041504-1.8788452l5.3883667-1.1669922l5.605835-0.3242798
		l5.0606689,0.3842163v-1.6851807l-2.5425415-1.116333l-4.5633545-2.7180176l-2.5129395-0.5360107l-2.1640625,0.2085571
		l-3.4473267,0.9439087l-2.2266235,0.1694946l-16.6682739-3.1647339l-3.3875732,1.8427734v-1.6848145l-0.0597534-1.3812866
		l1.4946289-2.1075439l1.8366089-1.0718994h5.8495483l13.3966064,2.1019287l4.7244873-0.6102905l-1.1104126-1.9351807
		l-1.012207-2.2238159l-0.616394-2.4293823l0.0596924-2.6286621h1.3932495l1.3424072,2.8372192l1.4440308,1.7266235
		l7.0078125,6.1681519l2.2833252,0.6104736l2.4917603,0.1190796l3.5574951,0.824585l2.9529419,1.7772827l1.6641235,2.0126343
		l1.7895508,1.6135254l3.1522827,0.6517334l2.7298584-1.3219604l1.661499-3.2802734l0.6102905-4.0010376l-0.553894-3.664856
		l2.5691528,1.4408569l0.7650757,2.2772217l0.291748,2.5693359l0.991333,2.2624512l2.5095825,1.8963623l1.5033569-0.4433594
		l1.4319458-1.3430176l2.2774048-0.762085l13.5837402-9.9074097l2.0007324-1.0151367l1.7803955-1.1519165l1.2830811-1.8964844
		l0.7022095-1.9320679l-0.2081909-0.499939l-1.0510864-0.3423462l-8.7374268-7.8951416l-2.2801514-2.836731l2.7774658-0.553894
		l3.569397,2.3905029l5.9299927,6.439209l4.4507446,3.8343506l2.6850586-0.7678833l2.6022339-2.4500122l4.3878784-1.4559326
		l4.0604248-0.6549683l8.737793-2.9501343l9.9457397-1.6671143l1.7775879-1.6641235l-1.3755493-2.2833862l-4.2957764-2.9501953
		v-1.3961792l1.7266846-1.1102295l2.0151978,0.1931152l4.5968628,0.9171143l4.7869263-0.0952759l1.9556885-0.9049683
		l11.0027466-7.7191162l3.0039673-4.5043945l0.6102905-6.6654053h-1.2830811l-0.2262573,1.3424072l-0.5565186,0.149231
		l-2.6673584-1.7240601l-1.107605-1.9945679l-1.6104126-1.6073608l-6.6626587-1.5690918l-2.7479248-2.1640625l-1.878479-2.932312
		l-0.7797852-3.1794434l2.6582642,2.3369751l2.5693359,1.4942627l1.8395996-0.2675781l0.7711792-2.911499l-0.4465332-3.4920044
		l-1.7177124-5.6119385l-0.4465332-3.1228638l1.1074219-0.612915l6.6148682,4.4085693l-0.3274536-0.7859497l0.2349854-1.5535889
		l0.8218384-1.494812l1.2861938-0.729187l3.2715454,3.0484619l-4.2721558,5.5758667l-1.628418,3.5426025l1.3428345,1.5541382
		l3.2746582,1.2263184l2.0719604,2.6048584l1.6105347,2.6824951l2.1045532,1.2263184l4.1738892-0.8841553l5.6741333-2.3369751
		l10.1782837-5.8973999l3.1553955-4.0040283l2.9533691-5.1144409l3.6199951-4.4118652l5.0013428-1.815979l0.9377441-0.7322998
		l0.6132202-1.6103516l0.8484497-1.5480347l1.6016235-0.7295532l1.3842773-0.3810425l9.2314453-5.2335205l1.4053345-1.6671143
		l1.3751831-3.3908081l-2.0477905,0.553894l-1.7804565,0.9407349l-1.4584961,1.3424683l-1.0006714,1.7803955l-2.2744141-3.5635986
		l-0.9377441-2.6048584l0.2681274-2.5663452l4.8999023-10.1185913l2.2837524-2.9501953l2.7802734-1.2265015l5.9390869-3.8341675
		l3.4979248-1.053833l1.553833,2.6641846l0.5209351,1.6849976l2.4919434,4.4446411l0.8394775,2.3399048l2.6703491-1.9497681
		l3.6763916-1.5005493l4.2126465-0.9586182l4.2959595-0.3423462l4.7657471-1.0360107l1.4023438-2.7921753l0.2085571-3.7184448
		l1.3424683-3.9504395l3.7182617-3.3310547l8.2906494-3.6799316l2.8372803-2.9885254l0.4971313-4.789917l-3.3344116-1.6702881
		l-4.1677246-1.1102295l-2.0003662-3.006958l3.8968506,0.4614258l4.2126465,1.0300903l3.3907471,2.2269287l1.3424072,3.7894897
		l1.1638184-0.3780518l1.0003052-0.6160278l0.8394775-0.8427124l0.8782349-1.2235107l-2.1045532-2.0509644l-1.3425903-2.548645
		l0.1755981-2.1107178l2.6018677-0.8988037l1.5210571,0.7114868l1.4916992,3.8492432l1.6043701,1.6670532l1.4591064-3.5098267
		l2.3754272-2.2178345l2.7445679-1.6702881l2.3162842-1.8959351l-2.6105957-0.9407349l-1.0482788-1.107666l-1.4019775-4.0635376
		l-0.3870239-2.6048584l0.1786499-2.5661621l-0.4971924-1.8814697l-6.460022-1.7236328l-4.4418335-2.5123901l-3.6824951-3.6561279
		l-1.4942627-4.2954102l0.5535278-4.7098999l1.5510254-4.7926025l2.1314697-4.4420166l8.3954468-11.9164429l3.8282471-3.6587524
		l4.2213135-1.9381714v1.3842773l-2.1674194,1.9501343l-6.7872925,8.0078735l-4.8882446,10.3868408l-1.6613159,5.1738281
		l0.6640625,2.3369141l7.8383789,0.112915l2.4946899,1.2269287l1.9529419,3.1047974l0.8813477,4.1765137l0.2262573,8.046936
		l1.4465942,3.2389526h1.1640015l0.1696777-5.2335205l4.9418335-26.131897l1.4616699-2.4532471l-1.4616699-1.553772
		l4.3552856-9.4042969c12.3366089-16.7662964,24.586853-33.5770874,36.7506104-50.4684753l13.2923584-14.0632629
		l19.6210938-16.7514343l20.0263062-12.0122986l7.8887939-3.1228638l7.8981323-0.4941711l-0.7888794-2.1106567
		L948.2723999,449.5661011z M451.5190735,412.4727783l-2.1051025,1.8401184l-1.5122986-1.1699524l-2.164093-2.2208252
		l-2.342865-0.9587708l-1.836792,2.7953796l-2.9295349-0.8452759l-4.5650024,0.3511047l-4.49823,1.2237244l-4.4490967,2.8368835
		l-0.5700684-1.5748291l0.1696777-3.5606384l0.9543152-0.1575928l1.6135254-1.6077576l0.5028992-1.8395996l-2.3430481-0.8809814
		l-4.2302856-0.1163025l-1.995697,0.6162415l-0.789093,1.7593994l-0.8826599,2.5693054l-1.7190247-2.0693665v-2.7592773
		l-0.3857117-0.6908569l-0.5535278-1.7623596l-0.4631042-0.7857361l-0.991333-0.3842163l-2.3994446,0.214325l-3.4475403-1.8397522
		l-4.3893433,1.8397522l-1.6016235-1.4942627l-2.0570984,0.7264099l-3.7941589-0.3842163l-4.0948181-1.342804l-3.0650024-1.9527283
		l3.0990601-0.8809814l7.2416687,1.7621765l3.2806396-1.6464539l3.1047974-0.8988647l4.8437195,0.7831421l4.5651855,1.7234802
		l2.2729492,2.1108398l-1.0480957-2.7211304l-2.341217-3.8908997l-0.4375916-2.661438l0.9421997,0.0389099l0.4941711,0.4584351
		l0.4941711,0.6102905l0.7310486,0.5354919h1.1653137l2.6105957,1.2266846l3.2389526,5.2335205l2.6018982,1.1701355
		l1.8401489-0.5003052l0.056366-1.2237244l-0.7280579-1.6698914l-0.4967957-1.8963318l0.4461975-2.1076965l0.8813477-1.5541687
		l0.9541321-0.5505676l0.437439,1.0508728l0.1177673,1.8963318l0.4956665,1.9380188l0.7708435,1.8369751l1.0661316,1.4019775
		l0.65625-0.4644165l4.9594421,0.1188965l0.7712402,0.34552l1.9573669-2.3013916l1.1640015-5.0962219l2.0481567-1.8965149
		l2.7179565,0.1698608l3.1824036,1.8811035l1.9975586,2.9503479l-0.7710571,3.506897l-4.063385,3.6170349l0.0593567,1.2653809
		l4.0040283,0.499939l2.7745667,1.3396606l0.2202759,2.9918518L451.5190735,412.4727783z M651.3066406,554.6980591
		l-4.4623413-0.3810425l-5.5043945-1.3813477l-3.8879395-2.7209473l0.2260742-4.56073l-8.4425049-0.116272l-2.7418213,1.2685547
		l0.895874,3.4501343l-7.3944092-1.6135254l-8.1243896-3.3908081l-7.5081177-4.9417725l-5.9450073-6.2278442l-6.7216797-11.5149536
		l-2.2836914-1.6103516l-2.2712402-1.1105957l-3.0155029-2.9501953l-2.4504395-4.006958l-0.6517334-4.3283691l2.1134644,2.8755798
		l6.9901123,4.9031067l3.9623413,6.4004517l2.2831421,2.1077271h1.8221436l-0.3304443-2.3369141l3.8936768,2.9472046
		l2.9472046,4.7929077l3.3401489,4.0606079l5.230957,0.6132812l2.491333-1.303772l0.4942017-1.4380493l0.2859497-1.6641235
		l1.8963623-1.8782959l2.1047363,2.6048584l1.2263184-0.0567627l0.3842163-3.9442749l4.3344727,2.9261475l2.1315308,0.961792
		l2.6584473,0.6130371l2.7179565-0.2679443l4.7363892-2.3009644l2.2833252-0.5358887l0.6102905-1.0183105l1.9887695-1.6046143
		l2.1670532-0.1160889l1.0568237,3.5604858l5.4030762,18.1863403l0.6640625,4.9447632L651.3066406,554.6980591z
		 M684.1638794,583.4586182l-0.4945068,3.6586914l-0.6099243,1.4587402l-1.4648438,0.8782349l-4.2126465,1.8964844
		l-0.8452759,1.2858887l-1.4944458,2.6645508l-3.2744751-0.2147217l-3.5667725-1.6877441l-2.0628662-1.6641235l-1.2086792-2.0124512
		l-1.7296143-4.21521l-1.5093384-2.1644287l-1.6730347-0.7859497l-4.0933228-0.5358276l-1.4023438-1.1134033l-0.166748-1.7238159
		l1.107666-4.5578003l0.4020386-2.0687866l0.7647095-1.878479l3.506897-1.9558716l0.8484497-2.453064l0.7056885-1.3781128
		l4.4476318-3.9091797l0.0595093-1.2263184l0.9556274-3.1615601l1.0477295-2.3934937l0.503479,1.2830811l1.7234497,2.0511475
		l8.3919678-0.9407349l2.8342285,1.3426514v1.5509644l0.8988647,1.37854l2.4353638,2.9500122l0.5031128,0.9018555
		l-0.5628662,1.8190918l-1.3186035,0.8456421l-1.3395996,0.4555054l-0.616272,0.8275757l1.1668091,3.8907471l2.4025879,2.4887695
		l1.4317627,2.5661011L684.1638794,583.4586182z"/>
</g>
</svg>
