<?xml version="1.0" encoding="utf-8"?>
<!-- Generator: Adobe Illustrator 30.2.1, SVG Export Plug-In . SVG Version: 9.03 Build 0)  -->
<svg version="1.2" baseProfile="tiny" id="Layer_1" xmlns="http://www.w3.org/2000/svg" xmlns:xlink="http://www.w3.org/1999/xlink"
	 x="0px" y="0px" viewBox="0 0 1000 1000" overflow="visible" xml:space="preserve">
<path fill="#FFFFFF" stroke="#010101" d="M687.3621216,860.5166626l0.8549194,3.3119507l0.5785522,1.6015015l0.770874,1.2753296
	l0.3164062,0.7266235l0.8108521,4.2855225l0.6525269,1.6262817l1.6212158,2.946228l0.5435791,1.7201538l0.7664185,5.8625488
	l0.6276245,1.9624023l1.1912842,1.9821777l0.5092163,1.2504883l1.3494873,15.6005249l0.5092163,1.3296509l0.6276245,0.4300537
	l0.5438843-1.3347778l-0.0397339-1.3195801l-0.7215576-4.0585327l-0.9986572-2.3084106l-0.1630249-1.5419922l0.0446167-3.2723999
	l-0.2572021-1.7254028l-0.9837646-3.0744019l-0.5782471-4.5477295l-0.420166-1.6757202l-0.6129761-0.9735718l0.1038208-0.9047852
	l-7.1426392-23.6870728l-2.2838135-13.3761597l-0.5239258-19.6141968l0.4646606-1.5126343l-0.9936523,1.1272583l-0.385376,3.6082153
	l-0.5438843,1.5916748l0.5438843,1.3742676l-0.0544434,1.4384766l-0.4894409,2.8914795l0.1383667,1.5177612l0.6279297,2.7928467
	l0.5633545,7.1773071l-0.1581421,2.6743774l-0.6524048,2.6246948l2.0512085,3.0299683l0.2819214,0.6081543l0.1037598,0.3065186
	l0.3411865,0.6078491l0.0640259,0.4251709l-0.1530762,0.2667847l-0.6773071,0.1779785l-0.1432495,0.3016968l0.0789795,0.6228027
	l0.163208,0.5534668l0.2816772,0.4796143l0.4497681,0.4497681l-0.5089722,0.5584717L687.3621216,860.5166626z
	 M706.7191772,772.8607788l-0.5289307,2.0168457l-0.4399414,0.8106689l-2.87677,2.6693115l-1.878418,2.2886353l-3.7418213,8.2103882
	h-0.4251709l-0.5092773-0.8354492l-0.7661133-0.5585938l-1.6164551-0.6473999l0.3163452,1.2059937l0.3856812,0.874939
	l-0.0740967,0.7266235l-1.0531616,0.8109131l0.2225342,1.517395l-1.2307129,2.0216675l-1.5423584,2.0414429l-0.7661133,1.5375366
	l-0.1383667,0.8945923l-1.260437,2.5209961l-0.3064575,1.0576782l-0.5785522,3.1587524l-2.1057129,4.9678345l-1.1467285,8.4525757
	l-0.5387573,1.2803345l0.6326904,0.3806152l0.484375-0.2224121l0.7514038-1.2109985l1.1121216-2.5754395l1.4334106-6.3469238
	l4.0336914-10.8255005l6.3618774-12.357666l8.6651611-12.6345825l0.7415161-0.805603l-0.583374-0.6921387L706.7191772,772.8607788z
	 M721.2965088,750.4882812l-0.8701782-0.385498l-0.8651123,0.4251709l-0.5090942,0.8501587l-0.3607178,0.7661133
	l-0.5092163,0.5635986l-0.9442749,0.2224121l-4.008606,6.8807373v0.3856812l1.3148193,0.3608398l0.0247192,0.4745483
	l-0.4251709,0.8650513l-0.3312378,0.4793701l-2.0168457,2.1896362l-2.4962158,3.6826782l-0.90448,2.3431396l0.5881348,1.3939209
	l0.4053955-1.4977417l0.9688721-1.492981l2.4121094-2.8569946l2.8027344-4.2410278l6.0552979-6.8165894l0.2027588-0.7116699
	l0.098999-1.7351685l0.1975708-0.7711182l-0.1778564-0.6426392L721.2965088,750.4882812z M751.9433594,729.9399414
	l-0.3262329-0.1038208l-0.449707,0.1829834l-0.6078491,0.1432495l-0.2523804,0.3411865l0.0543823,1.6409912l-0.0394287,0.6228638
	l-0.8303833,1.4185791l-0.8303223,0.4202881l-2.5852051-0.262085l-1.4979248,0.197876l-0.8848267,0.5139771l-1.4038086,1.458313
	l-3.1687012,1.4334717l-0.5289307,0.4051514l-0.6621704,0.7861328l-2.8919067,1.5521851l-0.6524658,1.3641357l-0.5682983,0.4697266
	l-2.6296387,1.5718994l-0.8058472,0.3361206l-1.1072388,0.1680298l-2.2144775,0.7266235l-1.394043,0.1630249l-1.1467285,0.583313
	l-0.3064575,1.359375l0.2224121,1.453186l0.5092163,0.874939v0.484436l-0.7959595,0.7860107l-0.7660522,1.2556152
	l-0.5636597,1.4334106l-0.2224121,1.359375h0.5040894l0.5289917-1.3198242l0.8204956-1.1467896l1.8882446-1.8092651
	l3.6629028-2.7037964l1.7202759-1.8585815l6.4459229-3.4007568l3.7615356-3.2329712l2.1502686-1.4136963l2.2440186-0.5782471
	l4.9679565-2.4615479l0.1234131-0.3214111l0.5834351-0.8946533l0.1829224-0.6031494l0.0593262-0.6477051l-0.0593262-2.0460815
	L751.9433594,729.9399414z M758.4090576,725.1057739l-3.8803101,3.4204102v0.583374l1.3347778-0.1434937l1.1316528-0.7858887
	l1.7450562-1.7596436l1.680542-0.4647217l0.524231-0.7316895l1.453125-1.0874634l0.5435791-0.3310547l-0.0543823-0.1830444
	l0.2176514-0.1976318l0.2817993-0.1187134l0.5438843-0.06427v-0.5238647l-2.9264526,0.8304443L758.4090576,725.1057739z
	 M860.2316284,655.3883057l-0.0840454-0.4499512l-0.2619629-0.0394897l-0.0985718,0.1037598l-0.0643921,0.4697266v-0.5339966
	l-0.06427,0.2275391v0.2224121l-0.098877,0.1384277l-0.3361206-0.0543823v0.5388184l1.1865234,0.2025146l0.1827393,0.9737549
	l-0.4450684,1.0529175l-0.6721191,0.484375l-0.1385498,0.0792847l-1.517334,0.4150391l-0.3213501,0.4006348l-0.5634766,1.1912842
	l-2.8918457,2.3083496l-0.2470093,0.355835l-1.0283203,0.0445557l-0.8105469,0.2225342l-0.5092773,0.5633545l-0.1779175,1.0775757
	l-0.8105469,1.1222534l-5.0913696,3.1584473l-2.8175659,2.4519043l-1.2902832,1.4284058l-0.8304443,1.7053223h0.4598389
	l1.1815796-1.5372314l9.8859863-7.0588379l3.0747681-1.1515503l10.315918-8.477417l-4.2510376-1.552124L860.2316284,655.3883057z
	 M949.8251343,521.6727295l-0.9490356-0.8500977l-1.8339233-2.9560547l0.1337891-0.8847656l0.6523438-1.0678101l0.1581421-0.7908936
	l0.1779785-3.5391846l-0.3557739-1.309906l-1.2410278-0.3065491l-1.3296509,0.3510437h-0.2422485l-0.2026367-0.0444946
	l-0.1431885-0.0643311l-0.2076416-0.1582031l-0.2026367-0.2125549l-0.1779785-0.276886l-0.1383667-0.4249268l-0.291687-2.1257019
	l-0.09375-0.4200745l-0.3660889-0.5881653l-0.2224731-0.4054871l-0.1680298-0.5435791l-0.1333008-0.6477051l-0.1384277-0.4497375
	l-0.1830444-0.3806152l-0.2224121-0.3262329l-0.7563477-0.8106079l-1.7546387-1.4939575l-0.3064575-0.3561401l-0.2224121-0.4942322
	l-0.1434937-0.8475952l0.0891113-0.5438843l0.1333008-0.4646606l0.2918091-0.7068481l0.2025146-0.3287964l0.8701172-1.1021729
	l0.0296631-0.2718506l-0.1137085-0.2199097l-0.9490356-0.6278992l-1.0527344-1.1591797l-0.6872559-0.9318237l-0.2275391-0.516571
	l-0.2025146-0.6969604l-0.1777954-1.2702332l-0.1830444-0.664917l-0.2224121-0.486908l-0.2867432-0.2371826l-0.3807373-0.1679993
	l-0.8105469-0.2250671l-0.3163452-0.1580811l-0.2670898-0.2151794l-0.2025146-0.3707275l-0.1383667-0.3434753l-0.1483154-0.6450806
	l0.0444946-0.388031l0.1976929-0.3163452l0.7365723-0.4719849l0.02948-0.0197754l0.0840454-0.1039734l0.1680298-0.2221985
	l0.1980591-0.4227295l-0.0446777-0.4178467l-0.2224121-0.3287048l-0.3214722-0.224762l-0.4003906-0.1556091l-1.6607056-0.5143127
	l-0.3806152-0.2001953l-0.3460083-0.2224426l-0.5883789-0.4917603l-1.843811-2.0339966l-0.6621704-0.9319458l-0.425293-0.723999
	l-0.1827393-0.4647217l-0.2421875-0.7784729l-0.0394287-0.5980225l0.0394287-0.5735779l0.2817383-0.8204651l0.2866821-0.5760193
	l0.0939331-0.4398499l0.1038208-0.6721802l0.1234131-2.2441101l0.104126-0.7243958l0.3163452-1.2727661l0.0244141-0.4671936
	l-0.06427-0.4077148l-0.1582031-0.3039246l-0.2023315-0.2545776l-0.2473145-0.2496338l-0.2374268-0.6205139l-0.2619629-0.9367065
	l-0.4694824-3.0918884l-0.1779175-0.7289734l-1.7597656-2.6074829l-0.4842529-1.006073l-0.2820435-0.7883301l-0.3261108-0.7562256
	l-0.6079712-1.0751038l-0.9344482-1.2109985l-1.3293457-1.3940125l-0.6081543-0.4993286l-2.2442017-1.1368408l-0.3064575-0.2001953
	l-0.2868652-0.2473145l-0.2370605-0.2965698l-1.3990479-2.5926514l-0.321167-0.3854065l-0.8504028-0.662384l-0.4447021-0.2497864
	l-0.9293213-0.6820679l-0.3608398-0.4299622l-0.1433105-0.2941284l-0.06427-0.1705322l0.0245361-5.9663086v-9.442627
	l0.0150146-9.4709473l0.0247192-9.4634094l0.0197754-9.4795837v-9.4945679l0.0197754-9.5056458l0.0197754-9.5203552
	l0.0247192-9.5276794l-0.1087646-9.7306824l-0.0741577-9.7204895l-0.1038208-9.7304382l-0.0792236-9.7577515l-0.06427-5.3099976
	v-0.06073l-0.6425781-0.2705688l-1.0331421-0.5054016l-1.9770508-1.4891357l-1.2555542,0.6377869l-1.4188232,0.0865173
	l-1.3344727-0.3659668l-2.328186-1.3517151l-1.0331421,0.3742981l-0.8848267,0.7982178l-0.9343872,0.4239502l-3.3166504-1.7040405
	l-1.1517334,0.0455627l-0.7119751,0.9690857l-0.4793091,1.31604l-0.7119751,0.7043152l-1.3740234-0.7660828l-1.453125,0.7240601
	l-1.2556763-0.2583923l-0.4842529-0.7845459l0.8500366-0.8490906v-0.5115051l-1.7202148,0.2631836l-1.6657715-0.475769
	l-1.2506104-1.1826782l-0.5043335-1.7005005l-0.6723022-1.4977417l-1.1663818-0.2791748l-0.3608398-0.0802002l-1.7399902-0.0607605
	l-1.2603149-0.6240845v0.5623474l-3.237915-1.1145935l-1.003418-0.5241699l0.2224121-0.4633789l0.2225952-0.3014526
	l-1.458374-0.1482849l-1.8093262,0.3026428l-0.4990845-0.6832886l-0.7860718-0.4882202l-0.9539185-0.2988892l-0.968811-0.2027283
	l-0.4401245,0.040741l-0.7956543,0.3857422l-0.484436,0.0751343l-0.3856812-0.1591797l-0.578186-0.7243652l-1.196228-0.6078796
	l-1.0974121-1.9229736l-0.968689-0.4459229l-0.8256226-0.0569153l-1.7450562-0.5525208l-4.4881592-0.7858276l-2.5704346-2.5308533
	l-0.9887695-1.7746277l-0.3656616-0.5102539l-0.6722412-0.4820862l-0.5979614-0.2619629l-0.4303589-0.5028992l-0.1779175-1.2418823
	l-0.1826172-0.4054565l-0.4252319-0.4423523l-0.5439453-0.3793945l-0.5041504-0.1432495l-2.3676147-0.0779419l-1.0528564-0.3510437
	l-1.0925903-0.7488708l-2.1797485-2.2192993l-1.1963501-0.834198l-2.1452026-0.5228882l-0.3806152-0.4694824l-0.2670288-0.5833435
	l-0.3656616-0.4869385l-0.7861328-0.5028992l-4.5130005-1.5346985l-1.1270142,0.1804504l-1.2997437,1.0477905l-0.4003906,1.2395935
	l-0.098999,1.4382935l-0.3905029,0.8812561l-0.7908936-0.4350586l-0.4003906,0.6413269l-0.5239868,0.3459778l-0.6278076,0.2386475
	l-0.7313843,0.443634l-0.7713013-0.4623718l-0.4842529-0.0209961l-0.2028198,0.7488708l-0.0346069,0.6390381l-0.1680908,0.3520508
	l-0.2769165,0.2014771l-0.4448853,0.2199402l-0.5882568,0.0804138l-5.718811-0.1829224l-0.7566528,0.1025085l-0.4448242-0.563385
	l-0.4447632-0.3609619l-0.5241089-0.1791382l-0.6473999-0.0716248l-0.2965698,0.1890564l-0.4102783,0.3398743l-0.3659668,0.1419678
	l-0.1382446-0.3631287l-0.2866821-0.3819275l-0.163269-0.2892761l0.0248413-0.1394653l-2.1652222-0.0123901l-0.869812-0.4907227
	l0.6473999-1.1664734l-0.5289307-1.286438l-0.7659912-0.6228333l-0.8699951-0.460907l-0.8948975-0.7539062l-0.904541-0.344696
	l-0.7660522,0.7104187l-0.9095459,1.5782166l-0.5239258-0.0197144l-1.1418457-0.4277344l-0.2175293,0.1903076l-1.6211548,0.8625183
	l-0.6872559,0.180481l-0.7663574,0.4264526l-0.6918335,0.5499573l-0.4351807,0.522583l-0.7114868-0.0617371l-1.0332642,0.1432495
	l-2.2443237-0.0815125l-0.4643555,0.5229187l0.286438,2.330658l-0.7561646,0.5312195l-0.4597168-0.1865234l-0.3903198-0.3867188
	l-0.3610229-0.5686646l-0.5487061,0.1804504l-0.4003906,0.3882141l-0.4054565,0.5732422l-1.9179077,0.3175964l-0.7908936-0.201416
	l-3.8851318-2.4666138l-0.7315674-0.7438049l-0.7019043-0.2090454l-0.8551636,0.5031128l-0.7266235,0.7747192l-0.3016968,0.6005859
	l-0.4842529-0.0394897l-1.0579834,0.5658875l-1.2753296,0.898468l-2.2985229,0.9875488l-0.9735107,0.1184387h-3.4996948
	l-0.6824341,0.1855164l-1.4038696,0.7698975l-0.7411499,0.175354l-0.6725464,0.5671692l-1.2110596,2.8300171l-0.6670532,1.0738525
	l-1.2902832,0.8058167l-1.2405396,0.1483154l-2.9066772-0.3287659l-1.7993164,0.2457275l-0.4251099,0.729187l0.0148315,1.2284546
	l-0.3806152,1.7027588l-1.8981323,1.3593445l-2.0515747-1.9475098l-1.9375-3.0572815l-1.5916748-1.9598999l-1.2603149-0.2421875
	l-4.6516113,0.2421875l-0.5043945-0.2606812l-0.2667236-0.6514282l-0.1582031-0.7673645l-0.2224121-0.6054077l-0.3857422-0.3385925
	l-1.4977417-0.7737122l-2.8075562-0.8675537l-0.8503418-0.9144287l-0.2618408-0.3039551l-0.2075806-0.3609009l-0.0990601-0.4077148
	v-0.4436951l0.1239014-0.4028625l0.7462769-1.5346985l-0.1829224-0.4882202l-0.5633545-0.5834045l-1.7005615-0.6893616
	l-0.9293213-0.2498169l-0.7119751,0.0296326l-0.3408813,0.1979065l-0.3016968,0.2928162l-0.4298706,0.6820679l-0.8848267,2.5518494
	l-0.1878662,0.3806763l-0.2224121,0.343689l-0.2374268,0.3211365l-0.3061523,0.2644958l-0.5044556,0.2409363l-0.711731,0.2014465
	l-1.3147583,0.1680603l-0.7415161-0.0258484l-0.5881958-0.1212158l-0.3609009-0.2001953l-1.7893066-1.3519592l-0.6970215-0.349762
	l-0.5734253-0.0939026l-2.4468384,0.3361206l-0.6477051-0.0604858l-0.5041504-0.1594543l-0.3309937-0.2434998l-0.8157349-0.8660278
	l-0.4251709-0.6648865l-0.3309937-0.8131409l-0.4252319-2.3023376l-0.2966309-0.8341675l-0.3310547-0.3905029l-0.4795532-0.3756104
	l-0.9341431-0.4003906l-0.65271-0.12854h-0.5831299l-2.3430176,0.4226685l-0.385498,0.18396l-0.3659668,0.2014771
	l-0.5040894,0.6291504l0.0591431,1.0738525l-0.1582031,1.9796448l-1.0725708,2.2440796l-1.0527954,1.3768005l-1.5126953,0.4052124
	l-2.4318848-0.6461182l0.098938,1.2552795l0.4891968,0.5623474l0.5487061,0.4042358l0.2670288,0.8265686l-0.3115845,0.5970459
	l-1.3148193,0.767334l-0.2815552,0.8921509l-0.1582642,2.382782l-0.6030884,2.1044006l-1.2803955,1.3284607l-2.164917,0.078949
	l-1.616394-1.0341187l-1.3345337-1.8388977l-0.9343872-2.182373l-0.3408813-1.980896l0.3013916-1.3965454l1.2949829-2.0636292
	l0.3164062-1.3347778l-0.1779175-1.0070496l-0.5238647-0.9341431l-0.7613525-0.787384l-0.8748169-0.6190186l-0.425293,0.2533569
	l-0.8500977,0.3459473l-0.3806152,0.2632141l-0.3064575,0.3857117l-0.227356,0.601593l-1.2111816,2.1084595l-0.385498,0.5312195
	l-1.8140869-1.6461182l-0.8303833-0.2285156l-1.0974121,0.7327271l-0.1384277,0.2669983l-0.3806152,0.8316345l-0.2272949,0.338623
	l-0.3363647,0.3695068l-0.7314453,0.4411316l-0.3016968,0.282959l-0.5286865,0.3844299l-0.7662964,0.2606812l-4.4586182,0.282959
	l-1.0875244-0.6881714l-0.420105-1.8981628l-0.1829834-1.6991882l-0.5535278-1.0528259l-1.0085449-0.5846558l-1.5322266-0.2842102
	l-4.4092407,0.3039551l-1.0133057-0.6053772l-0.6276855-1.5423279l0.0640259-3.051178l-0.6079102-1.3752747l-2.5900269-1.2730408
	l-2.6941528,0.8936768l-2.4022827,1.9388733l-5.8920898,5.9204407l-2.6890259,1.6460876l-3.010498,0.5241394l-2.911499-0.9541321
	l-1.5521851-0.8230591l-0.6721802-0.8068237l0.163208-1.216095l0.1235352-0.510437l0.1384277-0.848877l0.4694214-1.7030029
	v-0.7858276l-0.4694214-0.892395l0.4251709-0.9465637l-0.1237183-0.8488159l-0.5042114-0.6712036l-0.6919556,0.1817322
	l-2.4222412-0.8514099l-3.3809814-0.6797485l-2.5852661-1.3208923l-0.1234741-2.7100525l-0.3411865-1.7548828l0.2619019-2.4468384
	l0.0397949-2.1664124l-1.072876-0.9500732l-1.7399902,0.2654419l-3.2177124,1.1715698l-2.1008911,0.2632141l-9.159668-1.1677551
	l-1.7399902,0.4818726l-1.0725708,1.1877136l-0.8303833,1.4977722l-1.0133057,1.3765564l-0.3609009,0.7539368l-1.6559448,0.2940979
	l-3.4353638,0.0209961l-1.038208-0.624115l-2.2785645-2.6520691l-0.8799438-0.6251526l-0.4646606-0.443634l-1.0875244-1.9687805
	l-0.7711182-0.4348145l-2.2390747-0.4906921l-0.8354492-0.032135l-1.5372314,0.2965698l-4.5922852,1.9054871l-0.8007202-0.449707
	l-8.6060181-1.8586731l-1.3691406-0.5127563l-5.1606445-3.3675842l-1.5372925-0.353302l-1.0875244,0.2693176l-1.0973511,0.4633789
	l-1.4532471,0.2434998l-1.3790894-0.2037659l-2.6100464-0.7822876l-1.3937378-0.2113342l-3.1883545,0.1483154l-1.5423584-0.309021
	l-1.1715088-0.9440002l-0.2619629-1.3309631l-0.1779175-4.4796448l0.2422485-0.9751282l0.2768555-0.6623535l-1.1963501-1.4322205
	l-2.1008911-1.8822021l-0.6473999-1.321106l-0.420105-1.4888763l-0.6673584-1.2383575l-1.3841553-0.5226288l-1.3048706-0.0804749
	l-0.6919556-0.1617279l-0.5884399-0.2695618l-0.5831299-0.5856323l-0.3064575-0.6005859l-0.1779175-0.5696564l-0.3261719-0.5031433
	l-1.2705688-0.9093475l-1.0330811-0.0457916l-0.6919556,0.9551392l-0.4053955,4.1004791l-0.5437012,1.2530365l-1.0330811,0.5114899
	l-1.6116943-0.1594543l-1.4382935-0.5732422l-2.6148071-1.4496765l-3.2972412-0.4694824l-0.6028442,0.1630096l-0.6055908,0.4016724
	l-0.7884521,0.9133453l-0.4894409,0.3854523l-1.2555542,0.4016571l-4.1422729-0.4016571l-1.2701416-0.4054108l-0.8726807-0.9341736
	l-1.3371582-2.0365906l-11.5619507-11.109436l-0.6721802-0.4436798l-1.5175171-0.2806854l-0.6276245-0.3631592l-1.052887-0.3262482
	l-3.0747375,0.4472351l-1.1072693,0.1062775v-4.7008057l-0.0196838-9.4204102v-9.4499817l-0.0197754-9.4385681v-9.4623871
	l-0.0222473-9.4747772l-0.0197754-9.5105133v-9.4932404l-0.0222473-9.5363007l-0.0197449-9.5215912v-9.5489655l-0.0197144-9.5474319
	v-9.5871582l-0.0247803-9.5858917l-0.0197754-9.6043472v-9.6094437l-0.0149231-9.6253967v-4.2029724H482.638916
	l-12.8669434-0.030899H300.2882385l-2.8717957,0.0629883l0.040802,1.5226288l-0.0184631,2.6482544l-0.0445862,11.7903137
	l-0.0617065,11.7510376l-0.0570068,11.7300339l-0.0432434,11.7125778l-0.0592346,11.7090225l-0.0445557,11.673111
	l-0.0531616,11.6434784l-0.0444641,11.6358795l-0.0592651,11.6113586l-0.0407715,11.5903168l-0.0594788,11.5706177
	l-0.0419922,11.5655212l-0.0640259,11.5260468l-0.0410156,11.5298767l-0.0541382,11.4827576l-0.0410156,11.4741974
	l-0.0640259,11.4653015l-0.0420227,11.4235535l-0.0543823,11.4334106l-0.06427,11.3825378l-0.0407715,11.3901672
	l-0.0620117,11.3617554l-0.038147,11.348175l-0.0592651,11.3294067l-0.0419922,11.307373l-0.0617981,11.2813416
	l-0.0359192,11.269165l-0.0617065,11.2602539l-0.0407715,11.2247009l-0.0643616,11.2281494l-0.0371399,11.2010498
	l-0.0617981,11.1887512h-15.2097168l-15.2347717,0.0196838H234.918335l-15.206192,0.0223389h-30.4431763l-15.207489,0.0171509
	h-30.4356079l-15.2137604,0.0223083H97.9751892l-15.229744,0.0196838H52.302227l-1.7561493,0.0223389h-1.1381454l0.0432892,1.354248
	l1.4347343,2.8869324l0.3621979,1.7002563l0.2049828,1.8637085l0.5091782,1.3988037l1.6794891,2.4666138l-0.5092125,0.5881348
	l0.486969,0.9268494l0.6301689,0.7045288l0.784832,0.4424133l0.9465218,0.1706238l0.8921509,0.5856018l4.0855408,4.2437744
	l1.3370705,0.3261719l3.0314636-0.2819214l2.5531464,1.006012l2.2861023,2.2664185l1.8596802,2.849762l1.2889938,2.6915894
	l1.7832184,5.4742432l0.8106613,1.4063721l2.8694687,3.4207153l0.6722183,1.2135925l0.2781296,0.8055725l0.1037674,0.4620972
	l0.1174316,0.3882751l0.4251862,0.5238953l2.3886337,1.3764954l0.7055893,0.9862976l1.5769958,0.6944275l2.8755646,0.8230896
	l2.3220978,1.4185181l1.2962494,0.504425l1.7215042,0.1976318l1.131813,0.4350891l2.9719543,2.0610962l0.8726883,0.7883606
	l0.4608688,0.7020569l0.5092163,1.3345642l0.4449539,0.7316589l1.312233,0.7488708l0.8080444,0.6079407v0.2816772
	l1.1543655,0.407959l1.2567825,0.9898376l5.2765961,6.1638794l0.486969,1.458313l0.6463852,1.0133057l5.1928711,3.381012
	l1.1788483,0.4598389l0.5003357,0.321167l1.6610336,1.9179077l1.3802795,1.0531006l1.2097473,0.6967773l1.0344162,0.8255615
	l0.8290482,1.5372314l0.8850479,2.8127441l0.66716,1.1369019l1.7215118,0.84021l2.3430176,2.8077393l5.5608215,4.2956543
	l2.6915894,3.4156494l0.8491364,0.7266235l2.0289764,0.5289307l3.922348,1.9277954l0.4190826,0.3952637l0.3494873,0.4646606
	l0.4227142,0.4401855l0.7291107,0.3310547l0.3449249-0.0197754l0.2804565-0.1829834l0.4659576-0.6028442l0.265686-0.1040039
	l0.7464142,0.2818604l0.4238739,0.0790405l0.4879761,0.2619019l0.6622925,1.1616821l0.6896362,0.2619629l0.7094116,0.0298462
	l0.5238953,0.2321167l0.3065491,0.5043335l0.1199341,0.8501587l0.2236786-0.1286011l0.2989044,0.2027588l0.8933868,1.0180664
	l0.4647217-0.5881348l3.1909332,3.8062134l1.2987823,0.5636597l1.2740173,0.2866821l1.4768219,0.7018433l1.3320007,1.0480347
	l0.8700714,1.2158203l0.1817322,0.8109131l0.1062775,0.8895874l0.1594086,0.8551636l0.4447327,0.6820679l0.6846161,0.2176514
	l2.1676178,0.3112793l0.4671936,0.2717896l0.40271,0.8851318l2.0613556,2.3824463l0.8119049,1.3890381l0.1581726,0.7908936
	l0.1409607,1.6607056l0.1680603,0.7861328l1.1282654,0.6918335l0.2632141,0.4055176l-0.0222473,0.4745483l-0.3806915,0.8945923
	l-0.1049652,0.5289917l0.145752,0.8650513l0.6858521,1.0576782l0.1419525,0.7860107l-0.0814819,1.1763916l-0.1037292,0.5092163
	l0.1235046,0.4102783l0.5871429,0.8945923l0.5089874,0.5438843l0.9057465,0.5535278l0.4041748,0.5241699l0.1581726,0.6622925
	l0.0643311,0.9144287l0.1396484,0.7908936l0.3682556,0.3214111l1.2889862,0.8252563l0.9958801,1.9278564l0.8663635,2.1651001
	l0.832901,1.557251l0.5066681,0.3605957l1.188736,0.6081543l0.650177,0.6473999l1.3306885,2.8077393l0.9751892,1.2161255
	l0.2001953,1.7794189l-0.1235046,2.8519897l-0.2991333,1.8192139l-0.9539337,2.8275146l-0.2014313,1.5668335l0.1890717,1.878418
	l1.2654266,4.3300781l0.0210114,0.682312l-0.1569519,1.2405396l0.1359406,0.7662354l0.2666931,0.4251709l0.8924561,1.0874634
	l0.200119,0.3707275l0.2778931,0.8106689l1.2988739,1.5718994l0.9541016,3.6578979l0.276886,0.6673584l1.2543182,1.4335327
	l1.2170715,0.9588623l0.9121552,1.1912842l0.6053772,3.2969971l1.2109833,2.2838135l0.4474945,1.1120605l0.1384125,1.1171265
	v0.8058472l0.3040009,0.7660522l0.9713135,1.0579224l3.2351837,2.2788696l0.9764099,0.9391479l0.2012024,0.4942627
	l0.2386475,0.7316895l0.3262482,0.6622925l0.4251862,0.3112793l0.5016479,0.2027588l5.5610504,3.5391846l0.7339783,1.0728149
	l1.2319794-0.647644l1.903244-0.0592651l1.7558899,0.5042114l1.0948944,1.3939819l1.6361542,1.2158203l0.585907,0.262207
	l0.4472046,0.4052124l1.2109833,2.782959l2.2443848,2.5358887l1.5000763,1.2504883l2.3604736,1.1766357l3.2772827,3.6329956
	l2.6345825,1.458313l6.2307587,2.1502075l4.3844452,0.9096069l4.7924042,0.3013916l0.7142029,0.2224121l0.6378174,0.5633545
	l0.3494873,0.7763062l-0.5621185,1.7348633l0.4596252,0.420166l0.8058014,0.2472534l0.6512604,0.3013916l3.2167053,2.7288208
	l2.0242004,1.1368408l6.026947,1.458252l1.8622131-0.1237183l0.5213623,0.1237183l0.5846558,0.4596558l0.2446899,0.5092163
	l0.1817322,0.5633545l0.4051819,0.647583l3.4961548,3.4749146l2.9385986,1.6412964l0.8268127,0.2667847l0.6053772,0.4202881
	l1.9254761,1.843811l0.9873047,0.3806152l0.7871094-0.4598999h0.0222473l0.585907-0.7463379h0.0209961l0.6053772-0.1482544
	l0.8303833,1.3544922L278,680.9094849l1.0072327-0.3213501l-0.4226379,1.6409912l0.9873047,0.6030884l4.1164246-0.1037598
	l3.7320251,1.038147l2.6702881,0.4051514l1.7438354-0.8945923l0.930542-2.0811157l0.3026733-2.6890259l0.6463928-0.2025146
	l0.2657776,0.2025146l0.4026184-1.3937988l0.3214417-0.7564697l0.565918-0.4793091l2.7310486-1.458313l0.585907-0.4647217
	l0.5731812-0.8303833l1.8749084-3.9248047l0.8154297-0.7661133l0.4611206-0.4645996l1.5359802,0.8452759l0.344696-0.647644
	l3.1142273-2.3431396l1.8586731-0.3458862l0.7489014-0.3411865l-0.6253967-0.8895874l-1.6572571-1.0973511l-0.5263367-0.7463989
	l0.0432434-0.9245605l0.9439697-3.0349731l0.0223389-1.458252l0.137146-0.8106689l0.4264221-0.5435791l0.8106689-0.6921997
	l0.3682556-0.1137085h0.405426l0.4990845-0.06427l0.585907-0.3408813h0.0222473l-0.0222473-0.3261719l-0.5242004-1.1273804
	l0.0655823-0.4544067l0.6476135-1.0283203l0.014679-0.9293823l-0.2606506-0.8895264l-0.1581116-0.8949585l0.1383972-1.0675049
	l0.3424683-0.7265625l0.4668884-0.7119751l2.178833-5.7832642l0.6091614-0.4847412l0.3892517-0.6028442l-0.3484802-1.0530396
	v-0.0197144l0.6499329-0.3262939l0.1606445-0.2816772l-0.3841553-0.9885254l0.8291321-0.3955688l0.4251709-0.4745483
	l0.6671753-1.3198242v-0.1779785l1.1122742-2.1304321l0.2829895-0.0741577l0.3201294-1.0973511l1.9882202-3.5391846
	l0.2001953-0.8650513l0.0780029-0.6871338l0.1679688-0.5732422v-0.0149536l0.5214233-0.5288696l0.5066833-0.0643921
	l2.5432129,0.0643921l1.2148438-0.2868042l2.4529114-1.3740234l1.2704773-0.484436l0.2644348,0.1283569l0.3262634,0.8058472
	l0.3631592,0.1829224l0.4449463-0.0791626l0.2014465-0.1878052h0.0235291l0.0964966-0.1582031l0.0222168-0.0196533
	l0.709198-0.583374l0.5451355-0.9787598l0.5423279-0.1778564l7.4639893,0.5633545h0.0210266l0.1187134-0.2619629
	l1.6584778-2.4022827l0.2259827-0.7957153l0.1435242-2.1008911l0.2606506-0.7462769l0.5276794-0.5289917l0.831665-0.1829834
	l0.761322-0.3014526l0.6511841-1.4334106v-0.0249023l0.6476135-0.3806152l1.2912292,0.3609619l0.8911438,0.8945923
	l0.8886108,0.6674194l1.2145081-0.3016968l0.3449402,1.4136963l0.9329529,0.4796753l2.4665222,0.2470093l3.1934509,1.6956787
	l0.7932129,0.6918945l2.4789734,1.067749l6.4977722-0.7020264l1.8191223,0.4647217l1.0725708-1.0331421l1.052887,0.3411865
	l0.96875,0.8105469l0.9143982,0.4695435l0.6463928-0.0394897l0.6301575-0.1286011l0.5821533-0.2619629l0.4573059-0.420105
	l0.5535278-0.3064575l0.6883545,0.1235352l1.353302,0.4449463h2.3058167l0.7871094-0.5437012l0.4499512,0.0197754
	l0.2015076,0.805603l0.5843811,0.4448853l11.1208801,1.5916748l3.5639648-0.4646606l1.0527954-0.3806152l0.7463379-0.8106689
	l0.2855225-1.4927368l0.2212219-0.3459473l0.5028687,0.1582031l0.486908,0.5534668l0.2460022,0.7463989l-0.1483154,0.4002686
	l-0.6253662,1.364502l-0.224762,0.6376953l1.4580688,0.390625l1.0961304-0.6279297l1.0690002-0.9144287l1.3198242-0.4647217
	l0.5856628,0.2027588l0.4611206,1.0280762l0.6461487,0.3856201l0.7724304,0.0643311l0.7265625-0.1040039l0.7094116-0.2174072
	l0.6066895-0.3312988l-0.2854614,0.9986572l0.1816406,1.0133667l0.4917603,0.9490356l1.1036987,1.7399902l0.4671936,1.4185791
	l0.8291321,1.8733521l0.4671936,0.7268677l0.5869141,0.5683594l0.8723755,0.4497681h1.8166809l0.5845947,0.3756104
	l-0.096405,1.2357788l-0.5734558,1.6610107l-0.0766907,1.1566162l0.7685547,0.3014526l1.1890564-1.0773926l1.7027283-0.9690552
	l1.7017517-0.2025146l1.0108643,0.9688721l0.0951538,2.0413818l-0.6056213,2.3529053l0.265686,1.0725708l0.6712036,0.7069092
	l0.7622986,0.0792236l0.7131958,0.2027588l0.6041565,0.4446411l1.2889099,1.6412354l1.9885864,1.0678101l4.5734253,1.4382935
	l2.0611877,0.7217407l0.5661621,1.3395996l0.2434387,2.2441406l0.2594299,1.0973511l0.4028625,0.805603l0.5710144,0.7466431
	l0.670929,0.6276245l0.7437744,0.4894409l4.9767151,2.2836304l1.6162109,1.4384766l1.3322449,1.7349854l0.5276794,0.4448853
	l3.2747192,1.5620728l1.3754883,1.0330811l0.8921509,1.1269531l1.4334106,2.6941528l-0.5435791,1.6557007l0.5276794,1.067688
	l3.6231995,2.9710693l0.177887,0.4299316l0.3424683,0.5090332l0.7698669,0.2026367l0.8488464,0.1187134l0.6438293,0.2619019
	l0.5464478,1.0480957l0.5917053,4.5130615l1.3322449,3.0941772l0.2632141,1.6165161l-0.6053772,1.6807251l0.4806213,0.4891968
	l0.2854614,0.647583l0.1161804,0.8056641l0.0445557,1.0333252l0.3695068,0.5239258l0.8278198,0.6079102l0.8093262,0.8255005
	l0.384491,1.2505493l0.2001953,0.291748l1.0133362,0.5042114l0.3596191,0.2619019l0.2037354,0.6079102l-0.423645,0.9639893
	l0.2199097,0.5535889l0.4659424,0.2421875l0.9910889,0.034668l0.4472046,0.2472534l0.276886,0.4249268l0.3743591,0.8057861
	l0.276825,0.3806152l0.4003906,0.776001l1.7201843,7.5234985l0.8774719,1.7202759l2.506073,3.2920532l-0.1037903,1.3345947
	l0.7884216,0.5734863l1.6040344,0.7660522l0.6822815,0.5437012l0.3052368,0.7514038l-0.1237183,1.8585815l0.0617065,0.8650513
	l0.9344177,1.5866699l1.3914795,0.9442139l2.8309937,1.1369019h-0.0197144l-1.9611511,1.0480347h-0.0184631l-0.3424683,0.5881348
	l0.0792542,0.8552246l0.5066528,0.6079102l0.5461426,0.4745483l0.2657776,0.4299927l0.3189087,2.8274536l0.625061,2.7288208
	l1.9637146,2.5948486l1.0553589,1.7399902l0.0334473,1.2507324l-0.4436646,1.4137573l0.647644,1.4977417l1.1776123,1.2949829
	l1.1702576,0.8355103l1.9204712,0.355835l0.4620972,0.1680298l0.2001953,0.6425781l0.12854,1.0923462l0.2421875,1.038147
	l0.5881653,0.4398804l1.1072388,0.2275391l6.7189941,3.3908081l1.254303,1.2950439l0.5190125,1.6807251l0.0691223,1.0579224
	l0.1976624,0.5388184l0.927063,1.0576782l0.9563904,0.8255615l0.4993286,0.163269l-0.019989,0.4003296l-0.2001953,0.5238647
	l-0.0369263,0.484436l0.4398804,1.3198853l0.4894409,1.0133057l0.6473694,0.9688721l0.9888611,1.1912842l1.0108643,0.3905029
	l1.4359741,0.3163452l0.869812,0.583374l-0.7857971,1.1416016l0.6696472,1.1222534l1.0703125,1.3988037l1.1913147,1.1765137
	l1.0773315,0.4991455l0.1582031,0.3659058l-0.2667847,0.7957764l-0.583374,1.1912231l0.2225342,0.8701172l0.5215454,0.4300537
	l0.6499634,0.355835l0.5314331,0.6870728l0.0961914,0.7266235l-0.2024536,1.6807251l0.1062622,0.7512207l0.3409424,0.0791626
	l0.9070435,0.7711792l0.8156738,0.869873v0.420166l1.6906738,0.3461304l0.8946533,0.8106689l0.5831299,1.0232544
	l0.8329468,0.9786377l0.6450806,0.3707886l1.2110596,0.3806152l0.4919434,0.2966919l0.2766113,0.6473999l0.1508179,0.9143677
	l0.2323608,0.7860107l0.5289917,0.321228l1.1715088,1.8637085l0.3806152,0.3262329l2.4344482-0.0197754l0.4251709,0.4003906
	l0.6846313,1.3198853l0.2667236,0.321167l0.7612915-0.0247803l1.4385376-0.8106689l0.8500977-0.2224731l0.6674194,0.3462524
	l0.8303223,1.4777832l0.4227295,0.3461304l1.1740723,0.3607178l1.3790283,0.6674194l1.3544922,1.2554932l0.5411377,1.1518555
	v3.0942383l-0.2001953,1.7596436l0.0419922,0.8157349l0.4029541,0.3360596l1.0527954,0.0643311l0.5438843,0.3016357
	l0.2667847,0.6276855l0.2421875,1.0923462l-0.0643311,0.3411255l0.0643311,2.8522339l-0.1827393,0.9342041l-0.6279297,1.7597046
	l-0.2001953,1.5126953l-0.3631592,1.0133057l-0.0840454,0.8106689l-0.2421875,0.7314453l-1.1071777,1.230957l-0.0643311,0.0592651
	l-0.4499512,0.8057861l1.9254761,0.7712402l0.4620972,0.2816772l0.1038208,0.2224121l0.1383667,0.6079102l0.1829834,0.2670288
	l0.776001,0.4051514l0.2027588,0.1187134l0.96875,1.1715088l0.7415161,1.260437l0.484436,1.3693848l0.1433105,1.4778442
	l-0.2620239,1.4779663l-0.9936523,3.3169556l-0.1581421,1.5322266l0.1581421,0.3461914l0.3115845,0.4398193l0.2963867,0.5535889
	l0.1237793,0.7020264l-0.163269,0.6674194l-1.3568115,2.4910889l1.2333374,1.7202148l0.2669678,0.4252319l1.0331421,0.8452759
	l0.6027832,0.2421875l0.588501,0.0245972l0.548645,0.133606l0.4398804,0.612915l0.1829834,0.8451538l-0.0200195,1.5670776
	l0.3064575,0.8452759l0.6279907,0.6473999l2.7284546,2.2045898l0.7661133,1.0085449l2.1801147,2.6939087l0.9984131,1.2705078
	l1.1467285,1.1960449l0.9986572,1.2902222l0.9736328,3.3265991l0.8650513,3.6479492l2.7532959,8.0773315l0.1976318,1.2355347
	l0.484436,3.7962646l0.4251709,1.7895508l1.6412964,0.677002l1.7794189,0.4500732l0.8253174,1.0279541l0.7908936,2.1455078
	l0.1435547,0.9738159l-0.3065186,0.869873l-0.583313,0.96875l-0.4450073,0.9688721l0.1582031,0.8453369l1.4385986,1.1813965
	l1.3147583,0.1976318l1.2704468-0.1530762l1.359375,0.0492554l0.3411255,0.2225342l0.4447021,0.6721802l0.4054565,0.1384277
	l0.4448853-0.0789795l1.1763916-0.4894409l1.6609497,0.0444946l0.5881958,0.4300537l0.6030884,1.1912842l1.0528564-1.0578613
	l2.5209961,1.8438721l1.5620117-0.3213501l0.6671753,0.4448853l0.6625977,0.1830444l0.5881348-0.1483765l0.4251709-0.4598389
	v-0.0197144l0.7709351,0.4448853l0.519104-0.163208l0.4697266-0.3014526l0.6276245,0.0197754l0.3609009,0.3013916
	l1.0331421,1.2507324l2.3726807,1.5026245l0.7017212,0.9047241l-0.2666626,1.2753296l0.9391479-0.0792236l0.8896484,0.0792236
	l0.8057861,0.3262329l0.6871338,0.6622925l-0.8651123,1.0331421l0.1235962,0.3905029l0.6177368,0.0741577l0.5487061,0.1630249
	l1.3990479,1.3595581l0.7660522,0.4892578l0.8947144,0.1778564l4.0435181-1.5620117l1.9771729,1.0728149l2.1453857,0.5436401
	l1.9475098,0.7958984l1.4136963,1.7349854l0.8898315-1.1171875l0.1977539-0.2520752l1.8831787,0.6229248l2.1899414,1.2555542
	l1.8931274,0.5435791l-0.5487061,1.5422974v0.7661133l0.7908936,0.2670288l1.8191528,0.0098267l0.4249268,0.5337524
	l1.6065674,2.4025269l0.6229248,0.7512207l5.338562,2.7287598l2.5654907,0.7711792l2.3924561,0.1184082l3.232666-0.869812
	l1.3494263,0.3262329l0.5735474,1.8338013l0.6473999,0.3262329l1.4534302-0.4796143l2.1451416-1.1368408l0.944397-0.06427
	l3.9493408,0.5683594l4.3500366-0.5040894h5.2148438l1.3443604,0.3806152l0.133667,1.1715698l0.9293213,0.2619019
	l5.9662476,0.3905029l1.354248,0.3016968l1.2606812,0.6127319l1.2850952,1.0283203l0.6723022,0.9837646l0.5635376,1.2158203
	l0.7116699,1.0282593l1.9971924,0.8748779l3.0744019,3.1734619l1.2358398,0.8355103l1.0925903,0.4595337l1.1566162,0.2027588
	l1.458313,0.0592041l0.4595337,0.5438843l0.3806763,1.196106l0.7119141,1.0925903l1.4580688,0.2667847l0.2867432-0.2667847
	l0.0148926-0.0197754l0.0147095-0.4401245l0.133606-0.3707886l0.5385742,0.0200195l0.4449463,0.385498l0.2275391,0.548645
	l0.2816772,0.484436l0.6870728,0.2173462l1.3692627-0.6225586l0.0444946-1.4732666l-0.484375-1.7201538l-0.197937-1.3988647
	l0.2768555-0.4200439l1.557251-1.1369019l1.196106,0.8500977l1.5967407-0.484436l0.385437-0.3656616l0.8649902-0.8256226
	l0.2027588-1.2357178l0.9144287-0.2225342l3.2972412,0.2225342l4.5524292-0.385498l0.1187134-0.6524048l-0.2224121-3.3861084
	l-0.163269-2.170166l-0.583374-2.0612183l-0.8946533-0.1434937l-0.7214966,0.4697266l-0.2868042,1.1072998l-0.1384277,1.3790283
	l-0.2421875,1.1963501l-0.5092163,0.8106079l-0.6276855,0.4745483l-1.6807251,0.776001l-0.385498,0.3806152l-0.098938,0.3460083
	l-0.1976318,0.0791626l-0.7316895-0.3459473l-0.3460083-0.3016968l-0.2619019-0.4694214l-0.3214722-1.2507324l0.0397949-1.0331421
	l0.8106079-1.8140869l0.0789795-1.3345947l0.973877,0.4398804l0.7215576-0.1629639l0.4499512-0.7020874l0.2423096-1.1368408
	l-0.8059082-0.3411255l-0.869873-0.1827393l-1.8637085-0.0394897l-0.8450317-0.1384888l-0.6524658-0.3461304l-0.4795532-0.3460083
	l-0.3905029-0.1384277l-0.8453979-0.8895874l-0.3262329-2.0464478l0.1038208-2.263855l0.3411255-1.5968018l-0.968811-1.5620117
	l-0.3261719-0.6673584l-0.1038208-0.8848267l0.2470093-0.6276245l0.4398804-0.5289917l0.2224731-0.583374l-0.4052124-0.8500366
	l-0.5438232-0.425293l-0.4647217,0.034729l-0.4793701,0.2469482l-0.6279297,0.1436157l-0.5732422-0.7266235v-1.6066284
	l0.4052734-1.6113892l0.6278687-0.7265625l0.4052124-0.3065796l-0.3065186-0.583374l-0.5041504-0.3408203l-0.2768555,0.4051514
	l-0.1530762,0.2619019l-0.3361206,0.3561401l-0.484436,0.2717896l-0.4646606-0.064209l-0.1234741-0.489563l0.6027832-1.5321045
	l-0.0146484-0.6279297l-0.4299927-0.1483154l-1.4681396-0.1333618l-0.4894409-0.1829834l-0.3806152-0.9490356l-0.0889282-1.0281372
	l-0.355835-0.8207397l-1.2357788-0.3164062l-0.8701172-0.0639038l-0.1826782-0.2819824l0.1826782-0.7069092l0.2027588-2.1451416
	l0.3608398-1.132019l0.0789795-0.6919556l-2.3478394-0.7861328l1.8287354-0.5435791l0.618042-0.5289917l0.3708496-1.0083008
	l0.1826172,0.4003906l0.4697876,0.6722412l0.2322998,0.5238037l-0.4251709-2.4862671l-1.5324097-5.0814209l-0.7116699-5.0073242
	l-1.6410522-4.9035645l-0.4547729-3.3366699l-0.3312988-1.2702026l-0.5585938-1.137146l-0.8551636-0.805603l-1.0923462-0.3609009
	l-0.9490356-0.0197144l-0.7663574-0.2224731l-0.5040894-0.973877l-0.0245972-1.0331421l0.1582031-1.5372314l0.3309937-1.4185791
	l0.4745483-0.7415161l0.7415771,0.321228l3.0448608,2.847229l0.8106689-1.4729614l-0.904541-0.9936523l-2.7138062-1.2307739
	l-0.7858887-0.9096069l-0.6079102-1.0874634l-0.3905029-1.3641357l-0.1829834-3.2971802l0.1286011-0.8451538l0.7265625-0.3261719
	l3.8259277-0.262207l0.9439697-0.7266235l-0.0196533-1.2702026l-0.8304443-1.9277954l0.7860718-0.7860718l-0.4547729-1.0725708
	l-0.6724854-0.9490356l0.0792847-0.4003906l1.0725708-0.1187134l1.0527954-0.3953247l0.8651123-0.6228638l0.5091553-0.9344482
	l-0.1829834-0.96875l-0.4793091-1.2110596l-0.1829834-1.0282593l0.6279297-0.4300537l0.2816772-0.6030273l0.1036987-1.3395996
	l-0.0247803-1.4137573l-0.1432495-0.8303833l0.8106689-0.3261719l0.4645996-0.8304443l0.0840454-1.0429077l-0.385376-0.9936523
	l-4.5528564,1.4286499l-1.3147583,0.9144897l-1.2950439,0.5881348l-1.6953735-0.0445557l-3.401001-0.805603l-1.4977417-0.6081543
	l-1.0331421-0.6820679l-1.1119995-0.5734863l-1.7154541-0.2174072l-3.3759766,0.2374268l-1.5422974-0.4204102l-0.9442139-1.4382324
	l1.6708374,0.0394287l1.6212769,0.385437l1.6213379,0.1581421l1.6412354-0.5830078l0.7613525-0.9885864l-0.3214722-0.8058472
	l-1.0083008-0.3115845l-1.3643799,0.5983276l-0.1530762-0.2867432l-0.1088257-0.2272339l-0.0939941-0.5438843l1.3939819-0.711731
	l-0.8305664-1.5769043l-2.4863892-2.4863892h0.9688721l-0.7068481-1.5817871l-2.3479004-2.3430176l-0.2571411-1.8389282
	l2.1600342,1.458313l1.7202759,1.6953735l5.4818115,7.9089355l0.2224731,0.7119141l0.0200195,0.6623535l0.2619629,0.4894409
	l0.9093018,0.1779785l0.7514038-0.1384888l0.3806152-0.3657227l0.0643311-0.5043335l-0.2224731-0.4991455l1.2556152-1.8685303
	l0.6425171-0.2816772l0.4251709,1.0923462l1.0923462-0.9538574l0.5438843-0.3412476l0.7512207-0.2866821l-0.5089722-1.0529175
	l0.8500977-0.5040894l1.5718994-1.557251l1.3198242-0.5831299l-0.3016968,1.4335327l-0.1234741,1.4779663l0.2473145,0.8947144
	l0.5633545,0.2619019l0.4894409-0.1037598l0.0939331-0.2669678l0.4894409,0.3806152l0.321167,0.0891113l-0.0149536,0.1582031
	l-0.5487061,0.6670532l-0.4793091,0.2670288l-0.7365112,0.0939331l-1.3494873-0.0741577l0.2371826,0.3013916l0.12854,0.2670288
	l0.1779785,0.2421265l0.3806152,0.2473145l-0.8303833,0.7612305l-2.4862671,1.3098145l1.2949829,0.9146118l0.9736328-0.3016968
	l1.4732056-1.6559448l4.4389038-1.8287964l0.7415161-0.5438843l0.2025146-1.7201538l2.8274536-7.923645l0.9541626-1.1569214
	l0.2272339-0.7908936l0.2374268-1.5075684l1.1715088-3.3809814l2.0907593-3.9249268l0.2373657-0.6275635l0.1878662-1.7005005
	l0.2125244-0.8501587l0.3460083-0.6279297l0.8156738-1.0280151l0.6671143-1.2160645l0.2225342-1.2109985l-0.5338135-0.9936523
	l-6.0801392-2.5999756l-1.0725708-1.0380859l-1.7695312-2.2046509l0.4694214-0.5634155l-0.2422485-0.8108521l0.583374-2.1846924
	l-0.3411255-1.2160645l-0.5187988,0.6871948l-0.7908936,0.3408203l-0.8453369-0.0098267l-0.6524048-0.449707l-2.2097168,0.5040894
	l-1.5964966-0.256897l-1.2110596-1.0578613l-1.1173706-1.8586426l1.137146-0.4449463l0.286499-0.0443115l0.5636597,0.1630249
	l0.2026367,0.3510742l0.0643311,0.3163452l0.0938721,0.1826782l0.385498,0.1237793l0.553772,0.2816772l0.4990234,0.1286011
	l0.3856812-0.1088257l0.1779785-0.711731l0.3905029-0.2373657l1.8981323-0.1630249l3.8456421,0.1483154l1.77948-0.4745483
	l-0.2075806,0.5140991l-0.1036987,0.3163452l-0.1582031,0.2866821l-0.4796143,0.4300537l1.6906128-0.1286011l2.7781982-1.2110596
	l1.6113281-0.2075195l1.1616211,0.3657227l0.9886475,0.8303223l0.874939,1.1518555l0.7612915,1.2950439h-1.394043v0.5684204
	l1.7745972,0.2374268l1.5471802-1.1518555l5.3681641-7.7408447l2.5308838-4.5525513l0.06427,0.2371216l0.0197754,0.2225342
	l0.0791626,0.1036987l0.3460083-0.0394287l1.1318359-2.3035889l0.4645996-0.6326904l0.7119141-0.7266235l0.1582031-0.355835
	l-0.0792236-0.4891968l-0.0789795-1.072876l0.4351196-2.9904175l-0.2177124-0.8899536l-0.7068481-0.6078491l-0.484436,0.2421875
	l-0.2669678,0.1384277l-0.0541992,0.0888672l0.0939331,0.2322998l0.2422485,0.3707275l-1.0925903,1.3099976l-3.331665,1.3791504
	l-0.711731,1.2752075l-0.1185913,0.9936523l-0.3460693,1.0280762l-0.4598389,0.8799438l-0.5286865,0.5585938l-0.7860718,0.3163452
	l0.0197754-0.3609009l0.2965698-0.741333v-0.8007202l-0.6622925-1.1072388l-0.973877-0.8503418l-1.2555542-0.5388794
	l-1.5125122-0.1877441l-0.6030273-0.7463379l1.2850952-1.7301636l2.8323364-2.8423462l-1.0872803-0.3460693l-0.2867432-0.7561646
	l0.2867432-0.8355103l0.5831299-0.6473389l0.8306274-0.163208l0.968811,0.2965698l0.5289307,0.5882568l-0.4646606,0.8057861
	l1.8832397-0.4745483l2.6495972-1.1171265l2.4219971-1.522583l1.0922852-1.6409912h0.4251709l0.4497681,1.1218872
	l-0.385437,2.3431396l0.4448853,0.8156738l-0.2224121,0.3756104l-0.2224731,0.2816772l-0.2272949,0.2224121l-0.262207,0.1680908
	l2.4468384,0.8057861l0.7663574-0.3213501l0.9589233-1.5322266l0.7215576-1.5869141l0.3707886-1.3296509l-0.192627-1.0773926
	l-0.8997192-0.8058472l1.6114502-2.5308838l0.934082-1.1467285l0.8109741-0.0196533l0.0986328,1.1416016l-0.6919556,1.2803955
	l-0.4003906,1.3987427l0.9937134,1.4533081l-0.973938,1.2554932l-0.6279297,1.2555542l-0.7857666,2.8027344l1.1566162-0.5188599
	l2.2194824-0.583374l1.0725708-0.7562256l2.4074097-3.2971802l1.1317749-1.2158203l2.4668579-1.5273438l0.7068481-0.9936523
	l-1.3150024-2.911499l0.2867432-1.3840942l0.6721802-1.324707l0.420105-1.359314l-0.9933472-1.9178467l-2.0267334-2.432251
	l-1.3099365-2.1402588l1.0922852-1.0134277l0.9490967,0.5241699l1.4136963,1.0527954l1.3001099,0.6079712l0.5636597-0.7908936
	l-0.197937-1.2109985l-0.5336914-0.8701172l-1.6509399-1.3937378l-0.6279297,0.286438l-0.1680298-0.4891968l0.2028198-0.7463379
	l0.5931396-0.5932617l0.5633545-0.3411255l0.5881958,0.5683594l1.2310181,1.9032593l0.3013916,0.2816772l0.7711792,0.4251709
	l0.321167,0.3014526l0.133606,0.5092163l0.0493774,0.7265625l0.1434937,0.6426392l0.3657837,0.2867432l1.2307129,0.1186523
	l0.6279297,0.4249268l0.2224121,0.8947144l0.1432495,2.8325195l0.3806152,1.2258911l0.7314453,0.6723022l1.1072388-0.3460083
	l1.2161865,0.9539185l7.4591064-4.1916504l1.0775757-0.3214111l2.328186-1.4532471l1.3297119-0.3262329l4.9134521-2.6495361
	l-0.1975708-1.838623l-1.9625854-1.7550049l-2.6099243-0.9540405l-2.0464478,0.5785522l-0.741333,0.6276245l-1.1765747,0.647583
	l-1.0924683,0.0245972l-0.4893188-1.2998047l0.6078491-0.133728l3.6038208-1.7596436l-0.5636597-1.4385376l-0.3610229-0.612793
	l-0.4891968-0.5585327l-0.4448853-0.3905029l-1.4188232-0.6674194l-2.0019531-1.3691406l-0.805603-0.2670288l-0.6870728,0.7119751
	l-0.5289307,0.0938721l-0.6078491-0.8058472v-0.5635376l0.385437-1.8635864l0.0393677-0.805542l-0.1827393-0.7860718
	l-0.2669067-0.5535278l-1.9376831-2.6246948l-0.583313-1.2160645l-0.2817383-1.3742676l-0.06427-1.9376831l0.7908936,0.4398193
	l0.321167,0.2670288l0.2866821,0.4003906l0.8898926-0.5040894l0.9293213-0.1238403l0.909668,0.2670898l0.8251953,0.6278687
	l0.5684814,0.7266235l0.2077637,0.484436l0.0939331,0.5881348l0.2868042,1.0725708l0.1183472,0.6081543l-0.0195923,0.5238647
	l0.0444946,0.484436l0.3361206,0.5636597l0.3311768,0.1184082l0.9243774-0.0296021l0.4054565,0.1976929l0.7265015,0.2421875
	l0.8352051-0.2421875l0.7020874-0.1086426l0.2868652,0.6327515l0.5829468,1.8634644l2.5705566-1.7844849l0.5882568,1.458252
	l-0.4251099,1.5123901l-1.0281982,0.3115845l-1.2357788,0.1384888l-1.0526733,0.9885254l2.1055908-0.3361206l2.3777466-0.9541016
	l3.9691772-2.4318848l-2.3084106-0.6871338l-0.9293213-0.6228638l0.227356-1.0922852l0.2373047-0.6722412l-0.1830444-0.583374
	l-0.2371216-0.5438232l-0.0444946-0.6029053l0.2618408-0.3312378l0.4450073-0.3014526l0.4251099-0.4448853l0.1827393-0.7463989
	l-0.2023315-0.6081543l-0.524292,0.2374268l-0.5880737,0.4942017l-0.5042114,0.1582031l-0.4646606-0.6278687l-0.5041504-1.1665039
	l-0.3608398-1.3790283l-0.06427-1.1369019h0.4251099l0.2421875,0.6524658l1.230835,2.0018921l0.2618408-0.3064575
	l0.6477051-0.3905029l0.4051514-0.3609619l0.9935913,1.0331421l0.3858643,1.1912842l-0.1583252,1.1369019l-0.6921997,0.8948364
	l0.3412476,0.7215576l1.9872437,1.9624634l0.4003906,0.7661133l0.0244141,0.5241089l0.2769775,0.1680908l1.1715088-0.3460083
	l1.423584-0.874939l1.8189087-2.2393188l1.4335327-0.6820679l-0.4249878,1.0477905l1.5175171-0.9736328l0.934082-0.4053955
	l1.072998-0.1629639l1.3936157,0.0394287l0.4646606,0.2816772l-0.2866821,0.776001l-1.5715942,2.5606689l-0.3511353,0.8552246
	l0.3511353,0.5830688l1.3936157,0.2027588l0.9343872-0.1433105l0.8848267-0.3016357l0.9886475-0.1976929l1.1564941,0.1235352
	v0.519104h-0.4300537l-1.067688,0.9096069l-3.1337891,0.3459473l-1.2159424,0.6276855l-0.2768555,1.1864014l1.4681396,0.0445557
	l3.2574463-0.9442749l4.043457-1.9029541l1.3937988-0.2669678l0.9194336-0.3609619l2.6247559-1.5222778l1.3494873-0.2373657
	l1.3001709,0.7020874l0.4251099,1.2752075l-0.2473145,1.196167l-0.7411499,0.5487061l-1.4634399,0.3064575l-9.8464966,5.0369263
	l-2.3036499,1.6906128l-1.6556396,2.0266724l2.1005249-0.9541016l4.40448-2.7333984l3.9447021-1.3051147l4.1868286-3.3217163
	l7.0438843-1.6559448l4.4633179-2.2244263l8.0722046-5.3631592l-2.4468384,0.2470703l-2.6247559,1.0085449l-9.4067383,5.3828735
	l-0.2077637,0.2027588l-0.4399414,0.1384277l-0.4842529,0.0445557l-0.3262329-0.1286011l-0.2817383-0.4596558l0.0789185-0.2866821
	l0.1779785-0.3016968l0.0839844-1.295105l0.2670898-0.7313843l0.098877-0.7860718l-0.4251099-0.9440308l9.2287598-3.4009399
	l2.5407715-0.2718506l3.1785278,0.1928711l3.0693359-0.2275391l3.015625-0.7513428l2.9509888-1.3937988l7.8493652-5.1160889
	l4.6712036-3.3170166l1.1963501-0.4645996l1.5373535-0.1827393l0.7859497-0.5092163l3.6776123-3.2081909l3.7122803-4.1469727
	l1.9329224-1.0776978l4.9776611-3.9248657l0.5238037-0.9837036l0.12854-1.0579224l-0.0444946-1.324646l-0.5438843-3.2625122
	l-0.0789185-1.680481l0.6228027-1.7399902l-0.8701172-2.0217285l-0.5238037-0.6425171l1.1912842,0.6177368l1.0973511,0.1432495
	l0.8800049,0.4251709l0.5731201,1.4780884l1.8834839-1.0925903l1.5964355-1.2158203l4.5082397-5.210022l0.0395508-0.2225342
	l-0.0792236-0.6278076l0.0396729-0.222229l0.1977539-0.0445557l0.5881958,0.0986938l0.2026978-0.0541382l1.3939209-1.0331421
	l0.6276245-0.647644l0.3066406-0.9885864h0.4696045l1.0825195,0.8848267l1.0578003-0.6279297l0.7859497-1.4926758
	l0.3016968-1.7005005l0.5435791-1.5422974l1.2852173-0.385498l1.4285278,0.385498l1.0331421,0.7564697l0.2025146-0.3261719
	l0.197876-0.1187134l0.227356-0.0643311l0.2867432-0.0791626l-3.0744629-1.3988647l-0.8898926-0.1629639l-0.7365723-0.5438843
	l-1.8933105-3.2279053l-0.06427,0.1533813l-0.0197754,0.2422485l-0.0840454,0.0394287h-0.1582031v0.2027588l0.0197754,0.1483154
	l0.3065186,0.2717896v0.5735474l-1.7645264-0.0595093l-0.2768555-1.0528564l-0.0840454-1.2950439l-1.1517334-0.8503418v-0.5238647
	l0.9884644-0.3262939l0.973938-0.484375l0.8059082-0.7661133l0.5088501-1.0925903l-5.0813599-1.5620117l-2.2492676-1.453186
	l0.553772-2.1008911l0.7266235-0.7562256l1.0331421-1.3692017l0.3806152-1.3148193l-2.2639771-1.1715088l-0.3856812-1.3395996
	l0.4054565-1.4384766l1.2555542-0.9293823l-0.3016968-0.7266235l-0.4298706-0.2966309l-0.6079712-0.064209l-0.7462769,0.0148926
	l-0.7218628-0.1779785l-0.5933228-0.4448853l-1.032959-1.2752686l0.3312378-0.3609619l4.1027222,0.1238403l2.1601562,1.3096924
	l2.0662231,1.8834229l2.0760498,0.9688721l2.2145386-1.492981l1.0874634-2.6543579l0.7266235-2.491394l0.5238037-0.741333
	l1.2161865-0.6969604l2.4666138-1.0085449l1.5817871-0.8796997l0.5634766-0.1483765l0.5437622,0.3460083l0.2915039,1.4827881
	l0.5834351,0.3163452l1.2751465,0.3214722l0.3016968,0.8453369l0.0197754,1.2160645l0.5042114,1.423645L868.0367432,628.75
	l-0.8500366,3.7368164l-0.9490356,2.8324585l-1.2357788,2.5754395l-0.869873,1.1912842l-0.7119141,0.3262329l-0.9688721,0.1433105
	l-0.7660522,0.2619019l-0.1238403,0.6425781l0.5143433,0.6921997l0.7017822,0.3014526l0.8303223,0.0791626l3.5591431-0.5241089
	l10.0099487-2.9510498l1.2354126,0.0595703l1.0875244,0.4793091l1.0974731,1.0184326l1.3348389,0.5238647l1.0231934-0.7711792
	l0.6326904-0.583374l0.0394287,1.0925903l-0.4448853,1.4086914l-0.8599243,0.6524048l-1.2062988,0.1435547l-3.4353027-0.1881104
	l-0.6032104,0.1881104l-0.7860718,0.4990845l-2.0662231,2.1702271l-0.5089722,0.3409424l-0.7020874,0.3213501l-0.7759399,0.2422485
	l-1.616333,0.2915649l-1.779541,0.9242554l-5.5362549,5.4423218l-0.5882568,1.0529175l0.3015747,0.746521l1.5916748,0.3065186
	l1.4086304-0.647644l3.52948-4.2164307l2.5111084-1.8141479l21.8433838-9.9108276l8.1708984-3.0747681l5.7835693-3.2523804
	l2.0266724-0.9146118l2.8670044-0.8848267l1.5422363-0.1629639l8.2895508,0.1629639l2.0217285,0.583374l0.7908936-0.0445557
	l1.0775757-1.3692017l-1.0973511-2.427124l-3.7219849-4.335083l-1.6165771-2.8915405l0.519043-2.8226318l5.3828735-7.7507935
	l0.6674805-1.4334717l0.2669067-1.4334717l0.805603-0.3755493l1.7797852-0.0544434l1.3591919,0.1384277v-0.0197754
	l1.3937988-2.4664917l4.0238647-4.5725098l-0.5239868-0.9440308l0.1184692-0.7364502l0.8650513-1.5474243l0.4549561-1.7991333
	l-0.0446777-1.2606812l-0.2470093-1.1317749l-0.163269-1.453186l-0.1333008-0.524231l-0.6674805-1.1566162l-0.1629639-0.7860107
	l0.1184692-0.8947144l0.6477051-1.5569458l0.1975708-0.7858276l-0.3163452-1.7896118l-0.9932861-1.1219482l-1.038147-0.9689941
	l-0.4796753-1.2110596l-0.2619629-3.4898071l0.2176514-1.5124512l0.9736328-1.7746582l1.6559448-2.0662231l0.5290527-1.0725708
	l0.1876831-1.4779663l-0.0840454-0.6279297l-0.8500366-2.3675537l0.0591431-0.0840454l-0.0591431-1.5324707l-0.1830444-0.3609009
	l-0.5435791-0.3657227l-0.2077637-0.4003906l0.0248413-1.5620728l0.6078491-1.3939819l1.0480957-0.9932861l1.3347778-0.3857422
	l0.1431885-0.8255615l0.9935913-3.9296875l0.5585327-1.2259521l2.3529053-1.8831787l0.6624146-1.1419067l0.5534668-3.7766113
	l2.4866943-4.5820923l0.3803101-1.3198853l0.1039429-0.7068481l0.0146484-0.9541016l-0.0690308-0.8848267l-0.3509521-1.5175171
	l-0.0789185-0.869812l0.256897-0.8354492l0.6081543-0.6674194l1.0526733-0.9242554l0.4249878-0.8353882l0.098999-0.3460693
	l-0.5239868-1.0330811l-0.5043335-0.583374l-1.0922852-1.7151489l-0.5881958-1.7991333l1.0133057-0.8354492l0.6228638-0.0939331
	l1.8635254-0.5782471l0.5435791-0.3708496l0.2670898-0.7958984L949.8251343,521.6727295z"/>
</svg>
